<svg width="24" height="24" viewBox="0 0 24 24" fill="none" xmlns="http://www.w3.org/2000/svg">
<g id="Social" clip-path="url(#clip0_885_82362)">
<path id="Vector" fill-rule="evenodd" clip-rule="evenodd" d="M23.3763 12C23.3763 18.4552 18.1433 23.6881 11.6881 23.6881C5.23296 23.6881 0 18.4552 0 12C0 5.54482 5.23296 0.311859 11.6881 0.311859C18.1433 0.311859 23.3763 5.54482 23.3763 12ZM12.107 8.94056C10.9701 9.41342 8.69806 10.3921 5.29073 11.8766C4.73743 12.0967 4.44759 12.3119 4.4212 12.5224C4.37661 12.8781 4.82206 13.0181 5.42863 13.2089C5.51114 13.2348 5.59663 13.2617 5.68427 13.2902C6.28105 13.4842 7.08382 13.7111 7.50115 13.7201C7.8797 13.7283 8.30221 13.5723 8.76868 13.2519C11.9523 11.1029 13.5956 10.0167 13.6988 9.99332C13.7716 9.9768 13.8725 9.95602 13.9408 10.0168C14.0091 10.0775 14.0024 10.1926 13.9952 10.2234C13.9511 10.4115 12.2025 12.0371 11.2977 12.8784C11.0156 13.1406 10.8155 13.3266 10.7746 13.3691C10.683 13.4643 10.5896 13.5543 10.4998 13.6408C9.94541 14.1753 9.52965 14.5761 10.5228 15.2306C11.0001 15.5451 11.3821 15.8052 11.7631 16.0647C12.1792 16.3481 12.5943 16.6307 13.1313 16.9827C13.2681 17.0724 13.3987 17.1656 13.526 17.2563C14.0103 17.6015 14.4453 17.9117 14.9828 17.8622C15.2951 17.8335 15.6178 17.5398 15.7816 16.6639C16.1688 14.5939 16.9299 10.1089 17.1058 8.26075C17.1212 8.09882 17.1018 7.89159 17.0863 7.80062C17.0707 7.70965 17.0382 7.58004 16.9199 7.48409C16.7799 7.37046 16.5637 7.3465 16.467 7.3482C16.0274 7.35595 15.3529 7.59047 12.107 8.94056Z" fill="white"/>
</g>
<defs>
<clipPath id="clip0_885_82362">
<rect width="23.3763" height="23.3763" fill="white" transform="translate(0 0.311859)"/>
</clipPath>
</defs>
</svg>
