<svg width="25" height="24" viewBox="0 0 25 24" fill="none" xmlns="http://www.w3.org/2000/svg">
<g id="Social" clip-path="url(#clip0_885_82363)">
<path id="Vector" fill-rule="evenodd" clip-rule="evenodd" d="M23.0801 5.02033C23.4428 5.38536 23.7033 5.83924 23.8354 6.33656C24.3242 8.17213 24.3242 12 24.3242 12C24.3242 12 24.3242 15.8279 23.8354 17.6634C23.7033 18.1608 23.4428 18.6146 23.0801 18.9797C22.7174 19.3447 22.2652 19.608 21.7688 19.7434C19.9412 20.2348 12.6361 20.2348 12.6361 20.2348C12.6361 20.2348 5.33098 20.2348 3.50338 19.7434C3.00692 19.608 2.55471 19.3447 2.19202 18.9797C1.82932 18.6146 1.56886 18.1608 1.4367 17.6634C0.947922 15.8279 0.947922 12 0.947922 12C0.947922 12 0.947922 8.17213 1.4367 6.33656C1.56886 5.83924 1.82932 5.38536 2.19202 5.02033C2.55471 4.65531 3.00692 4.39194 3.50338 4.2566C5.33098 3.76517 12.6361 3.76517 12.6361 3.76517C12.6361 3.76517 19.9412 3.76517 21.7688 4.2566C22.2652 4.39194 22.7174 4.65531 23.0801 5.02033ZM16.355 12L10.2453 8.52413V15.4759L16.355 12Z" fill="white"/>
</g>
<defs>
<clipPath id="clip0_885_82363">
<rect width="23.3763" height="23.3763" fill="white" transform="translate(0.924744 0.311859)"/>
</clipPath>
</defs>
</svg>
