<svg width="25" height="24" viewBox="0 0 25 24" fill="none" xmlns="http://www.w3.org/2000/svg">
<g id="Social" clip-path="url(#clip0_885_82366)">
<path id="Vector" fill-rule="evenodd" clip-rule="evenodd" d="M12.7086 0.623718C6.24006 0.623718 1.01083 5.89149 1.01083 12.4085C1.01083 17.6178 4.36138 22.0274 9.00947 23.5881C9.5906 23.7054 9.80347 23.3345 9.80347 23.0225C9.80347 22.7493 9.78432 21.8129 9.78432 20.8371C6.53027 21.5397 5.85264 19.4323 5.85264 19.4323C5.32969 18.0665 4.55485 17.7155 4.55485 17.7155C3.4898 16.9936 4.63243 16.9936 4.63243 16.9936C5.81385 17.0716 6.43377 18.2032 6.43377 18.2032C7.47942 19.9981 9.16439 19.491 9.84226 19.1787C9.939 18.4178 10.2491 17.891 10.5783 17.5984C7.98298 17.3252 5.25235 16.3107 5.25235 11.784C5.25235 10.4962 5.71687 9.44269 6.45293 8.62332C6.3368 8.33071 5.92998 7.1208 6.5693 5.50144C6.5693 5.50144 7.557 5.1892 9.78408 6.71111C10.7376 6.45315 11.7209 6.32192 12.7086 6.32082C13.6964 6.32082 14.7032 6.45754 15.633 6.71111C17.8603 5.1892 18.848 5.50144 18.848 5.50144C19.4873 7.1208 19.0803 8.33071 18.9641 8.62332C19.7196 9.44269 20.1649 10.4962 20.1649 11.784C20.1649 16.3107 17.4343 17.3056 14.8196 17.5984C15.2458 17.9691 15.6136 18.6714 15.6136 19.7836C15.6136 21.3639 15.5944 22.6322 15.5944 23.0223C15.5944 23.3345 15.8075 23.7054 16.3884 23.5883C21.0365 22.0272 24.3871 17.6178 24.3871 12.4085C24.4062 5.89149 19.1578 0.623718 12.7086 0.623718Z" fill="white"/>
</g>
<defs>
<clipPath id="clip0_885_82366">
<rect width="23.3763" height="23.3763" fill="white" transform="translate(0.698975 0.311859)"/>
</clipPath>
</defs>
</svg>
