<svg width="25" height="24" viewBox="0 0 25 24" fill="none" xmlns="http://www.w3.org/2000/svg">
<g id="Social" clip-path="url(#clip0_885_82364)">
<path id="Vector" d="M22.4954 0.311859H2.57531C1.62109 0.311859 0.849487 1.0652 0.849487 1.9966V21.9988C0.849487 22.9302 1.62109 23.6881 2.57531 23.6881H22.4954C23.4496 23.6881 24.2258 22.9302 24.2258 22.0034V1.9966C24.2258 1.0652 23.4496 0.311859 22.4954 0.311859ZM7.78476 20.2319H4.31484V9.0734H7.78476V20.2319ZM6.0498 7.55303C4.93577 7.55303 4.03633 6.65359 4.03633 5.54413C4.03633 4.43467 4.93577 3.53523 6.0498 3.53523C7.15926 3.53523 8.0587 4.43467 8.0587 5.54413C8.0587 6.64902 7.15926 7.55303 6.0498 7.55303ZM20.7696 20.2319H17.3042V14.8079C17.3042 13.5158 17.2814 11.8493 15.5008 11.8493C13.6973 11.8493 13.4234 13.2601 13.4234 14.7166V20.2319H9.96259V9.0734H13.2864V10.5983H13.3321C13.7932 9.72173 14.9255 8.7949 16.6102 8.7949C20.1212 8.7949 20.7696 11.1051 20.7696 14.1093V20.2319Z" fill="white"/>
</g>
<defs>
<clipPath id="clip0_885_82364">
<rect width="23.3763" height="23.3763" fill="white" transform="translate(0.849487 0.311859)"/>
</clipPath>
</defs>
</svg>
