<svg width="24" height="24" viewBox="0 0 24 24" fill="none" xmlns="http://www.w3.org/2000/svg">
<g id="Social Icons" clip-path="url(#clip0_885_82367)">
<path id="Vector" d="M24 11.8322C24 14.9289 23.481 17.4408 22.8406 17.4408C22.2002 17.4408 21.6815 14.9295 21.6815 11.8322C21.6815 8.73481 22.2004 6.22357 22.8406 6.22357C23.4808 6.22357 24 8.73459 24 11.8322Z" fill="white"/>
<path id="Vector_2" d="M21.0418 11.8322C21.0418 15.2893 19.5659 18.0929 17.7453 18.0929C15.9247 18.0929 14.4488 15.2893 14.4488 11.8322C14.4488 8.3751 15.9245 5.57147 17.7451 5.57147C19.5657 5.57147 21.0415 8.3742 21.0415 11.8322" fill="white"/>
<path id="Vector_3" d="M13.8093 11.8322C13.8093 15.5049 10.8576 18.4822 7.21665 18.4822C3.57568 18.4822 0.623718 15.5042 0.623718 11.8322C0.623718 8.16013 3.57546 5.18192 7.21665 5.18192C10.8578 5.18192 13.8093 8.15945 13.8093 11.8322Z" fill="white"/>
</g>
<defs>
<clipPath id="clip0_885_82367">
<rect width="23.3763" height="23.3763" fill="white" transform="translate(0.623718 0.311859)"/>
</clipPath>
</defs>
</svg>
