<svg width="20" height="20" viewBox="0 0 20 20" fill="none" xmlns="http://www.w3.org/2000/svg">
<g id="16/Actions/Clear">
<path id="Subtract" fill-rule="evenodd" clip-rule="evenodd" d="M17.9173 10.0002C17.9173 14.3724 14.3729 17.9168 10.0007 17.9168C5.6284 17.9168 2.08398 14.3724 2.08398 10.0002C2.08398 5.62791 5.6284 2.0835 10.0007 2.0835C14.3729 2.0835 17.9173 5.62791 17.9173 10.0002ZM12.3003 6.38615L10.0005 8.68596L7.70067 6.38615C7.51922 6.2047 7.22503 6.2047 7.04358 6.38615L6.38649 7.04324C6.20504 7.22469 6.20504 7.51888 6.38649 7.70033L8.6863 10.0001L6.38649 12.2999C6.20504 12.4814 6.20504 12.7756 6.38649 12.957L7.04358 13.6141C7.22503 13.7956 7.51922 13.7956 7.70067 13.6141L10.0005 11.3143L12.3003 13.6141C12.4817 13.7956 12.7759 13.7956 12.9574 13.6141L13.6145 12.957C13.7959 12.7756 13.7959 12.4814 13.6145 12.2999L11.3147 10.0001L13.6145 7.70033C13.7959 7.51888 13.7959 7.22469 13.6145 7.04324L12.9574 6.38615C12.7759 6.2047 12.4817 6.2047 12.3003 6.38615Z" fill="#BDBDBD"/>
</g>
</svg>
