<svg width="13" height="16" viewBox="0 0 13 16" fill="none" xmlns="http://www.w3.org/2000/svg">
<g id="Component 4">
<path id="Vector" d="M2.87473 5.18442C2.80204 5.9598 2.75102 7.33203 3.20886 7.91611C3.20886 7.91611 2.99333 6.40871 4.92541 4.51744C5.70335 3.75608 5.88316 2.72054 5.61153 1.94388C5.45721 1.5039 5.17537 1.14044 4.93051 0.886653C4.78768 0.737442 4.89736 0.491309 5.10523 0.500236C6.36268 0.55635 8.40061 0.905782 9.26654 3.0789C9.64658 4.03282 9.67463 5.01863 9.49354 6.02102C9.37877 6.66122 8.97067 8.08445 9.90164 8.25917C10.5661 8.38415 10.8874 7.85617 11.0316 7.47613C11.0915 7.318 11.2994 7.27846 11.4116 7.40472C12.5339 8.68129 12.6295 10.1849 12.3974 11.4793C11.9485 13.9814 9.41447 15.8026 6.89703 15.8026C3.75214 15.8026 1.24872 14.0031 0.59959 10.746C0.338154 9.43117 0.470785 6.82956 2.49851 4.99312C2.649 4.85539 2.89513 4.97782 2.87473 5.18442Z" fill="url(#paint0_radial_150_17272)"/>
<path id="Vector_2" d="M8.01752 9.86216C6.85828 8.37005 7.37732 6.66753 7.66172 5.98907C7.69997 5.89979 7.59795 5.81562 7.51761 5.87046C7.01896 6.20969 5.99745 7.00803 5.52176 8.13157C4.87773 9.65046 4.92364 10.394 5.30496 11.302C5.53451 11.8491 5.26797 11.9651 5.13407 11.9855C5.00399 12.0059 4.88411 11.9192 4.78846 11.8287C4.5133 11.5645 4.31722 11.2289 4.22223 10.8594C4.20182 10.7804 4.09852 10.7587 4.05134 10.8237C3.69425 11.3173 3.50933 12.1092 3.50041 12.6691C3.47235 14.3997 4.90196 15.8025 6.63127 15.8025C8.81076 15.8025 10.3985 13.3922 9.14617 11.3772C8.7827 10.7906 8.44092 10.4067 8.01752 9.86216Z" fill="url(#paint1_radial_150_17272)"/>
</g>
<defs>
<radialGradient id="paint0_radial_150_17272" cx="0" cy="0" r="1" gradientUnits="userSpaceOnUse" gradientTransform="translate(6.27414 15.8422) rotate(-179.751) scale(9.00206 14.7706)">
<stop offset="0.314" stop-color="#FF9800"/>
<stop offset="0.662" stop-color="#FF6D00"/>
<stop offset="0.972" stop-color="#F44336"/>
</radialGradient>
<radialGradient id="paint1_radial_150_17272" cx="0" cy="0" r="1" gradientUnits="userSpaceOnUse" gradientTransform="translate(6.75114 6.88284) rotate(90.5787) scale(9.41891 7.08844)">
<stop offset="0.214" stop-color="#FFF176"/>
<stop offset="0.328" stop-color="#FFF27D"/>
<stop offset="0.487" stop-color="#FFF48F"/>
<stop offset="0.672" stop-color="#FFF7AD"/>
<stop offset="0.793" stop-color="#FFF9C4"/>
<stop offset="0.822" stop-color="#FFF8BD" stop-opacity="0.804"/>
<stop offset="0.863" stop-color="#FFF6AB" stop-opacity="0.529"/>
<stop offset="0.91" stop-color="#FFF38D" stop-opacity="0.209"/>
<stop offset="0.941" stop-color="#FFF176" stop-opacity="0"/>
</radialGradient>
</defs>
</svg>
