<svg width="21" height="20" viewBox="0 0 21 20" fill="none" xmlns="http://www.w3.org/2000/svg">
<g id="language 3" clip-path="url(#clip0_165_1226)">
<path id="&#229;&#189;&#162;&#231;&#138;&#182;&#231;&#187;&#147;&#229;&#144;&#136;" fill-rule="evenodd" clip-rule="evenodd" d="M10.4095 0.299805C15.7667 0.299805 20.1095 4.64265 20.1095 9.99981C20.1095 15.3569 15.7667 19.6998 10.4095 19.6998C5.05231 19.6998 0.709473 15.3569 0.709473 9.99981C0.709473 4.64265 5.05231 0.299805 10.4095 0.299805ZM13.1508 10.6248H7.66804C7.73164 12.9228 8.14234 14.9411 8.7366 16.3822C9.06158 17.1703 9.41688 17.7258 9.74746 18.0649C10.0741 18.4 10.2973 18.4498 10.4094 18.4498C10.5215 18.4498 10.7447 18.4 11.0714 18.0649C11.402 17.7258 11.7573 17.1703 12.0823 16.3822C12.6765 14.9411 13.0872 12.9228 13.1508 10.6248ZM8.25392 18.1724C7.21005 16.5444 6.50062 13.791 6.41759 10.6248L1.98228 10.6254C2.24892 14.2688 4.82563 17.2706 8.25392 18.1724ZM18.8367 10.6254L14.4013 10.6248C14.3181 13.7957 13.6067 16.5525 12.5656 18.1713C15.9933 17.2706 18.57 14.2688 18.8367 10.6254ZM12.565 1.82722C13.6088 3.45525 14.3182 6.20862 14.4013 9.37482L18.8367 9.37517C18.5705 5.73137 15.9936 2.7291 12.565 1.82722ZM8.25325 1.82829L8.20218 1.84101C4.79941 2.75936 2.24711 5.74972 1.98221 9.37517L6.41759 9.37482C6.50074 6.20395 7.21214 3.44711 8.25325 1.82829ZM10.4095 1.54981L10.368 1.55197C10.2465 1.5644 10.0378 1.63685 9.74746 1.93469C9.41688 2.27377 9.06158 2.82932 8.7366 3.61741C8.14234 5.05848 7.73164 7.07683 7.66804 9.37482H13.1508C13.0872 7.07683 12.6765 5.05848 12.0823 3.61741C11.7573 2.82932 11.402 2.27377 11.0714 1.93469C10.7447 1.59962 10.5215 1.54981 10.4094 1.54981H10.4095Z" fill="#FAFAFA"/>
</g>
<defs>
<clipPath id="clip0_165_1226">
<rect width="20" height="20" fill="white" transform="translate(0.409424)"/>
</clipPath>
</defs>
</svg>
