<svg width="24" height="24" viewBox="0 0 24 24" fill="none" xmlns="http://www.w3.org/2000/svg">
<g id="hamburger">
<g id="Union">
<path d="M20 5.4C20 5.17909 19.8209 5 19.6 5H4.4C4.17909 5 4 5.17909 4 5.4V6.2C4 6.42091 4.17909 6.6 4.4 6.6H19.6C19.8209 6.6 20 6.42091 20 6.2V5.4Z" fill="#FAFAFA"/>
<path d="M20 11.6C20 11.3791 19.8209 11.2 19.6 11.2H4.4C4.17909 11.2 4 11.3791 4 11.6V12.4C4 12.6209 4.17909 12.8 4.4 12.8H19.6C19.8209 12.8 20 12.6209 20 12.4V11.6Z" fill="#FAFAFA"/>
<path d="M4.4 19C4.17909 19 4 18.8209 4 18.6V17.8C4 17.5791 4.17909 17.4 4.4 17.4L19.6 17.4C19.8209 17.4 20 17.5791 20 17.8V18.6C20 18.8209 19.8209 19 19.6 19L4.4 19Z" fill="#FAFAFA"/>
</g>
</g>
</svg>
