<svg width="21" height="20" viewBox="0 0 21 20" fill="none" xmlns="http://www.w3.org/2000/svg">
<g id="&#229;&#175;&#188;&#232;&#136;&#170; / icon">
<rect id="&#231;&#159;&#169;&#229;&#189;&#162;" x="0.409424" width="20" height="20" fill="#FF6464" fill-opacity="0.01"/>
<path id="&#229;&#189;&#162;&#231;&#138;&#182;&#231;&#187;&#147;&#229;&#144;&#136;" fill-rule="evenodd" clip-rule="evenodd" d="M10.4094 0.299805C6.34926 0.299805 3.57191 3.22687 3.57191 6.85552C3.57191 8.94382 3.31333 9.926 2.60576 11.1815L2.38596 11.5594C1.94792 12.3035 1.73562 12.7392 1.54673 13.384C0.9199 15.5236 2.76036 16.7426 6.57956 17.1838C7.07977 18.6916 8.62326 19.7498 10.4094 19.7498C12.1994 19.7498 13.7457 18.6871 14.2425 17.174C15.4516 17.0301 16.4699 16.8094 17.2705 16.5134C19.0518 15.8549 19.8776 14.7345 19.333 13.3333C19.1452 12.85 18.9621 12.4991 18.6304 11.9547L18.4575 11.6745C17.5281 10.1783 17.2295 9.23834 17.2295 6.85552C17.2295 3.22304 14.4673 0.299805 10.4094 0.299805ZM12.8345 17.3014C12.0812 17.3502 11.2713 17.3748 10.4094 17.3748C9.5448 17.3748 8.73665 17.3522 7.98759 17.3061C8.46802 18.0083 9.36181 18.4998 10.4094 18.4998C11.4594 18.4998 12.3548 18.0061 12.8345 17.3014ZM10.4094 1.5498C13.7606 1.5498 15.9795 3.89806 15.9795 6.85552C15.9795 9.37113 16.3178 10.5455 17.2631 12.1172L17.662 12.7696C17.8945 13.161 18.0308 13.4333 18.1679 13.7861C18.4072 14.4018 18.0438 14.8949 16.8371 15.341C15.4594 15.8503 13.2413 16.1248 10.4094 16.1248L9.70269 16.1195C4.64519 16.0419 2.34094 15.1191 2.74631 13.7354C2.88249 13.2706 3.03492 12.9371 3.34094 12.4036L3.56136 12.0268C4.42442 10.5579 4.78531 9.41264 4.81924 7.21197L4.82191 6.85552C4.82191 3.90297 7.05472 1.5498 10.4094 1.5498Z" fill="#FAFAFA"/>
</g>
</svg>
