<svg width="24" height="24" viewBox="0 0 24 24" fill="none" xmlns="http://www.w3.org/2000/svg">
<g id="Search">
<path id="Union" fill-rule="evenodd" clip-rule="evenodd" d="M16.1353 16.9667C14.8022 18.0504 13.102 18.7 11.25 18.7C6.96979 18.7 3.5 15.2302 3.5 10.95C3.5 6.66979 6.96979 3.2 11.25 3.2C15.5302 3.2 19 6.66979 19 10.95C19 12.802 18.3504 14.5022 17.2667 15.8353L20.7829 19.3515C20.9391 19.5077 20.9391 19.761 20.7829 19.9172L20.2172 20.4829C20.061 20.6391 19.8077 20.6391 19.6515 20.4829L16.1353 16.9667ZM17.4 10.95C17.4 14.3466 14.6466 17.1 11.25 17.1C7.85345 17.1 5.1 14.3466 5.1 10.95C5.1 7.55345 7.85345 4.8 11.25 4.8C14.6466 4.8 17.4 7.55345 17.4 10.95Z" fill="#1A1A1A"/>
</g>
</svg>
