<svg width="162" height="116" viewBox="0 0 162 116" fill="none" xmlns="http://www.w3.org/2000/svg">
<path d="M133.99 34.982C128.099 30.6802 120.086 31.6502 112.676 32.547C110.004 32.8704 107.411 33.1843 105.025 33.2381L94.8717 33.4053L94.873 33.7886C94.8733 33.7886 94.8735 33.7886 94.8738 33.7886C97.9372 33.7779 101.029 33.7096 104 33.644C104.346 33.6364 104.69 33.6288 105.033 33.6213L105.033 33.6213C107.306 33.57 109.76 33.2854 112.269 32.9824C112.419 32.9643 112.569 32.9461 112.719 32.9279C115.091 32.6409 117.509 32.3482 119.899 32.2219C124.984 31.9531 129.86 32.4443 133.757 35.2864M133.99 34.982L133.75 35.2809C133.752 35.2827 133.755 35.2846 133.757 35.2864M133.99 34.982C137.089 37.4704 139.174 41.0038 139.855 44.9198C142.65 58.1782 139.52 77.815 128.113 86.4031C115.703 95.7675 97.2964 94.1789 82.963 92.005C66.611 89.5325 50.3068 85.2205 35.4598 77.803C22.6194 71.3888 7.49768 61.5466 2.52876 47.3684M133.99 34.982L133.764 35.2915C133.762 35.2898 133.759 35.2881 133.757 35.2864M133.757 35.2864C136.78 37.7161 138.813 41.1642 139.477 44.9854L139.477 44.9854L139.48 44.9989C140.865 51.5695 140.783 59.7352 138.937 67.3222C137.09 74.9131 133.49 81.8752 127.883 86.0968L127.882 86.0971C121.759 90.7176 114.138 92.6494 106.235 93.1484C98.3326 93.6474 90.1805 92.712 83.0205 91.626L83.0203 91.626C66.6946 89.1575 50.4318 84.8545 35.6311 77.4601C29.2247 74.2599 22.2633 70.2113 16.2887 65.2034C10.3129 60.1946 5.34422 54.243 2.8905 47.2417M39.6284 16.9219C34.6236 13.1355 30.0728 10.1255 23.575 10.5794C17.2217 10.9133 11.1448 13.2837 6.2435 17.3399M39.6284 16.9219L39.3963 17.2269C39.3965 17.2271 39.3967 17.2272 39.3969 17.2274M39.6284 16.9219L39.3971 17.2276C39.397 17.2275 39.3969 17.2274 39.3969 17.2274M39.6284 16.9219L39.3969 17.2274M6.2435 17.3399C-2.02209 24.5783 -0.767919 37.9562 2.52876 47.3684M6.2435 17.3399L6.48788 17.6352C6.48926 17.6341 6.49063 17.633 6.49201 17.6318M6.2435 17.3399L6.49603 17.6283C6.49469 17.6295 6.49335 17.6307 6.49201 17.6318M2.52876 47.3684L2.8905 47.2417M2.52876 47.3684L2.89052 47.2417C2.89051 47.2417 2.89051 47.2417 2.8905 47.2417M2.8905 47.2417C1.25402 42.5694 0.12898 36.9233 0.43297 31.5607C0.736792 26.201 2.46432 21.1613 6.49201 17.6318M6.49201 17.6318C11.3291 13.6302 17.3258 11.2916 23.5951 10.9621L23.5951 10.9622L23.6017 10.9617C29.9461 10.5186 34.3957 13.4437 39.3969 17.2274" stroke="#8D8D8D" stroke-width="0.766611"/>
<path d="M143.512 89.4249V94.5611" stroke="#CFCFCF" stroke-width="0.766611" stroke-linecap="round" stroke-linejoin="round"/>
<path d="M140.943 91.9928H146.079" stroke="#CFCFCF" stroke-width="0.766611" stroke-linecap="round" stroke-linejoin="round"/>
<path d="M7.25992 50.3788C7.9064 50.3788 8.43048 49.8547 8.43048 49.2082C8.43048 48.5617 7.9064 48.0377 7.25992 48.0377C6.61343 48.0377 6.08936 48.5617 6.08936 49.2082C6.08936 49.8547 6.61343 50.3788 7.25992 50.3788Z" fill="#CFCFCF"/>
<path d="M117.805 112.502C117.694 112.557 117.534 112.618 117.319 112.684C116.763 112.853 115.924 113.02 114.82 113.182C112.618 113.506 109.42 113.799 105.457 114.045C97.5348 114.537 86.584 114.842 74.4843 114.842C62.3845 114.842 51.4337 114.537 43.5111 114.045C39.5482 113.799 36.3509 113.506 34.1485 113.182C33.0447 113.02 32.206 112.853 31.6499 112.684C31.4347 112.618 31.275 112.557 31.1634 112.502C31.275 112.447 31.4347 112.385 31.6499 112.32C32.206 112.151 33.0447 111.983 34.1485 111.821C36.3509 111.497 39.5482 111.205 43.5111 110.959C51.4337 110.466 62.3845 110.162 74.4843 110.162C86.584 110.162 97.5348 110.466 105.457 110.959C109.42 111.205 112.618 111.497 114.82 111.821C115.924 111.983 116.763 112.151 117.319 112.32C117.534 112.385 117.694 112.447 117.805 112.502ZM31.0005 112.398C31.0007 112.398 31.0024 112.4 31.0048 112.403C31.0015 112.4 31.0003 112.398 31.0005 112.398ZM31.0005 112.605C31.0003 112.605 31.0015 112.604 31.0048 112.6C31.0024 112.604 31.0007 112.605 31.0005 112.605ZM117.964 112.6C117.967 112.604 117.968 112.605 117.968 112.605C117.968 112.605 117.966 112.604 117.964 112.6ZM117.964 112.403C117.966 112.4 117.968 112.398 117.968 112.398C117.968 112.398 117.967 112.4 117.964 112.403Z" stroke="#CFCFCF" stroke-width="0.766611"/>
<path d="M40.7163 1H104.38C105.964 1 107.483 1.62922 108.603 2.74923C109.724 3.86925 110.353 5.38831 110.353 6.97225V82.7123C110.353 84.2963 109.724 85.8153 108.603 86.9354C107.483 88.0554 105.964 88.6846 104.38 88.6846H32.5582C30.9742 88.6846 29.4552 88.0554 28.3352 86.9354C27.2152 85.8153 26.5859 84.2963 26.5859 82.7123V15.2737L40.7163 1Z" fill="white" stroke="black" stroke-width="0.766611" stroke-linecap="round" stroke-linejoin="round"/>
<path d="M44.8018 89.0299V38.2918H109.682V89.0299H44.8018Z" stroke="#E8E8E8" stroke-width="0.766611"/>
<path d="M26.5859 15.2737H38.1602C38.8392 15.2705 39.4893 14.9986 39.9683 14.5173C40.4474 14.036 40.7163 13.3846 40.7163 12.7056V1L26.5859 15.2737Z" fill="white" stroke="black" stroke-width="0.766611" stroke-linecap="round" stroke-linejoin="round"/>
<path d="M109.743 21.4608H44.813C42.2865 21.4608 40.2383 23.509 40.2383 26.0356V39.927C40.2383 42.4536 42.2865 44.5018 44.813 44.5018H109.743C112.27 44.5018 114.318 42.4536 114.318 39.927V26.0356C114.318 23.509 112.27 21.4608 109.743 21.4608Z" fill="white" stroke="#8D8D8D" stroke-width="0.766611" stroke-linecap="round" stroke-linejoin="round"/>
<path d="M56.4579 33.0112C56.4579 35.0028 54.8434 36.6174 52.8518 36.6174C50.8601 36.6174 49.2456 35.0028 49.2456 33.0112C49.2456 31.0196 50.8601 29.405 52.8518 29.405C54.8434 29.405 56.4579 31.0196 56.4579 33.0112Z" stroke="#E8E8E8" stroke-width="0.766611"/>
<path d="M68.9994 33.0112C68.9994 35.0028 67.3849 36.6174 65.3933 36.6174C63.4016 36.6174 61.7871 35.0028 61.7871 33.0112C61.7871 31.0196 63.4016 29.405 65.3933 29.405C67.3849 29.405 68.9994 31.0196 68.9994 33.0112Z" stroke="#E8E8E8" stroke-width="0.766611"/>
<path d="M81.5302 33.0112C81.5302 35.0028 79.9157 36.6174 77.924 36.6174C75.9324 36.6174 74.3179 35.0028 74.3179 33.0112C74.3179 31.0196 75.9324 29.405 77.924 29.405C79.9157 29.405 81.5302 31.0196 81.5302 33.0112Z" stroke="#E8E8E8" stroke-width="0.766611"/>
<path d="M109.743 46.9982H44.813C42.2865 46.9982 40.2383 49.0464 40.2383 51.5729V65.4644C40.2383 67.9909 42.2865 70.0391 44.813 70.0391H109.743C112.27 70.0391 114.318 67.9909 114.318 65.4644V51.5729C114.318 49.0464 112.27 46.9982 109.743 46.9982Z" fill="white" stroke="#8D8D8D" stroke-width="0.766611" stroke-linecap="round" stroke-linejoin="round"/>
<path d="M56.4579 58.5601C56.4579 60.5518 54.8434 62.1663 52.8518 62.1663C50.8601 62.1663 49.2456 60.5518 49.2456 58.5601C49.2456 56.5685 50.8601 54.954 52.8518 54.954C54.8434 54.954 56.4579 56.5685 56.4579 58.5601Z" stroke="#E8E8E8" stroke-width="0.766611"/>
<path d="M68.9994 58.5601C68.9994 60.5518 67.3849 62.1663 65.3933 62.1663C63.4016 62.1663 61.7871 60.5518 61.7871 58.5601C61.7871 56.5685 63.4016 54.954 65.3933 54.954C67.3849 54.954 68.9994 56.5685 68.9994 58.5601Z" stroke="#E8E8E8" stroke-width="0.766611"/>
<path d="M81.5302 58.5601C81.5302 60.5518 79.9157 62.1663 77.924 62.1663C75.9324 62.1663 74.3179 60.5518 74.3179 58.5601C74.3179 56.5685 75.9324 54.954 77.924 54.954C79.9157 54.954 81.5302 56.5685 81.5302 58.5601Z" stroke="#E8E8E8" stroke-width="0.766611"/>
<path d="M109.743 72.5475H44.813C42.2865 72.5475 40.2383 74.5957 40.2383 77.1222V91.0137C40.2383 93.5403 42.2865 95.5884 44.813 95.5884H109.743C112.27 95.5884 114.318 93.5403 114.318 91.0137V77.1222C114.318 74.5957 112.27 72.5475 109.743 72.5475Z" fill="white" stroke="#8D8D8D" stroke-width="0.766611" stroke-linecap="round" stroke-linejoin="round"/>
<path d="M56.4579 84.0979C56.4579 86.0895 54.8434 87.7041 52.8518 87.7041C50.8601 87.7041 49.2456 86.0895 49.2456 84.0979C49.2456 82.1063 50.8601 80.4917 52.8518 80.4917C54.8434 80.4917 56.4579 82.1063 56.4579 84.0979Z" stroke="#E8E8E8" stroke-width="0.766611"/>
<path d="M68.9994 84.0979C68.9994 86.0895 67.3849 87.7041 65.3933 87.7041C63.4016 87.7041 61.7871 86.0895 61.7871 84.0979C61.7871 82.1063 63.4016 80.4917 65.3933 80.4917C67.3849 80.4917 68.9994 82.1063 68.9994 84.0979Z" stroke="#E8E8E8" stroke-width="0.766611"/>
<path d="M81.5302 84.0979C81.5302 86.0895 79.9157 87.7041 77.924 87.7041C75.9324 87.7041 74.3179 86.0895 74.3179 84.0979C74.3179 82.1063 75.9324 80.4917 77.924 80.4917C79.9157 80.4917 81.5302 82.1063 81.5302 84.0979Z" stroke="#E8E8E8" stroke-width="0.766611"/>
<path d="M115.621 50.5575C129.296 50.5575 140.382 39.4716 140.382 25.7965C140.382 12.1214 129.296 1.03555 115.621 1.03555C101.946 1.03555 90.8599 12.1214 90.8599 25.7965C90.8599 39.4716 101.946 50.5575 115.621 50.5575Z" fill="white" stroke="black" stroke-width="0.766611" stroke-linecap="round" stroke-linejoin="round"/>
<path d="M133.202 43.761L139.795 50.3544" stroke="black" stroke-width="0.766611" stroke-linecap="round" stroke-linejoin="round"/>
<path d="M139.058 47.154L137.011 49.2953C136.091 50.2585 136.125 51.7858 137.088 52.7066L154.874 69.7093C155.838 70.6301 157.365 70.5957 158.286 69.6325L160.333 67.4913C161.254 66.528 161.219 65.0007 160.256 64.0799L142.47 47.0772C141.507 46.1564 139.979 46.1908 139.058 47.154Z" fill="white" stroke="black" stroke-width="0.766611" stroke-linecap="round" stroke-linejoin="round"/>
</svg>
