<svg width="33" height="28" viewBox="0 0 33 28" fill="none" xmlns="http://www.w3.org/2000/svg">
<path d="M30.25 14C30.25 14.4557 29.9689 15.1755 29.2718 16.0588C28.5943 16.9172 27.5935 17.8405 26.3335 18.6908C23.8123 20.3923 20.3309 21.75 16.5 21.75C12.6691 21.75 9.18771 20.3923 6.6665 18.6908C5.40647 17.8405 4.40566 16.9172 3.72821 16.0588C3.03109 15.1755 2.75 14.4557 2.75 14C2.75 13.5443 3.03109 12.8245 3.72821 11.9412C4.40566 11.0828 5.40647 10.1595 6.6665 9.30918C9.18771 7.6077 12.6691 6.25 16.5 6.25C20.3309 6.25 23.8123 7.6077 26.3335 9.30918C27.5935 10.1595 28.5943 11.0828 29.2718 11.9412C29.9689 12.8245 30.25 13.5443 30.25 14Z" stroke="#979797" stroke-width="1.5"/>
<path d="M23 14.0001C23 17.4815 20.1064 20.3334 16.5 20.3334C12.8936 20.3334 10 17.4815 10 14.0001C10 10.5186 12.8936 7.66675 16.5 7.66675C20.1064 7.66675 23 10.5186 23 14.0001Z" stroke="#979797" stroke-width="1.5"/>
<path fill-rule="evenodd" clip-rule="evenodd" d="M16.5 16.8334C18.1016 16.8334 19.4 15.5649 19.4 14.0001C19.4 12.4353 18.1016 11.1667 16.5 11.1667C16.2028 11.1667 15.916 11.2104 15.646 11.2916C16.1495 11.5137 16.5 12.0086 16.5 12.5834C16.5 13.3658 15.8508 14.0001 15.05 14.0001C14.4616 14.0001 13.9551 13.6577 13.7278 13.1658C13.6447 13.4295 13.6 13.7097 13.6 14.0001C13.6 15.5649 14.8983 16.8334 16.5 16.8334Z" fill="#979797"/>
</svg>
