<svg width="14" height="14" viewBox="0 0 14 14" fill="none" xmlns="http://www.w3.org/2000/svg">
<g id="Group 1410078724">
<path id="Vector 2306" d="M9.11523 1H11.5002C12.3286 1 13.0002 1.67157 13.0002 2.5V4.6691" stroke="white" stroke-width="0.863312"/>
<path id="Vector 2307" d="M4.88477 1H2.49983C1.6714 1 0.999832 1.67157 0.999832 2.5V4.6691" stroke="white" stroke-width="0.863312"/>
<path id="Vector 2308" d="M9.11523 12.8701H11.5002C12.3286 12.8701 13.0002 12.1985 13.0002 11.3701V9.20101" stroke="white" stroke-width="0.863312"/>
<path id="Vector 2310" d="M9.63379 10.4102V10.4102C10.1583 10.4102 10.5834 9.98498 10.5834 9.46051V7.73387" stroke="white" stroke-width="0.863312" stroke-linecap="round"/>
<path id="Vector 2311" d="M8.0791 8.68359V8.68359C8.0791 8.25448 8.42697 7.90661 8.85609 7.90661L9.11508 7.90661" stroke="white" stroke-width="0.863312" stroke-linecap="round"/>
<path id="Vector 2309" d="M4.88477 12.8701H2.49983C1.6714 12.8701 0.999832 12.1985 0.999832 11.3701V9.20101" stroke="white" stroke-width="0.863312"/>
<rect id="Rectangle 22779" x="3.24512" y="3.1582" width="2.67629" height="2.67629" rx="1.33814" stroke="white" stroke-width="0.863312"/>
<rect id="Rectangle 22781" x="3.24512" y="7.90625" width="2.67629" height="2.67629" rx="1.33814" stroke="white" stroke-width="0.863312"/>
<rect id="Rectangle 22780" x="8.0791" y="3.1582" width="2.67629" height="2.67629" rx="1.33814" stroke="white" stroke-width="0.863312"/>
<circle id="Ellipse 2768" cx="8.16545" cy="10.3237" r="0.517991" fill="white"/>
</g>
</svg>
