<svg width="14" height="15" viewBox="0 0 14 15" fill="none" xmlns="http://www.w3.org/2000/svg">
<path d="M7.38867 7.22201L13.222 1.38867M13.222 1.38867H9.72201M13.222 1.38867V4.88867" stroke="black" stroke-width="1.55556" stroke-linecap="round"/>
<path fill-rule="evenodd" clip-rule="evenodd" d="M12.4417 7.82592C12.9428 7.93985 13.4644 8 14 8C14 11.866 10.866 15 7 15C3.13401 15 0 11.866 0 8C0 4.13401 3.13401 1 7 1C7 1.53561 7.06015 2.05717 7.17408 2.55829C7.11627 2.55647 7.05824 2.55556 7 2.55556C3.99312 2.55556 1.55556 4.99312 1.55556 8C1.55556 11.0069 3.99312 13.4444 7 13.4444C10.0069 13.4444 12.4444 11.0069 12.4444 8C12.4444 7.94176 12.4435 7.88373 12.4417 7.82592Z" fill="black"/>
</svg>
