<svg width="14" height="14" viewBox="0 0 14 14" fill="none" xmlns="http://www.w3.org/2000/svg">
<path fill-rule="evenodd" clip-rule="evenodd" d="M13.3333 6.66667C13.3333 10.3486 10.3486 13.3333 6.66667 13.3333C2.98477 13.3333 0 10.3486 0 6.66667C0 2.98477 2.98477 0 6.66667 0C10.3486 0 13.3333 2.98477 13.3333 6.66667ZM6.66667 3.24324C6.9652 3.24324 7.20721 3.48525 7.20721 3.78378V6.66667C7.20721 6.9652 6.9652 7.20721 6.66667 7.20721C6.36813 7.20721 6.12613 6.9652 6.12613 6.66667V3.78378C6.12613 3.48525 6.36813 3.24324 6.66667 3.24324ZM6.12613 8.82883C6.12613 8.5303 6.36813 8.28829 6.66667 8.28829H6.67387C6.97241 8.28829 7.21442 8.5303 7.21442 8.82883C7.21442 9.12736 6.97241 9.36937 6.67387 9.36937H6.66667C6.36813 9.36937 6.12613 9.12736 6.12613 8.82883Z" fill="#FFB117"/>
</svg>
