<svg width="16" height="16" viewBox="0 0 16 16" fill="none" xmlns="http://www.w3.org/2000/svg">
<path fill-rule="evenodd" clip-rule="evenodd" d="M8.00016 1.33334C4.31826 1.33334 1.3335 4.31811 1.3335 8.00001C1.3335 11.6819 4.31826 14.6667 8.00016 14.6667C11.6821 14.6667 14.6668 11.6819 14.6668 8.00001C14.6668 4.31811 11.6821 1.33334 8.00016 1.33334ZM8.50667 5.33334C8.50667 5.60949 8.28281 5.83334 8.00667 5.83334H8C7.72386 5.83334 7.5 5.60949 7.5 5.33334C7.5 5.0572 7.72386 4.83334 8 4.83334H8.00667C8.28281 4.83334 8.50667 5.0572 8.50667 5.33334ZM7.00016 6.83334C6.72402 6.83334 6.50016 7.0572 6.50016 7.33334C6.50016 7.60949 6.72402 7.83334 7.00016 7.83334H7.50667V10.6667C7.50667 10.9428 7.73053 11.1667 8.00667 11.1667C8.28282 11.1667 8.50667 10.9428 8.50667 10.6667V7.33334C8.50667 7.0572 8.28282 6.83334 8.00667 6.83334L8.00342 6.83335L8.00016 6.83334H7.00016Z" fill="#090909"/>
</svg>
