<svg width="104" height="102" viewBox="0 0 104 102" fill="none" xmlns="http://www.w3.org/2000/svg">
<g id="progress-circle-path">
<mask id="path-1-inside-1_321_460" fill="white">
<path d="M39.3549 99.1922C38.9874 100.564 37.5747 101.384 36.223 100.949C25.2129 97.4002 15.6934 90.232 9.23881 80.572C2.30696 70.1978 -0.617063 57.6573 1.01151 45.2871C2.64009 32.9168 8.71019 21.5605 18.0909 13.3338C27.4716 5.10716 39.5231 0.57129 52.0001 0.571289C64.4771 0.571288 76.5286 5.10716 85.9093 13.3338C95.29 21.5605 101.36 32.9168 102.989 45.2871C104.617 57.6573 101.693 70.1978 94.7614 80.572C88.3069 90.232 78.7873 97.4002 67.7772 100.949C66.4255 101.384 65.0128 100.564 64.6453 99.1922C64.2777 97.8205 65.0948 96.4174 66.4441 95.9742C76.2496 92.7537 84.724 86.3371 90.4853 77.7148C96.7239 68.378 99.3556 57.0916 97.8898 45.9584C96.4241 34.8251 90.961 24.6044 82.5184 17.2004C74.0758 9.79643 63.2294 5.71415 52.0001 5.71415C40.7708 5.71415 29.9244 9.79643 21.4818 17.2004C13.0392 24.6044 7.57609 34.8251 6.11037 45.9584C4.64466 57.0916 7.27628 68.378 13.5149 77.7148C19.2762 86.3371 27.7507 92.7538 37.5562 95.9742C38.9054 96.4174 39.7225 97.8205 39.3549 99.1922Z"/>
</mask>
<path d="M39.3549 99.1922C38.9874 100.564 37.5747 101.384 36.223 100.949C25.2129 97.4002 15.6934 90.232 9.23881 80.572C2.30696 70.1978 -0.617063 57.6573 1.01151 45.2871C2.64009 32.9168 8.71019 21.5605 18.0909 13.3338C27.4716 5.10716 39.5231 0.57129 52.0001 0.571289C64.4771 0.571288 76.5286 5.10716 85.9093 13.3338C95.29 21.5605 101.36 32.9168 102.989 45.2871C104.617 57.6573 101.693 70.1978 94.7614 80.572C88.3069 90.232 78.7873 97.4002 67.7772 100.949C66.4255 101.384 65.0128 100.564 64.6453 99.1922C64.2777 97.8205 65.0948 96.4174 66.4441 95.9742C76.2496 92.7537 84.724 86.3371 90.4853 77.7148C96.7239 68.378 99.3556 57.0916 97.8898 45.9584C96.4241 34.8251 90.961 24.6044 82.5184 17.2004C74.0758 9.79643 63.2294 5.71415 52.0001 5.71415C40.7708 5.71415 29.9244 9.79643 21.4818 17.2004C13.0392 24.6044 7.57609 34.8251 6.11037 45.9584C4.64466 57.0916 7.27628 68.378 13.5149 77.7148C19.2762 86.3371 27.7507 92.7538 37.5562 95.9742C38.9054 96.4174 39.7225 97.8205 39.3549 99.1922Z" stroke="url(#paint0_linear_321_460)" stroke-width="10.2857" mask="url(#path-1-inside-1_321_460)"/>
</g>
<defs>
<linearGradient id="paint0_linear_321_460" x1="44.7144" y1="105.143" x2="83.7144" y2="93.1427" gradientUnits="userSpaceOnUse">
<stop stop-color="#F5F5F5"/>
<stop offset="1" stop-color="#8F8F8F"/>
</linearGradient>
</defs>
</svg>
