<svg width="34" height="13" viewBox="0 0 34 13" fill="none" xmlns="http://www.w3.org/2000/svg">
<path d="M27.272 0.799999C28.264 1.984 29.288 3.008 30.344 3.872C31.4 4.736 32.488 5.44 33.608 5.984L33.608 6.848C31.4 7.968 29.288 9.696 27.272 12.032L25.592 12.032C26.104 10.944 26.616 9.984 27.128 9.152C27.64 8.352 28.136 7.68 28.616 7.136L28.616 5.696C28.136 5.184 27.64 4.512 27.128 3.68C26.616 2.88 26.104 1.92 25.592 0.799999L27.272 0.799999ZM28.856 5.408L28.856 7.424L0.392 7.424L0.392 5.408L28.856 5.408Z" fill="black"/>
</svg>
