<svg width="12" height="18" viewBox="0 0 12 18" fill="none" xmlns="http://www.w3.org/2000/svg">
<path id="Vector 205 (Stroke)" fill-rule="evenodd" clip-rule="evenodd" d="M11.2956 6.92056C11.459 6.77196 11.4711 6.51898 11.3225 6.35552L6.29558 0.825922C6.13687 0.651348 5.86233 0.651348 5.70362 0.825922L0.676718 6.35552C0.528114 6.51898 0.540161 6.77196 0.703624 6.92056L1.29558 7.4587C1.45904 7.60731 1.71202 7.59526 1.86062 7.4318L5.1996 3.75892L5.1996 17.0996C5.1996 17.3205 5.37869 17.4996 5.5996 17.4996L6.3996 17.4996C6.62051 17.4996 6.7996 17.3205 6.7996 17.0996L6.7996 3.75892L10.1386 7.4318C10.2872 7.59526 10.5402 7.60731 10.7036 7.4587L11.2956 6.92056Z" fill="black"/>
</svg>
