<svg width="24" height="24" viewBox="0 0 24 24" fill="none" xmlns="http://www.w3.org/2000/svg">
<g id="&#240;&#159;&#166;&#134; icon &#34;photo camera&#34;">
<path id="Vector" d="M11.5964 14.6893C13.3043 14.6893 14.6889 13.3047 14.6889 11.5968C14.6889 9.88885 13.3043 8.5043 11.5964 8.5043C9.88845 8.5043 8.50391 9.88885 8.50391 11.5968C8.50391 13.3047 9.88845 14.6893 11.5964 14.6893Z" fill="white"/>
<path id="Vector_2" d="M8.69741 1.9328L6.9289 3.8656H3.86541C2.80238 3.8656 1.93262 4.73536 1.93262 5.7984V17.3952C1.93262 18.4582 2.80238 19.328 3.86541 19.328H19.3278C20.3908 19.328 21.2606 18.4582 21.2606 17.3952V5.7984C21.2606 4.73536 20.3908 3.8656 19.3278 3.8656H16.2643L14.4958 1.9328H8.69741ZM11.5966 16.4288C8.92934 16.4288 6.76461 14.264 6.76461 11.5968C6.76461 8.92953 8.92934 6.76479 11.5966 6.76479C14.2639 6.76479 16.4286 8.92953 16.4286 11.5968C16.4286 14.264 14.2639 16.4288 11.5966 16.4288Z" fill="white"/>
</g>
</svg>
