<svg width="17" height="16" viewBox="0 0 17 16" fill="none" xmlns="http://www.w3.org/2000/svg">
<g id="clear-filled">
<path id="Exclude" fill-rule="evenodd" clip-rule="evenodd" d="M14.6668 8.00016C14.6668 11.4059 11.9059 14.1668 8.50016 14.1668C5.09441 14.1668 2.3335 11.4059 2.3335 8.00016C2.3335 4.59441 5.09441 1.8335 8.50016 1.8335C11.9059 1.8335 14.6668 4.59441 14.6668 8.00016ZM6.37884 5.87883C6.5741 5.68357 6.89068 5.68357 7.08595 5.87883L8.50016 7.29305L9.91438 5.87883C10.1096 5.68357 10.4262 5.68357 10.6215 5.87883C10.8167 6.07409 10.8167 6.39067 10.6215 6.58593L9.20727 8.00015L10.6215 9.41436C10.8167 9.60962 10.8167 9.92621 10.6215 10.1215C10.4262 10.3167 10.1096 10.3167 9.91437 10.1215L8.50016 8.70726L7.08595 10.1215C6.89069 10.3167 6.57411 10.3167 6.37885 10.1215C6.18358 9.92621 6.18358 9.60962 6.37885 9.41436L7.79306 8.00015L6.37884 6.58593C6.18358 6.39067 6.18358 6.07409 6.37884 5.87883Z" fill="#EB4B6D"/>
</g>
</svg>
