<svg width="14" height="14" viewBox="0 0 14 14" fill="none" xmlns="http://www.w3.org/2000/svg">
<path d="M11.833 1.99967L5.99967 7.83301M5.99967 7.83301L9.49967 7.83301M5.99967 7.83301L5.99967 4.33301" stroke="black" stroke-width="1.55556" stroke-linecap="round"/>
<path fill-rule="evenodd" clip-rule="evenodd" d="M12.4417 6.82592C12.9428 6.93985 13.4644 7 14 7C14 10.866 10.866 14 7 14C3.13401 14 0 10.866 0 7C0 3.13401 3.13401 0 7 0C7 0.535608 7.06015 1.05717 7.17408 1.55829C7.11627 1.55647 7.05824 1.55556 7 1.55556C3.99312 1.55556 1.55556 3.99312 1.55556 7C1.55556 10.0069 3.99312 12.4444 7 12.4444C10.0069 12.4444 12.4444 10.0069 12.4444 7C12.4444 6.94176 12.4435 6.88373 12.4417 6.82592Z" fill="black"/>
</svg>
