<svg width="48" height="48" viewBox="0 0 48 48" fill="none" xmlns="http://www.w3.org/2000/svg">
<g id="crypto-currency-bitcoin-dollar-exchange--Streamline-Ultimate" clip-path="url(#clip0_771_11505)">
<path id="Vector" d="M13.0078 23.04V27" stroke="black" stroke-width="2" stroke-linecap="round" stroke-linejoin="round"/>
<path id="Vector_2" d="M17.0078 23.04V27" stroke="black" stroke-width="2" stroke-linecap="round" stroke-linejoin="round"/>
<path id="Vector_3" d="M13.0078 39.04V43" stroke="black" stroke-width="2" stroke-linecap="round" stroke-linejoin="round"/>
<path id="Vector_4" d="M17.0078 39.04V43" stroke="black" stroke-width="2" stroke-linecap="round" stroke-linejoin="round"/>
<path id="Vector_5" d="M21 30C21 30.7956 20.6839 31.5587 20.1213 32.1213C19.5587 32.6839 18.7956 33 18 33H11V27H18C18.7956 27 19.5587 27.3161 20.1213 27.8787C20.6839 28.4413 21 29.2044 21 30Z" stroke="black" stroke-width="2" stroke-linecap="round" stroke-linejoin="round"/>
<path id="Vector_6" d="M21 36C21 36.7956 20.6839 37.5587 20.1213 38.1213C19.5587 38.6839 18.7956 39 18 39H11V33H18C18.7956 33 19.5587 33.3161 20.1213 33.8787C20.6839 34.4413 21 35.2044 21 36Z" stroke="black" stroke-width="2" stroke-linecap="round" stroke-linejoin="round"/>
<path id="Vector_7" d="M27.0078 11C27.0078 13.6522 28.0614 16.1957 29.9367 18.0711C31.8121 19.9464 34.3556 21 37.0078 21C39.66 21 42.2035 19.9464 44.0789 18.0711C45.9542 16.1957 47.0078 13.6522 47.0078 11C47.0078 8.34784 45.9542 5.8043 44.0789 3.92893C42.2035 2.05357 39.66 1 37.0078 1C34.3556 1 31.8121 2.05357 29.9367 3.92893C28.0614 5.8043 27.0078 8.34784 27.0078 11Z" stroke="black" stroke-width="2" stroke-linecap="round" stroke-linejoin="round"/>
<path id="Vector_8" d="M1.00781 33C1.00781 34.8385 1.36993 36.659 2.0735 38.3576C2.77706 40.0561 3.8083 41.5995 5.10832 42.8995C6.40834 44.1995 7.95169 45.2307 9.65024 45.9343C11.3488 46.6379 13.1693 47 15.0078 47C16.8463 47 18.6668 46.6379 20.3654 45.9343C22.0639 45.2307 23.6073 44.1995 24.9073 42.8995C26.2073 41.5995 27.2386 40.0561 27.9421 38.3576C28.6457 36.659 29.0078 34.8385 29.0078 33C29.0078 31.1615 28.6457 29.341 27.9421 27.6424C27.2386 25.9439 26.2073 24.4005 24.9073 23.1005C23.6073 21.8005 22.0639 20.7693 20.3654 20.0657C18.6668 19.3621 16.8463 19 15.0078 19C13.1693 19 11.3488 19.3621 9.65024 20.0657C7.95169 20.7693 6.40834 21.8005 5.10832 23.1005C3.8083 24.4005 2.77706 25.9439 2.0735 27.6424C1.36993 29.341 1.00781 31.1615 1.00781 33Z" stroke="black" stroke-width="2" stroke-linecap="round" stroke-linejoin="round"/>
<path id="Vector_9" d="M34.6896 13.3183C34.6896 13.7771 34.8258 14.2255 35.0809 14.6069C35.3359 14.9883 35.6984 15.2854 36.1224 15.4606C36.5465 15.6358 37.0129 15.6812 37.4628 15.5911C37.9127 15.501 38.3257 15.2795 38.6495 14.9545C38.9734 14.6295 39.1935 14.2157 39.2821 13.7656C39.3706 13.3154 39.3236 12.8491 39.1469 12.4256C38.9702 12.0022 38.6719 11.6408 38.2896 11.387C37.9074 11.1333 37.4584 10.9987 36.9996 11.0003C36.5412 11.0003 36.093 10.8643 35.7118 10.6096C35.3306 10.3549 35.0335 9.99288 34.8581 9.56932C34.6826 9.14576 34.6367 8.67969 34.7262 8.23004C34.8156 7.78039 35.0364 7.36736 35.3606 7.04319C35.6847 6.71901 36.0978 6.49824 36.5474 6.4088C36.9971 6.31936 37.4631 6.36526 37.8867 6.54071C38.3103 6.71615 38.6723 7.01325 38.927 7.39445C39.1817 7.77564 39.3176 8.2238 39.3176 8.68226" stroke="black" stroke-width="2" stroke-linecap="round" stroke-linejoin="round"/>
<path id="Vector_10" d="M37.0078 15.6357V17.1817" stroke="black" stroke-width="2" stroke-linecap="round" stroke-linejoin="round"/>
<path id="Vector_11" d="M37.0078 4.81836V6.36636" stroke="black" stroke-width="2" stroke-linecap="round" stroke-linejoin="round"/>
<path id="Vector_12" d="M18 2C15.3478 2 12.8043 3.05357 10.9289 4.92893C9.05357 6.8043 8 9.34784 8 12V14" stroke="black" stroke-width="2" stroke-linecap="round" stroke-linejoin="round"/>
<path id="Vector_13" d="M32 42C34.6522 42 37.1957 40.9464 39.0711 39.0711C40.9464 37.1957 42 34.6522 42 32V30" stroke="black" stroke-width="2" stroke-linecap="round" stroke-linejoin="round"/>
<path id="Vector_14" d="M4.00781 10L8.00781 14L12.0078 10" stroke="black" stroke-width="2" stroke-linecap="round" stroke-linejoin="round"/>
<path id="Vector_15" d="M38.0078 34L42.0078 30L46.0078 34" stroke="black" stroke-width="2" stroke-linecap="round" stroke-linejoin="round"/>
</g>
<defs>
<clipPath id="clip0_771_11505">
<rect width="48" height="48" fill="white"/>
</clipPath>
</defs>
</svg>
