<svg xmlns="http://www.w3.org/2000/svg" xmlns:xlink="http://www.w3.org/1999/xlink" viewBox="0 0 269 250" preserveAspectRatio="xMidYMid" style="display: block; shape-rendering: auto; background: transparent;" width="269" height="250"><style type="text/css">
  .ld-text text {
    text-anchor: middle;
    dominant-baseline: middle;
    font-size: 50px;
    opacity: 0;
    user-select: none;
    pointer-events: none;
  }
</style>
<g style="transform-origin:134.5px 125px;transform:scale(1)" class="ld-text">
<g transform="translate(134.5,125)">
  <g transform="scale(0.6250) translate(0,0)"><g class="path" style="opacity: 1; transform-origin: -167.4px 13.73px; transform: matrix3d(1, 0, 0, 0, 0, 1, 0, 0, 0, 0, 1, 0, 0, 0, 0, 1); animation: 1.13636s linear -0.675s infinite normal forwards running animate-qj6h5p5y58; transform-box: view-box;"><path d="M19.60 49.28L1.44-5.28L8.24-5.28L23.92 42.88L24 42.88L39.44-5.28L46.24-5.28L28.08 49.28L19.60 49.28" style="fill: rgb(0, 12, 13);" transform="translate(-191.240,-24.640)"></path></g><g class="path" style="opacity: 1; transform-origin: -127.48px 17.26px; transform: matrix3d(1, 0, 0, 0, 0, 1, 0, 0, 0, 0, 1, 0, 0, 0, 0, 1); animation: 1.13636s linear -0.6s infinite normal forwards running animate-qj6h5p5y58; transform-box: view-box;"><path d="M73.20 39.92L73.20 30.80Q71.60 30.88 70.16 30.96Q68.72 31.04 67.32 31.16Q65.92 31.28 64.80 31.44L64.80 31.44Q59.04 32.16 56.64 33.96Q54.24 35.76 54.24 39.12L54.24 39.12Q54.24 41.92 55.96 43.32Q57.68 44.72 60.48 44.72L60.48 44.72Q64.32 44.72 67.32 43.40Q70.32 42.08 73.20 39.92L73.20 39.92 zM73.92 49.92L73.12 45.52Q69.36 47.68 66.12 49Q62.88 50.32 59.12 50.32L59.12 50.32Q53.76 50.32 50.60 47.72Q47.44 45.12 47.44 39.12L47.44 39.12Q47.44 36 49.04 33.68Q50.64 31.36 53.24 29.80Q55.84 28.24 59.12 27.36Q62.40 26.48 65.84 26.24L65.84 26.24Q67.28 26.08 69.60 25.96Q71.92 25.84 73.20 25.76L73.20 25.76Q73.20 22.96 73.04 20.76Q72.88 18.56 72.08 17Q71.28 15.44 69.72 14.64Q68.16 13.84 65.28 13.84L65.28 13.84Q62.96 13.84 60.80 14.12Q58.64 14.40 56.96 14.72L56.96 14.72Q54.96 15.12 53.28 15.60L53.28 15.60L52 10.08Q54 9.60 56.32 9.20L56.32 9.20Q58.32 8.80 60.96 8.52Q63.60 8.24 66.64 8.24L66.64 8.24Q70.72 8.24 73.24 9.44Q75.76 10.64 77.16 12.68Q78.56 14.72 79.08 17.32Q79.60 19.92 79.60 22.80L79.60 22.80L79.60 42Q79.60 43.12 79.64 44.36Q79.68 45.60 79.80 46.80Q79.92 48 80.08 49.28L80.08 49.28L73.92 49.92" style="fill: rgb(0, 12, 13);" transform="translate(-191.240,-24.640)"></path></g><g class="path" style="opacity: 1; transform-origin: -89.24px 17.26px; transform: matrix3d(1, 0, 0, 0, 0, 1, 0, 0, 0, 0, 1, 0, 0, 0, 0, 1); animation: 1.13636s linear -0.525s infinite normal forwards running animate-qj6h5p5y58; transform-box: view-box;"><path d="M113.76 9.92L112.64 15.60Q109.28 14.56 106.68 14.20Q104.08 13.84 101.92 13.84L101.92 13.84Q99.12 13.84 97.24 15.20Q95.36 16.56 95.36 18.72L95.36 18.72Q95.44 20.64 97.04 22Q98.64 23.36 100.76 24.44Q102.88 25.52 105.48 26.80Q108.08 28.08 110.36 29.68Q112.64 31.28 114.08 33.52Q115.52 35.76 115.60 38.88L115.60 38.88Q115.52 42.24 114.12 44.44Q112.72 46.64 110.52 47.96Q108.32 49.28 105.76 49.80Q103.20 50.32 100.96 50.32L100.96 50.32Q98.08 50.32 95 50Q91.92 49.68 88.40 48.64L88.40 48.64L89.60 42.88Q93.20 43.84 96.16 44.28Q99.12 44.72 101.04 44.72L101.04 44.72Q102.48 44.72 103.88 44.40Q105.28 44.08 106.40 43.48Q107.52 42.88 108.20 41.92Q108.88 40.96 108.88 39.76L108.88 39.76Q108.80 37.52 107.36 35.96Q105.92 34.40 103.64 33.16Q101.36 31.92 98.76 30.68Q96.16 29.44 93.88 27.80Q91.60 26.16 90.08 23.88Q88.56 21.60 88.56 18.24L88.56 18.24Q88.56 15.84 89.80 13.96Q91.04 12.08 93 10.84Q94.96 9.60 97.32 8.92Q99.68 8.24 101.92 8.24L101.92 8.24Q104.24 8.24 107.12 8.60Q110 8.96 113.76 9.92L113.76 9.92" style="fill: rgb(0, 12, 13);" transform="translate(-191.240,-24.640)"></path></g><g class="path" style="opacity: 1; transform-origin: -58.24px 15.02px; transform: matrix3d(1, 0, 0, 0, 0, 1, 0, 0, 0, 0, 1, 0, 0, 0, 0, 1); animation: 1.13636s linear -0.45s infinite normal forwards running animate-qj6h5p5y58; transform-box: view-box;"><path d="M127.20-2.16L133.60-2.96L133.60 9.04L145.20 9.04L145.20 14.24L133.60 14.24L133.60 35.60Q133.60 38.24 133.72 40Q133.84 41.76 134.24 42.80Q134.64 43.84 135.36 44.28Q136.08 44.72 137.20 44.72L137.20 44.72Q140.24 44.64 144.24 42.48L144.24 42.48L146.16 47.36Q143.52 49.12 141.24 49.72Q138.96 50.32 136.72 50.32L136.72 50.32Q131.44 50.32 129.32 47.32Q127.20 44.32 127.20 37.36L127.20 37.36L127.20 14.24L119.84 14.24L119.84 9.04L127.20 9.04L127.20-2.16" style="fill: rgb(0, 12, 13);" transform="translate(-191.240,-24.640)"></path></g><g class="path" style="opacity: 1; transform-origin: 12.48px 13.73px; transform: matrix3d(1, 0, 0, 0, 0, 1, 0, 0, 0, 0, 1, 0, 0, 0, 0, 1); animation: 1.13636s linear -0.375s infinite normal forwards running animate-qj6h5p5y58; transform-box: view-box;"><path d="M180.80 49.28L168.16-5.28L174.96-5.28L185.52 42.88L185.60 42.88L199.60-5.28L208.08-5.28L221.92 42.88L222 42.88L232.48-5.28L239.28-5.28L226.72 49.28L218.24 49.28L203.84 1.20L203.76 1.20L189.28 49.28L180.80 49.28" style="fill: rgb(0, 12, 13);" transform="translate(-191.240,-24.640)"></path></g><g class="path" style="opacity: 1; transform-origin: 67.32px 17.26px; transform: matrix3d(1, 0, 0, 0, 0, 1, 0, 0, 0, 0, 1, 0, 0, 0, 0, 1); animation: 1.13636s linear -0.3s infinite normal forwards running animate-qj6h5p5y58; transform-box: view-box;"><path d="M268 39.92L268 30.80Q266.40 30.88 264.96 30.96Q263.52 31.04 262.12 31.16Q260.72 31.28 259.60 31.44L259.60 31.44Q253.84 32.16 251.44 33.96Q249.04 35.76 249.04 39.12L249.04 39.12Q249.04 41.92 250.76 43.32Q252.48 44.72 255.28 44.72L255.28 44.72Q259.12 44.72 262.12 43.40Q265.12 42.08 268 39.92L268 39.92 zM268.72 49.92L267.92 45.52Q264.16 47.68 260.92 49Q257.68 50.32 253.92 50.32L253.92 50.32Q248.56 50.32 245.40 47.72Q242.24 45.12 242.24 39.12L242.24 39.12Q242.24 36 243.84 33.68Q245.44 31.36 248.04 29.80Q250.64 28.24 253.92 27.36Q257.20 26.48 260.64 26.24L260.64 26.24Q262.08 26.08 264.40 25.96Q266.72 25.84 268 25.76L268 25.76Q268 22.96 267.84 20.76Q267.68 18.56 266.88 17Q266.08 15.44 264.52 14.64Q262.96 13.84 260.08 13.84L260.08 13.84Q257.76 13.84 255.60 14.12Q253.44 14.40 251.76 14.72L251.76 14.72Q249.76 15.12 248.08 15.60L248.08 15.60L246.80 10.08Q248.80 9.60 251.12 9.20L251.12 9.20Q253.12 8.80 255.76 8.52Q258.40 8.24 261.44 8.24L261.44 8.24Q265.52 8.24 268.04 9.44Q270.56 10.64 271.96 12.68Q273.36 14.72 273.88 17.32Q274.40 19.92 274.40 22.80L274.40 22.80L274.40 42Q274.40 43.12 274.44 44.36Q274.48 45.60 274.60 46.80Q274.72 48 274.88 49.28L274.88 49.28L268.72 49.92" style="fill: rgb(0, 12, 13);" transform="translate(-191.240,-24.640)"></path></g><g class="path" style="opacity: 1; transform-origin: 97.64px 12.51px; transform: matrix3d(1, 0, 0, 0, 0, 1, 0, 0, 0, 0, 1, 0, 0, 0, 0, 1); animation: 1.13636s linear -0.225s infinite normal forwards running animate-qj6h5p5y58; transform-box: view-box;"><path d="M285.68 49.28L285.68-10.64L292.08-11.36L292.08 49.28L285.68 49.28" style="fill: rgb(0, 12, 13);" transform="translate(-191.240,-24.640)"></path></g><g class="path" style="opacity: 1; transform-origin: 115.56px 12.51px; transform: matrix3d(1, 0, 0, 0, 0, 1, 0, 0, 0, 0, 1, 0, 0, 0, 0, 1); animation: 1.13636s linear -0.15s infinite normal forwards running animate-qj6h5p5y58; transform-box: view-box;"><path d="M303.60 49.28L303.60-10.64L310-11.36L310 49.28L303.60 49.28" style="fill: rgb(0, 12, 13);" transform="translate(-191.240,-24.640)"></path></g><g class="path" style="opacity: 1; transform-origin: 145.04px 17.26px; transform: matrix3d(1, 0, 0, 0, 0, 1, 0, 0, 0, 0, 1, 0, 0, 0, 0, 1); animation: 1.13636s linear -0.075s infinite normal forwards running animate-qj6h5p5y58; transform-box: view-box;"><path d="M350.08 42.96L351.28 48.32Q349.44 48.88 347.48 49.28Q345.52 49.68 343.16 50Q340.80 50.32 338.24 50.32L338.24 50.32Q334.24 50.32 330.80 49.20Q327.36 48.08 324.80 45.60Q322.24 43.12 320.76 39.16Q319.28 35.20 319.28 29.44L319.28 29.44Q319.28 24.24 320.72 20.28Q322.16 16.32 324.68 13.64Q327.20 10.96 330.60 9.60Q334 8.24 338 8.24L338 8.24Q341.92 8.24 344.80 9.76Q347.68 11.28 349.56 13.88Q351.44 16.48 352.36 19.96Q353.28 23.44 353.28 27.28L353.28 27.28L352.08 30.80L326.24 30.80Q326.24 33.28 326.88 35.76Q327.52 38.24 329.08 40.24Q330.64 42.24 333.16 43.48Q335.68 44.72 339.44 44.72L339.44 44.72Q341.84 44.72 343.84 44.44Q345.84 44.16 347.32 43.80Q348.80 43.44 350.08 42.96L350.08 42.96 zM326.48 25.68L346.64 25.68Q346.64 25.12 346.40 23.20Q346.16 21.28 345.28 19.20Q344.40 17.12 342.56 15.48Q340.72 13.84 337.68 13.84L337.68 13.84Q334.32 13.84 332.16 15.24Q330 16.64 328.72 18.56Q327.44 20.48 326.96 22.48Q326.48 24.48 326.48 25.68L326.48 25.68" style="fill: rgb(0, 12, 13);" transform="translate(-191.240,-24.640)"></path></g><g class="path" style="opacity: 1; transform-origin: 179.52px 15.02px; transform: matrix3d(1, 0, 0, 0, 0, 1, 0, 0, 0, 0, 1, 0, 0, 0, 0, 1); animation: 1.13636s linear 0s infinite normal forwards running animate-qj6h5p5y58; transform-box: view-box;"><path d="M364.96-2.16L371.36-2.96L371.36 9.04L382.96 9.04L382.96 14.24L371.36 14.24L371.36 35.60Q371.36 38.24 371.48 40Q371.60 41.76 372 42.80Q372.40 43.84 373.12 44.28Q373.84 44.72 374.96 44.72L374.96 44.72Q378 44.64 382 42.48L382 42.48L383.92 47.36Q381.28 49.12 379 49.72Q376.72 50.32 374.48 50.32L374.48 50.32Q369.20 50.32 367.08 47.32Q364.96 44.32 364.96 37.36L364.96 37.36L364.96 14.24L357.60 14.24L357.60 9.04L364.96 9.04L364.96-2.16" style="fill: rgb(0, 12, 13);" transform="translate(-191.240,-24.640)"></path></g></g><text dy="0.35em" fill="#000c0d" font-family="Actor" font-size="50">Vast Wallet</text>
</g>
</g><style type="text/css">@keyframes animate-qj6h5p5y58 { 0.00% {transform: translate(0.00px,0.00px) rotate(0.00deg) scale(1.00, 1.00) skew(0deg, 0.00deg) ;opacity: 1.00;}2.00% {animation-timing-function: cubic-bezier(0.20,0.39,0.50,0.97);transform: translate(0.00px,-1.08px) rotate(0.00deg) ;}36.00% {animation-timing-function: cubic-bezier(0.50,0.03,0.80,0.61);transform: translate(0.00px,-10.00px) rotate(0.00deg) ;}72.00% {transform: translate(0.00px,-0.12px) rotate(0.00deg) ;}74.00% {animation-timing-function: cubic-bezier(0.24,0.43,0.48,0.91);transform: translate(0.00px,0.00px) rotate(0.00deg) scale(1.00, 0.95) ;}86.00% {animation-timing-function: cubic-bezier(0.53,0.08,0.77,0.57);transform: translate(0.00px,0.00px) rotate(0.00deg) scale(1.00, 0.80) ;}100.00% {animation-timing-function: cubic-bezier(0.53,0.08,0.77,0.57);transform: translate(0.00px,0.00px) rotate(0.00deg) scale(1.00, 1.00) ;} }</style><!-- [ldio] generated by https://loading.io --></svg>