<svg width="31" height="24" viewBox="0 0 31 24" fill="none" xmlns="http://www.w3.org/2000/svg">
<g id="Component 3">
<path id="Vector 3 (Stroke)" fill-rule="evenodd" clip-rule="evenodd" d="M6.89883 21.3734L0 9.45481C2.00801 8.50706 4.40729 9.25595 5.51964 11.1777L10.4508 19.6969C10.6799 20.1822 11.3633 20.2009 11.6186 19.729L14.1787 15.0736C15.2261 13.169 17.6143 12.4665 19.5262 13.5006L15.0734 21.5976C13.2865 24.9013 8.50205 24.7702 6.89883 21.3734Z" fill="#52C41A"/>
<path id="Vector 3 (Stroke)_2" fill-rule="evenodd" clip-rule="evenodd" d="M23.5106 2.62656L30.4094 14.5452C28.4014 15.4929 26.0021 14.744 24.8898 12.8223L19.9586 4.30306C19.7296 3.81781 19.0461 3.79907 18.7908 4.27104L16.2307 8.92637C15.1833 10.831 12.7952 11.5335 10.8832 10.4994L15.336 2.40243C17.1229 -0.90134 21.9074 -0.770167 23.5106 2.62656Z" fill="#52C41A"/>
</g>
</svg>
