<svg width="272" height="272" viewBox="0 0 272 272" fill="none" xmlns="http://www.w3.org/2000/svg">
<g clip-path="url(#clip0_534_30560)">
<rect width="271.521" height="271.521" rx="104.671" fill="white"/>
<rect width="271.521" height="271.521" fill="#D3D3D3"/>
<g clip-path="url(#clip1_534_30560)">
<rect x="50.9131" y="101.82" width="8.48503" height="8.48502" fill="black"/>
<rect x="59.3975" y="93.3357" width="8.48503" height="8.48503" fill="black"/>
<rect x="59.3975" y="84.8496" width="8.48503" height="8.48502" fill="black"/>
<rect x="67.8809" y="76.3655" width="8.48503" height="8.48503" fill="black"/>
<rect x="76.3652" y="67.8792" width="8.48503" height="8.48503" fill="black"/>
<rect x="84.8496" y="59.395" width="8.48502" height="8.48503" fill="black"/>
<rect x="93.334" y="59.395" width="8.48503" height="8.48503" fill="black"/>
<rect x="101.817" y="50.9109" width="8.48502" height="8.48503" fill="black"/>
<rect x="93.334" y="212.126" width="8.48503" height="8.48502" fill="black"/>
<rect x="110.302" y="50.9109" width="8.48503" height="8.48503" fill="black"/>
<rect x="118.795" y="50.9109" width="8.48502" height="8.48503" fill="black"/>
<rect x="127.278" y="50.9109" width="8.48503" height="8.48503" fill="black"/>
<rect x="135.763" y="50.9109" width="8.48502" height="8.48503" fill="black"/>
<rect x="135.763" y="212.126" width="8.48502" height="8.48502" fill="black"/>
<rect x="144.247" y="50.9109" width="8.48503" height="8.48503" fill="black"/>
<rect x="144.247" y="212.126" width="8.48503" height="8.48502" fill="black"/>
<rect x="152.73" y="50.9109" width="8.48503" height="8.48503" fill="black"/>
<rect x="152.73" y="212.126" width="8.48503" height="8.48502" fill="black"/>
<rect x="161.215" y="50.9109" width="8.48503" height="8.48503" fill="black"/>
<rect x="169.699" y="212.126" width="8.48502" height="8.48502" fill="black"/>
<rect x="169.699" y="59.395" width="8.48502" height="8.48503" fill="black"/>
<rect x="178.184" y="59.395" width="8.48503" height="8.48503" fill="black"/>
<rect x="50.9131" y="110.306" width="8.48503" height="8.48503" fill="black"/>
<rect x="50.9131" y="118.79" width="8.48503" height="8.48502" fill="black"/>
<rect x="50.9131" y="127.276" width="8.48503" height="8.48503" fill="black"/>
<rect x="50.9131" y="135.76" width="8.48503" height="8.48502" fill="black"/>
<rect x="50.9131" y="144.245" width="8.48503" height="8.48503" fill="black"/>
<rect x="50.9131" y="152.731" width="8.48503" height="8.48503" fill="black"/>
<rect x="50.9131" y="161.215" width="8.48503" height="8.48503" fill="black"/>
<rect x="59.3975" y="169.701" width="8.48503" height="8.48502" fill="black"/>
<rect x="59.3975" y="178.185" width="8.48503" height="8.48503" fill="black"/>
<rect x="67.8809" y="186.671" width="8.48503" height="8.48503" fill="black"/>
<rect x="76.3652" y="195.156" width="8.48503" height="8.48503" fill="black"/>
<rect x="84.8496" y="203.64" width="8.48502" height="8.48503" fill="black"/>
<rect x="178.184" y="203.64" width="8.48503" height="8.48503" fill="black"/>
<rect x="212.128" y="161.215" width="8.48502" height="8.48503" fill="black"/>
<rect x="203.644" y="178.185" width="8.48503" height="8.48503" fill="black"/>
<rect x="195.16" y="186.671" width="8.48503" height="8.48503" fill="black"/>
<rect x="186.667" y="195.156" width="8.48503" height="8.48503" fill="black"/>
<rect x="212.128" y="101.82" width="8.48502" height="8.48502" fill="black"/>
<rect x="212.128" y="110.306" width="8.48502" height="8.48503" fill="black"/>
<rect x="212.128" y="118.79" width="8.48502" height="8.48502" fill="black"/>
<rect x="212.128" y="127.276" width="8.48502" height="8.48503" fill="black"/>
<rect x="203.644" y="169.701" width="8.48503" height="8.48502" fill="black"/>
<rect x="212.128" y="127.276" width="8.48502" height="8.48503" fill="black"/>
<rect x="203.644" y="93.3357" width="8.48503" height="8.48503" fill="black"/>
<rect x="203.644" y="84.8496" width="8.48503" height="8.48502" fill="black"/>
<rect x="186.667" y="67.8792" width="8.48503" height="8.48503" fill="black"/>
<rect x="195.16" y="76.3655" width="8.48503" height="8.48503" fill="black"/>
<rect x="212.128" y="152.731" width="8.48502" height="8.48503" fill="black"/>
<rect x="212.128" y="144.245" width="8.48502" height="8.48503" fill="black"/>
<rect x="212.128" y="135.76" width="8.48502" height="8.48502" fill="black"/>
<rect x="84.8496" y="229.096" width="8.48502" height="8.48503" fill="black"/>
<rect x="93.334" y="220.61" width="8.48503" height="8.48503" fill="black"/>
<rect x="178.184" y="220.61" width="8.48503" height="8.48503" fill="black"/>
<rect x="186.667" y="220.61" width="8.48503" height="8.48503" fill="black"/>
<rect x="195.16" y="229.096" width="8.48503" height="8.48503" fill="black"/>
<rect x="203.644" y="229.096" width="8.48503" height="8.48503" fill="black"/>
<rect x="220.612" y="246.067" width="8.48503" height="8.48502" fill="black"/>
<rect x="229.097" y="254.551" width="8.48503" height="8.48503" fill="black"/>
<rect x="237.58" y="263.037" width="8.48503" height="8.48503" fill="black"/>
<rect x="212.128" y="237.58" width="8.48502" height="8.48503" fill="black"/>
<rect x="76.3652" y="229.096" width="8.48503" height="8.48503" fill="black"/>
<rect x="67.8809" y="237.58" width="8.48503" height="8.48503" fill="black"/>
<rect x="50.9131" y="246.067" width="8.48503" height="8.48502" fill="black"/>
<rect x="42.4287" y="254.551" width="8.48503" height="8.48503" fill="black"/>
<rect x="50.9131" y="246.067" width="8.48503" height="8.48502" fill="black"/>
<rect x="59.3975" y="237.58" width="8.48503" height="8.48503" fill="black"/>
<rect x="33.9365" y="263.037" width="8.48503" height="8.48503" fill="black"/>
<rect x="25.4521" y="263.037" width="8.48503" height="8.48503" fill="black"/>
</g>
<rect x="84.8496" y="144.245" width="8.48502" height="8.48503" fill="black"/>
<rect x="161.215" y="169.701" width="8.48503" height="8.48502" fill="black"/>
<rect x="127.278" y="169.701" width="8.48503" height="8.48502" fill="black"/>
<rect x="144.247" y="169.701" width="8.48503" height="8.48502" fill="black"/>
<rect x="127.278" y="118.79" width="8.48503" height="8.48502" fill="black"/>
<rect x="135.763" y="118.79" width="8.48502" height="8.48502" fill="black"/>
<rect x="144.247" y="118.79" width="8.48503" height="8.48502" fill="black"/>
<rect x="144.247" y="127.276" width="8.48503" height="8.48503" fill="black"/>
<rect x="144.247" y="135.76" width="8.48503" height="8.48502" fill="black"/>
<rect x="161.215" y="118.79" width="8.48503" height="8.48502" fill="black"/>
<rect x="144.247" y="110.306" width="8.48503" height="8.48503" fill="black"/>
<rect x="144.247" y="101.82" width="8.48503" height="8.48502" fill="black"/>
<rect x="152.73" y="118.79" width="8.48503" height="8.48502" fill="black"/>
</g>
<defs>
<clipPath id="clip0_534_30560">
<rect width="271.521" height="271.521" rx="104.671" fill="white"/>
</clipPath>
<clipPath id="clip1_534_30560">
<rect width="271.521" height="271.521" fill="white"/>
</clipPath>
</defs>
</svg>
