<svg width="272" height="273" viewBox="0 0 272 273" fill="none" xmlns="http://www.w3.org/2000/svg">
<g clip-path="url(#clip0_534_30570)">
<rect x="0.0419922" y="0.562744" width="271.521" height="271.521" rx="104.671" fill="white"/>
<rect width="271.521" height="271.521" transform="translate(0.0419922 0.562744)" fill="#EC9348"/>
<g clip-path="url(#clip1_534_30570)">
<rect x="50.9551" y="102.383" width="8.48503" height="8.48502" fill="black"/>
<rect x="59.4395" y="93.8984" width="8.48503" height="8.48503" fill="black"/>
<rect x="59.4395" y="85.4122" width="8.48503" height="8.48502" fill="black"/>
<rect x="67.9229" y="76.9282" width="8.48503" height="8.48503" fill="black"/>
<rect x="76.4072" y="68.4419" width="8.48503" height="8.48503" fill="black"/>
<rect x="84.8916" y="59.9579" width="8.48502" height="8.48503" fill="black"/>
<rect x="93.376" y="59.9579" width="8.48503" height="8.48503" fill="black"/>
<rect x="101.859" y="51.4738" width="8.48502" height="8.48503" fill="black"/>
<rect x="93.376" y="212.689" width="8.48503" height="8.48502" fill="black"/>
<rect x="110.344" y="51.4738" width="8.48503" height="8.48503" fill="black"/>
<rect x="118.837" y="51.4738" width="8.48502" height="8.48503" fill="black"/>
<rect x="127.32" y="51.4738" width="8.48503" height="8.48503" fill="black"/>
<rect x="135.805" y="51.4738" width="8.48502" height="8.48503" fill="black"/>
<rect x="135.805" y="212.689" width="8.48502" height="8.48502" fill="black"/>
<rect x="144.289" y="51.4738" width="8.48503" height="8.48503" fill="black"/>
<rect x="144.289" y="212.689" width="8.48503" height="8.48502" fill="black"/>
<rect x="152.772" y="51.4738" width="8.48503" height="8.48503" fill="black"/>
<rect x="152.772" y="212.689" width="8.48503" height="8.48502" fill="black"/>
<rect x="161.257" y="51.4738" width="8.48503" height="8.48503" fill="black"/>
<rect x="169.741" y="212.689" width="8.48502" height="8.48502" fill="black"/>
<rect x="169.741" y="59.9579" width="8.48502" height="8.48503" fill="black"/>
<rect x="178.226" y="59.9579" width="8.48503" height="8.48503" fill="black"/>
<rect x="50.9551" y="110.869" width="8.48503" height="8.48503" fill="black"/>
<rect x="50.9551" y="119.353" width="8.48503" height="8.48502" fill="black"/>
<rect x="50.9551" y="127.839" width="8.48503" height="8.48503" fill="black"/>
<rect x="50.9551" y="136.323" width="8.48503" height="8.48502" fill="black"/>
<rect x="50.9551" y="144.807" width="8.48503" height="8.48503" fill="black"/>
<rect x="50.9551" y="153.294" width="8.48503" height="8.48503" fill="black"/>
<rect x="50.9551" y="161.778" width="8.48503" height="8.48503" fill="black"/>
<rect x="59.4395" y="170.264" width="8.48503" height="8.48502" fill="black"/>
<rect x="59.4395" y="178.748" width="8.48503" height="8.48503" fill="black"/>
<rect x="67.9229" y="187.234" width="8.48503" height="8.48503" fill="black"/>
<rect x="76.4072" y="195.718" width="8.48503" height="8.48503" fill="black"/>
<rect x="84.8916" y="204.202" width="8.48502" height="8.48503" fill="black"/>
<rect x="178.226" y="204.202" width="8.48503" height="8.48503" fill="black"/>
<rect x="212.17" y="161.778" width="8.48502" height="8.48503" fill="black"/>
<rect x="203.686" y="178.748" width="8.48503" height="8.48503" fill="black"/>
<rect x="195.202" y="187.234" width="8.48503" height="8.48503" fill="black"/>
<rect x="186.709" y="195.718" width="8.48503" height="8.48503" fill="black"/>
<rect x="212.17" y="102.383" width="8.48502" height="8.48502" fill="black"/>
<rect x="212.17" y="110.869" width="8.48502" height="8.48503" fill="black"/>
<rect x="212.17" y="119.353" width="8.48502" height="8.48502" fill="black"/>
<rect x="212.17" y="127.839" width="8.48502" height="8.48503" fill="black"/>
<rect x="203.686" y="170.264" width="8.48503" height="8.48502" fill="black"/>
<rect x="212.17" y="127.839" width="8.48502" height="8.48503" fill="black"/>
<rect x="203.686" y="93.8984" width="8.48503" height="8.48503" fill="black"/>
<rect x="203.686" y="85.4122" width="8.48503" height="8.48502" fill="black"/>
<rect x="186.709" y="68.4419" width="8.48503" height="8.48503" fill="black"/>
<rect x="195.202" y="76.9282" width="8.48503" height="8.48503" fill="black"/>
<rect x="212.17" y="153.294" width="8.48502" height="8.48503" fill="black"/>
<rect x="212.17" y="144.807" width="8.48502" height="8.48503" fill="black"/>
<rect x="212.17" y="136.323" width="8.48502" height="8.48502" fill="black"/>
<rect x="84.8916" y="229.659" width="8.48502" height="8.48503" fill="black"/>
<rect x="93.376" y="221.173" width="8.48503" height="8.48503" fill="black"/>
<rect x="178.226" y="221.173" width="8.48503" height="8.48503" fill="black"/>
<rect x="186.709" y="221.173" width="8.48503" height="8.48503" fill="black"/>
<rect x="195.202" y="229.659" width="8.48503" height="8.48503" fill="black"/>
<rect x="203.686" y="229.659" width="8.48503" height="8.48503" fill="black"/>
<rect x="220.654" y="246.629" width="8.48503" height="8.48502" fill="black"/>
<rect x="229.139" y="255.113" width="8.48503" height="8.48503" fill="black"/>
<rect x="237.622" y="263.6" width="8.48503" height="8.48503" fill="black"/>
<rect x="212.17" y="238.143" width="8.48502" height="8.48503" fill="black"/>
<rect x="76.4072" y="229.659" width="8.48503" height="8.48503" fill="black"/>
<rect x="67.9229" y="238.143" width="8.48503" height="8.48503" fill="black"/>
<rect x="50.9551" y="246.629" width="8.48503" height="8.48502" fill="black"/>
<rect x="42.4707" y="255.113" width="8.48503" height="8.48503" fill="black"/>
<rect x="50.9551" y="246.629" width="8.48503" height="8.48502" fill="black"/>
<rect x="59.4395" y="238.143" width="8.48503" height="8.48503" fill="black"/>
<rect x="33.9785" y="263.6" width="8.48503" height="8.48503" fill="black"/>
<rect x="25.4941" y="263.6" width="8.48503" height="8.48503" fill="black"/>
</g>
<g clip-path="url(#clip2_534_30570)">
<rect x="42.4707" y="170.264" width="8.48503" height="8.48502" fill="black"/>
<rect x="42.4707" y="144.807" width="8.48503" height="8.48503" fill="black"/>
<rect x="59.4395" y="144.807" width="8.48503" height="8.48503" fill="black"/>
<rect x="67.9229" y="144.807" width="8.48503" height="8.48503" fill="black"/>
<rect x="25.4941" y="127.839" width="8.48503" height="8.48503" fill="black"/>
<rect x="17.0098" y="127.839" width="8.48503" height="8.48503" fill="black"/>
<rect x="25.4941" y="144.807" width="8.48503" height="8.48503" fill="black"/>
<rect x="203.686" y="127.839" width="8.48503" height="8.48503" fill="black"/>
<rect x="220.654" y="144.807" width="8.48503" height="8.48503" fill="black"/>
<rect x="229.139" y="127.839" width="8.48503" height="8.48503" fill="black"/>
<rect x="246.106" y="127.839" width="8.48502" height="8.48503" fill="black"/>
<rect x="229.139" y="161.778" width="8.48503" height="8.48503" fill="black"/>
<rect x="229.139" y="144.807" width="8.48503" height="8.48503" fill="black"/>
<rect x="237.622" y="144.807" width="8.48503" height="8.48503" fill="black"/>
<rect x="195.202" y="161.778" width="8.48503" height="8.48503" fill="black"/>
<rect x="59.4395" y="119.353" width="8.48503" height="8.48502" fill="black"/>
<rect x="220.654" y="127.839" width="8.48503" height="8.48503" fill="black"/>
<rect x="33.9785" y="127.839" width="8.48503" height="8.48503" fill="black"/>
<rect x="76.4072" y="85.4122" width="8.48503" height="8.48502" fill="black"/>
<rect x="84.8916" y="195.718" width="8.48502" height="8.48503" fill="black"/>
<rect x="93.376" y="195.718" width="8.48503" height="8.48503" fill="black"/>
<rect x="110.344" y="195.718" width="8.48503" height="8.48503" fill="black"/>
<rect x="212.17" y="187.234" width="8.48502" height="8.48503" fill="black"/>
<rect x="229.139" y="187.234" width="8.48503" height="8.48503" fill="black"/>
<rect x="220.654" y="187.234" width="8.48503" height="8.48503" fill="black"/>
<rect x="101.859" y="212.689" width="8.48502" height="8.48502" fill="black"/>
<rect x="152.772" y="68.4419" width="8.48503" height="8.48503" fill="black"/>
<rect x="212.17" y="76.9282" width="8.48502" height="8.48503" fill="black"/>
<rect x="33.9785" y="85.4122" width="8.48503" height="8.48502" fill="black"/>
<rect x="220.654" y="76.9282" width="8.48503" height="8.48503" fill="black"/>
<rect x="220.654" y="93.8984" width="8.48503" height="8.48503" fill="black"/>
<rect x="229.139" y="93.8984" width="8.48503" height="8.48503" fill="black"/>
<rect x="33.9785" y="102.383" width="8.48503" height="8.48502" fill="black"/>
<rect x="42.4707" y="102.383" width="8.48503" height="8.48502" fill="black"/>
<rect x="67.9229" y="85.4122" width="8.48503" height="8.48502" fill="black"/>
<rect x="67.9229" y="212.689" width="8.48503" height="8.48502" fill="black"/>
<rect x="118.837" y="68.4419" width="8.48502" height="8.48503" fill="black"/>
<rect x="135.805" y="34.5034" width="8.48502" height="8.48503" fill="black"/>
<rect x="127.32" y="34.5034" width="8.48503" height="8.48503" fill="black"/>
<rect x="152.772" y="34.5034" width="8.48503" height="8.48503" fill="black"/>
<rect x="118.837" y="34.5034" width="8.48502" height="8.48503" fill="black"/>
<rect x="110.344" y="34.5034" width="8.48503" height="8.48503" fill="black"/>
<rect x="84.8916" y="34.5034" width="8.48502" height="8.48503" fill="black"/>
<rect x="169.741" y="34.5034" width="8.48502" height="8.48503" fill="black"/>
<rect x="67.9229" y="59.9579" width="8.48503" height="8.48503" fill="black"/>
<rect x="59.4395" y="59.9579" width="8.48503" height="8.48503" fill="black"/>
<rect x="76.4072" y="59.9579" width="8.48503" height="8.48503" fill="black"/>
<rect x="186.709" y="59.9579" width="8.48503" height="8.48503" fill="black"/>
<rect x="186.709" y="42.9875" width="8.48503" height="8.48503" fill="black"/>
<rect x="195.202" y="42.9875" width="8.48503" height="8.48503" fill="black"/>
<rect x="203.686" y="59.9579" width="8.48503" height="8.48503" fill="black"/>
<rect x="229.139" y="59.9579" width="8.48503" height="8.48503" fill="black"/>
<rect x="135.805" y="68.4419" width="8.48502" height="8.48503" fill="black"/>
<rect x="93.376" y="76.9282" width="8.48503" height="8.48503" fill="black"/>
<rect x="127.32" y="68.4419" width="8.48503" height="8.48503" fill="black"/>
<rect x="203.686" y="76.9282" width="8.48503" height="8.48503" fill="black"/>
<rect x="50.9551" y="85.4122" width="8.48503" height="8.48502" fill="black"/>
<rect x="59.4395" y="195.718" width="8.48503" height="8.48503" fill="black"/>
<rect x="76.4072" y="212.689" width="8.48503" height="8.48502" fill="black"/>
<rect x="118.837" y="246.629" width="8.48502" height="8.48502" fill="black"/>
<rect x="110.344" y="246.629" width="8.48503" height="8.48502" fill="black"/>
<rect x="127.32" y="246.629" width="8.48503" height="8.48502" fill="black"/>
<rect x="135.805" y="246.629" width="8.48502" height="8.48502" fill="black"/>
<rect x="76.4072" y="246.629" width="8.48503" height="8.48502" fill="black"/>
<rect x="59.4395" y="246.629" width="8.48503" height="8.48502" fill="black"/>
<rect x="76.4072" y="263.6" width="8.48503" height="8.48503" fill="black"/>
<rect x="186.709" y="263.6" width="8.48503" height="8.48503" fill="black"/>
<rect x="178.226" y="263.6" width="8.48503" height="8.48503" fill="black"/>
<rect x="169.741" y="263.6" width="8.48502" height="8.48503" fill="black"/>
<rect x="161.257" y="263.6" width="8.48503" height="8.48503" fill="black"/>
<rect x="212.17" y="246.629" width="8.48502" height="8.48502" fill="black"/>
<rect x="203.686" y="246.629" width="8.48503" height="8.48502" fill="black"/>
<rect x="246.106" y="263.6" width="8.48502" height="8.48503" fill="black"/>
<rect x="59.4395" y="263.6" width="8.48503" height="8.48503" fill="black"/>
<rect x="42.4707" y="263.6" width="8.48503" height="8.48503" fill="black"/>
<rect x="50.9551" y="263.6" width="8.48503" height="8.48503" fill="black"/>
<rect x="84.8916" y="246.629" width="8.48502" height="8.48502" fill="black"/>
<rect x="229.139" y="246.629" width="8.48503" height="8.48502" fill="black"/>
<rect x="237.622" y="246.629" width="8.48503" height="8.48502" fill="black"/>
<rect x="101.859" y="229.659" width="8.48502" height="8.48503" fill="black"/>
<rect x="118.837" y="229.659" width="8.48502" height="8.48503" fill="black"/>
<rect x="110.344" y="229.659" width="8.48503" height="8.48503" fill="black"/>
<rect x="152.772" y="246.629" width="8.48503" height="8.48502" fill="black"/>
<rect x="195.202" y="204.202" width="8.48503" height="8.48503" fill="black"/>
<rect x="186.709" y="204.202" width="8.48503" height="8.48503" fill="black"/>
<rect x="203.686" y="204.202" width="8.48503" height="8.48503" fill="black"/>
<rect x="50.9551" y="195.718" width="8.48503" height="8.48503" fill="black"/>
<rect x="33.9785" y="195.718" width="8.48503" height="8.48503" fill="black"/>
<rect x="33.9785" y="170.264" width="8.48503" height="8.48502" fill="black"/>
</g>
<rect x="144.289" y="170.264" width="8.48503" height="8.48502" fill="black"/>
<rect x="161.257" y="170.264" width="8.48503" height="8.48502" fill="black"/>
<rect x="127.32" y="170.264" width="8.48503" height="8.48502" fill="black"/>
<rect x="169.741" y="161.778" width="8.48502" height="8.48503" fill="black"/>
<rect x="118.837" y="161.778" width="8.48502" height="8.48503" fill="black"/>
<rect x="135.805" y="161.778" width="8.48502" height="8.48503" fill="black"/>
<rect x="152.772" y="161.778" width="8.48503" height="8.48503" fill="black"/>
<rect x="127.32" y="119.353" width="8.48503" height="8.48502" fill="black"/>
<rect x="135.805" y="136.323" width="8.48502" height="8.48502" fill="black"/>
<rect x="127.32" y="127.839" width="8.48503" height="8.48503" fill="black"/>
<rect x="144.289" y="119.353" width="8.48503" height="8.48502" fill="black"/>
<rect x="144.289" y="119.353" width="8.48503" height="8.48502" fill="black"/>
<rect x="144.289" y="136.323" width="8.48503" height="8.48502" fill="black"/>
<rect x="152.772" y="136.323" width="8.48503" height="8.48502" fill="black"/>
<rect x="161.257" y="119.353" width="8.48503" height="8.48502" fill="black"/>
<rect x="127.32" y="110.869" width="8.48503" height="8.48503" fill="black"/>
<rect x="135.805" y="102.383" width="8.48502" height="8.48502" fill="black"/>
<rect x="144.289" y="102.383" width="8.48503" height="8.48502" fill="black"/>
<rect x="152.772" y="102.383" width="8.48503" height="8.48502" fill="black"/>
<rect x="161.257" y="110.869" width="8.48503" height="8.48503" fill="black"/>
<rect x="161.257" y="127.839" width="8.48503" height="8.48503" fill="black"/>
</g>
<defs>
<clipPath id="clip0_534_30570">
<rect x="0.0419922" y="0.562744" width="271.521" height="271.521" rx="104.671" fill="white"/>
</clipPath>
<clipPath id="clip1_534_30570">
<rect width="271.521" height="271.521" fill="white" transform="translate(0.0419922 0.562744)"/>
</clipPath>
<clipPath id="clip2_534_30570">
<rect width="271.521" height="271.521" fill="white" transform="translate(0.0419922 0.562744)"/>
</clipPath>
</defs>
</svg>
