<svg width="273" height="273" viewBox="0 0 273 273" fill="none" xmlns="http://www.w3.org/2000/svg">
<g clip-path="url(#clip0_534_30571)">
<rect x="0.5625" y="0.562744" width="271.521" height="271.521" rx="104.671" fill="white"/>
<rect width="271.521" height="271.521" transform="translate(0.5625 0.562744)" fill="#F1ADED"/>
<g clip-path="url(#clip1_534_30571)">
<rect x="51.4756" y="102.383" width="8.48503" height="8.48502" fill="black"/>
<rect x="59.96" y="93.8984" width="8.48503" height="8.48503" fill="black"/>
<rect x="59.96" y="85.4122" width="8.48503" height="8.48502" fill="black"/>
<rect x="68.4434" y="76.9282" width="8.48503" height="8.48503" fill="black"/>
<rect x="76.9277" y="68.4419" width="8.48503" height="8.48503" fill="black"/>
<rect x="85.4121" y="59.9579" width="8.48502" height="8.48503" fill="black"/>
<rect x="93.8965" y="59.9579" width="8.48503" height="8.48503" fill="black"/>
<rect x="102.38" y="51.4738" width="8.48502" height="8.48503" fill="black"/>
<rect x="93.8965" y="212.689" width="8.48503" height="8.48502" fill="black"/>
<rect x="110.864" y="51.4738" width="8.48503" height="8.48503" fill="black"/>
<rect x="119.357" y="51.4738" width="8.48502" height="8.48503" fill="black"/>
<rect x="127.841" y="51.4738" width="8.48503" height="8.48503" fill="black"/>
<rect x="136.325" y="51.4738" width="8.48502" height="8.48503" fill="black"/>
<rect x="136.325" y="212.689" width="8.48502" height="8.48502" fill="black"/>
<rect x="144.81" y="51.4738" width="8.48503" height="8.48503" fill="black"/>
<rect x="144.81" y="212.689" width="8.48503" height="8.48502" fill="black"/>
<rect x="153.293" y="51.4738" width="8.48503" height="8.48503" fill="black"/>
<rect x="153.293" y="212.689" width="8.48503" height="8.48502" fill="black"/>
<rect x="161.777" y="51.4738" width="8.48503" height="8.48503" fill="black"/>
<rect x="170.262" y="212.689" width="8.48502" height="8.48502" fill="black"/>
<rect x="170.262" y="59.9579" width="8.48502" height="8.48503" fill="black"/>
<rect x="178.746" y="59.9579" width="8.48503" height="8.48503" fill="black"/>
<rect x="51.4756" y="110.869" width="8.48503" height="8.48503" fill="black"/>
<rect x="51.4756" y="119.353" width="8.48503" height="8.48502" fill="black"/>
<rect x="51.4756" y="127.839" width="8.48503" height="8.48503" fill="black"/>
<rect x="51.4756" y="136.323" width="8.48503" height="8.48502" fill="black"/>
<rect x="51.4756" y="144.807" width="8.48503" height="8.48503" fill="black"/>
<rect x="51.4756" y="153.294" width="8.48503" height="8.48503" fill="black"/>
<rect x="51.4756" y="161.778" width="8.48503" height="8.48503" fill="black"/>
<rect x="59.96" y="170.264" width="8.48503" height="8.48502" fill="black"/>
<rect x="59.96" y="178.748" width="8.48503" height="8.48503" fill="black"/>
<rect x="68.4434" y="187.234" width="8.48503" height="8.48503" fill="black"/>
<rect x="76.9277" y="195.718" width="8.48503" height="8.48503" fill="black"/>
<rect x="85.4121" y="204.202" width="8.48502" height="8.48503" fill="black"/>
<rect x="178.746" y="204.202" width="8.48503" height="8.48503" fill="black"/>
<rect x="212.69" y="161.778" width="8.48502" height="8.48503" fill="black"/>
<rect x="204.206" y="178.748" width="8.48503" height="8.48503" fill="black"/>
<rect x="195.723" y="187.234" width="8.48503" height="8.48503" fill="black"/>
<rect x="187.229" y="195.718" width="8.48503" height="8.48503" fill="black"/>
<rect x="212.69" y="102.383" width="8.48502" height="8.48502" fill="black"/>
<rect x="212.69" y="110.869" width="8.48502" height="8.48503" fill="black"/>
<rect x="212.69" y="119.353" width="8.48502" height="8.48502" fill="black"/>
<rect x="212.69" y="127.839" width="8.48502" height="8.48503" fill="black"/>
<rect x="204.206" y="170.264" width="8.48503" height="8.48502" fill="black"/>
<rect x="212.69" y="127.839" width="8.48502" height="8.48503" fill="black"/>
<rect x="204.206" y="93.8984" width="8.48503" height="8.48503" fill="black"/>
<rect x="204.206" y="85.4122" width="8.48503" height="8.48502" fill="black"/>
<rect x="187.229" y="68.4419" width="8.48503" height="8.48503" fill="black"/>
<rect x="195.723" y="76.9282" width="8.48503" height="8.48503" fill="black"/>
<rect x="212.69" y="153.294" width="8.48502" height="8.48503" fill="black"/>
<rect x="212.69" y="144.807" width="8.48502" height="8.48503" fill="black"/>
<rect x="212.69" y="136.323" width="8.48502" height="8.48502" fill="black"/>
<rect x="85.4121" y="229.659" width="8.48502" height="8.48503" fill="black"/>
<rect x="93.8965" y="221.173" width="8.48503" height="8.48503" fill="black"/>
<rect x="178.746" y="221.173" width="8.48503" height="8.48503" fill="black"/>
<rect x="187.229" y="221.173" width="8.48503" height="8.48503" fill="black"/>
<rect x="195.723" y="229.659" width="8.48503" height="8.48503" fill="black"/>
<rect x="204.206" y="229.659" width="8.48503" height="8.48503" fill="black"/>
<rect x="221.175" y="246.629" width="8.48503" height="8.48502" fill="black"/>
<rect x="229.659" y="255.113" width="8.48503" height="8.48503" fill="black"/>
<rect x="238.143" y="263.6" width="8.48503" height="8.48503" fill="black"/>
<rect x="212.69" y="238.143" width="8.48502" height="8.48503" fill="black"/>
<rect x="76.9277" y="229.659" width="8.48503" height="8.48503" fill="black"/>
<rect x="68.4434" y="238.143" width="8.48503" height="8.48503" fill="black"/>
<rect x="51.4756" y="246.629" width="8.48503" height="8.48502" fill="black"/>
<rect x="42.9912" y="255.113" width="8.48503" height="8.48503" fill="black"/>
<rect x="51.4756" y="246.629" width="8.48503" height="8.48502" fill="black"/>
<rect x="59.96" y="238.143" width="8.48503" height="8.48503" fill="black"/>
<rect x="34.499" y="263.6" width="8.48503" height="8.48503" fill="black"/>
<rect x="26.0146" y="263.6" width="8.48503" height="8.48503" fill="black"/>
</g>
<rect x="144.81" y="170.264" width="8.48503" height="8.48502" fill="black"/>
<rect x="161.777" y="170.264" width="8.48503" height="8.48502" fill="black"/>
<rect x="127.841" y="170.264" width="8.48503" height="8.48502" fill="black"/>
<rect x="170.262" y="161.778" width="8.48502" height="8.48503" fill="black"/>
<rect x="119.357" y="161.778" width="8.48502" height="8.48503" fill="black"/>
<rect x="136.325" y="161.778" width="8.48502" height="8.48503" fill="black"/>
<rect x="153.293" y="161.778" width="8.48503" height="8.48503" fill="black"/>
<rect x="119.357" y="127.839" width="8.48502" height="8.48503" fill="black"/>
<rect x="110.864" y="127.839" width="8.48503" height="8.48503" fill="black"/>
<rect x="110.864" y="119.353" width="8.48503" height="8.48502" fill="black"/>
<rect x="110.864" y="110.869" width="8.48503" height="8.48503" fill="black"/>
<rect x="110.864" y="110.869" width="8.48503" height="8.48503" fill="black"/>
<rect x="102.38" y="110.869" width="8.48502" height="8.48503" fill="black"/>
<rect x="102.38" y="127.839" width="8.48502" height="8.48503" fill="black"/>
<rect x="110.864" y="127.839" width="8.48503" height="8.48503" fill="black"/>
<rect x="119.357" y="110.869" width="8.48502" height="8.48503" fill="black"/>
<rect x="178.746" y="110.869" width="8.48503" height="8.48503" fill="black"/>
<rect x="178.746" y="110.869" width="8.48503" height="8.48503" fill="black"/>
<rect x="178.746" y="119.353" width="8.48503" height="8.48502" fill="black"/>
<rect x="136.325" y="110.869" width="8.48502" height="8.48503" fill="black"/>
<rect x="144.81" y="110.869" width="8.48503" height="8.48503" fill="black"/>
<rect x="144.81" y="119.353" width="8.48503" height="8.48502" fill="black"/>
<rect x="144.81" y="127.839" width="8.48503" height="8.48503" fill="black"/>
<rect x="136.325" y="127.839" width="8.48502" height="8.48503" fill="black"/>
<rect x="153.293" y="127.839" width="8.48503" height="8.48503" fill="black"/>
<rect x="153.293" y="110.869" width="8.48503" height="8.48503" fill="black"/>
<rect x="178.746" y="127.839" width="8.48503" height="8.48503" fill="black"/>
<rect x="170.262" y="110.869" width="8.48502" height="8.48503" fill="black"/>
<rect x="187.229" y="110.869" width="8.48503" height="8.48503" fill="black"/>
<rect x="187.229" y="127.839" width="8.48503" height="8.48503" fill="black"/>
<rect x="178.746" y="127.839" width="8.48503" height="8.48503" fill="black"/>
<rect x="170.262" y="127.839" width="8.48502" height="8.48503" fill="black"/>
</g>
<defs>
<clipPath id="clip0_534_30571">
<rect x="0.5625" y="0.562744" width="271.521" height="271.521" rx="104.671" fill="white"/>
</clipPath>
<clipPath id="clip1_534_30571">
<rect width="271.521" height="271.521" fill="white" transform="translate(0.5625 0.562744)"/>
</clipPath>
</defs>
</svg>
