<svg width="273" height="272" viewBox="0 0 273 272" fill="none" xmlns="http://www.w3.org/2000/svg">
<g clip-path="url(#clip0_534_30572)">
<rect x="0.5625" y="0.041748" width="271.521" height="271.521" rx="104.671" fill="white"/>
<rect width="271.521" height="271.521" transform="translate(0.5625 0.041748)" fill="#7FCBD2"/>
<g clip-path="url(#clip1_534_30572)">
<rect x="51.4756" y="101.862" width="8.48503" height="8.48502" fill="black"/>
<rect x="59.96" y="93.3774" width="8.48503" height="8.48503" fill="black"/>
<rect x="59.96" y="84.8914" width="8.48503" height="8.48502" fill="black"/>
<rect x="68.4434" y="76.4072" width="8.48503" height="8.48503" fill="black"/>
<rect x="76.9277" y="67.9209" width="8.48503" height="8.48503" fill="black"/>
<rect x="85.4121" y="59.4368" width="8.48502" height="8.48503" fill="black"/>
<rect x="93.8965" y="59.4368" width="8.48503" height="8.48503" fill="black"/>
<rect x="102.38" y="50.9526" width="8.48502" height="8.48503" fill="black"/>
<rect x="93.8965" y="212.168" width="8.48503" height="8.48502" fill="black"/>
<rect x="110.864" y="50.9526" width="8.48503" height="8.48503" fill="black"/>
<rect x="119.357" y="50.9526" width="8.48502" height="8.48503" fill="black"/>
<rect x="127.841" y="50.9526" width="8.48503" height="8.48503" fill="black"/>
<rect x="136.325" y="50.9526" width="8.48502" height="8.48503" fill="black"/>
<rect x="136.325" y="212.168" width="8.48502" height="8.48502" fill="black"/>
<rect x="144.81" y="50.9526" width="8.48503" height="8.48503" fill="black"/>
<rect x="144.81" y="212.168" width="8.48503" height="8.48502" fill="black"/>
<rect x="153.293" y="50.9526" width="8.48503" height="8.48503" fill="black"/>
<rect x="153.293" y="212.168" width="8.48503" height="8.48502" fill="black"/>
<rect x="161.777" y="50.9526" width="8.48503" height="8.48503" fill="black"/>
<rect x="170.262" y="212.168" width="8.48502" height="8.48502" fill="black"/>
<rect x="170.262" y="59.4368" width="8.48502" height="8.48503" fill="black"/>
<rect x="178.746" y="59.4368" width="8.48503" height="8.48503" fill="black"/>
<rect x="51.4756" y="110.348" width="8.48503" height="8.48503" fill="black"/>
<rect x="51.4756" y="118.832" width="8.48503" height="8.48502" fill="black"/>
<rect x="51.4756" y="127.318" width="8.48503" height="8.48503" fill="black"/>
<rect x="51.4756" y="135.802" width="8.48503" height="8.48502" fill="black"/>
<rect x="51.4756" y="144.286" width="8.48503" height="8.48503" fill="black"/>
<rect x="51.4756" y="152.773" width="8.48503" height="8.48503" fill="black"/>
<rect x="51.4756" y="161.257" width="8.48503" height="8.48503" fill="black"/>
<rect x="59.96" y="169.743" width="8.48503" height="8.48502" fill="black"/>
<rect x="59.96" y="178.227" width="8.48503" height="8.48503" fill="black"/>
<rect x="68.4434" y="186.713" width="8.48503" height="8.48503" fill="black"/>
<rect x="76.9277" y="195.197" width="8.48503" height="8.48503" fill="black"/>
<rect x="85.4121" y="203.681" width="8.48502" height="8.48503" fill="black"/>
<rect x="178.746" y="203.681" width="8.48503" height="8.48503" fill="black"/>
<rect x="212.69" y="161.257" width="8.48502" height="8.48503" fill="black"/>
<rect x="204.206" y="178.227" width="8.48503" height="8.48503" fill="black"/>
<rect x="195.723" y="186.713" width="8.48503" height="8.48503" fill="black"/>
<rect x="187.229" y="195.197" width="8.48503" height="8.48503" fill="black"/>
<rect x="212.69" y="101.862" width="8.48502" height="8.48502" fill="black"/>
<rect x="212.69" y="110.348" width="8.48502" height="8.48503" fill="black"/>
<rect x="212.69" y="118.832" width="8.48502" height="8.48502" fill="black"/>
<rect x="212.69" y="127.318" width="8.48502" height="8.48503" fill="black"/>
<rect x="204.206" y="169.743" width="8.48503" height="8.48502" fill="black"/>
<rect x="212.69" y="127.318" width="8.48502" height="8.48503" fill="black"/>
<rect x="204.206" y="93.3774" width="8.48503" height="8.48503" fill="black"/>
<rect x="204.206" y="84.8914" width="8.48503" height="8.48502" fill="black"/>
<rect x="187.229" y="67.9209" width="8.48503" height="8.48503" fill="black"/>
<rect x="195.723" y="76.4072" width="8.48503" height="8.48503" fill="black"/>
<rect x="212.69" y="152.773" width="8.48502" height="8.48503" fill="black"/>
<rect x="212.69" y="144.286" width="8.48502" height="8.48503" fill="black"/>
<rect x="212.69" y="135.802" width="8.48502" height="8.48502" fill="black"/>
<rect x="85.4121" y="229.138" width="8.48502" height="8.48503" fill="black"/>
<rect x="93.8965" y="220.652" width="8.48503" height="8.48503" fill="black"/>
<rect x="178.746" y="220.652" width="8.48503" height="8.48503" fill="black"/>
<rect x="187.229" y="220.652" width="8.48503" height="8.48503" fill="black"/>
<rect x="195.723" y="229.138" width="8.48503" height="8.48503" fill="black"/>
<rect x="204.206" y="229.138" width="8.48503" height="8.48503" fill="black"/>
<rect x="221.175" y="246.108" width="8.48503" height="8.48502" fill="black"/>
<rect x="229.659" y="254.593" width="8.48503" height="8.48503" fill="black"/>
<rect x="238.143" y="263.079" width="8.48503" height="8.48503" fill="black"/>
<rect x="212.69" y="237.622" width="8.48502" height="8.48503" fill="black"/>
<rect x="76.9277" y="229.138" width="8.48503" height="8.48503" fill="black"/>
<rect x="68.4434" y="237.622" width="8.48503" height="8.48503" fill="black"/>
<rect x="51.4756" y="246.108" width="8.48503" height="8.48502" fill="black"/>
<rect x="42.9912" y="254.593" width="8.48503" height="8.48503" fill="black"/>
<rect x="51.4756" y="246.108" width="8.48503" height="8.48502" fill="black"/>
<rect x="59.96" y="237.622" width="8.48503" height="8.48503" fill="black"/>
<rect x="34.499" y="263.079" width="8.48503" height="8.48503" fill="black"/>
<rect x="26.0146" y="263.079" width="8.48503" height="8.48503" fill="black"/>
</g>
<rect x="34.499" y="161.257" width="8.48503" height="8.48503" fill="black"/>
<rect x="34.499" y="152.773" width="8.48503" height="8.48503" fill="black"/>
<rect x="34.499" y="144.286" width="8.48503" height="8.48503" fill="black"/>
<rect x="34.499" y="135.802" width="8.48503" height="8.48502" fill="black"/>
<rect x="34.499" y="127.318" width="8.48503" height="8.48503" fill="black"/>
<rect x="34.499" y="118.832" width="8.48503" height="8.48502" fill="black"/>
<rect x="34.499" y="110.348" width="8.48503" height="8.48503" fill="black"/>
<rect x="34.499" y="101.862" width="8.48503" height="8.48502" fill="black"/>
<rect x="34.499" y="93.3774" width="8.48503" height="8.48503" fill="black"/>
<rect x="42.9912" y="84.8914" width="8.48503" height="8.48502" fill="black"/>
<rect x="42.9912" y="76.4072" width="8.48503" height="8.48503" fill="black"/>
<rect x="51.4756" y="67.9209" width="8.48503" height="8.48503" fill="black"/>
<rect x="59.96" y="59.4368" width="8.48503" height="8.48503" fill="black"/>
<rect x="68.4434" y="50.9526" width="8.48503" height="8.48503" fill="black"/>
<rect x="76.9277" y="42.4666" width="8.48503" height="8.48503" fill="black"/>
<rect x="93.8965" y="33.9824" width="8.48503" height="8.48503" fill="black"/>
<rect x="102.38" y="33.9824" width="8.48502" height="8.48503" fill="black"/>
<rect x="110.864" y="33.9824" width="8.48503" height="8.48503" fill="black"/>
<rect x="119.357" y="33.9824" width="8.48502" height="8.48503" fill="black"/>
<rect x="127.841" y="33.9824" width="8.48503" height="8.48503" fill="black"/>
<rect x="136.325" y="33.9824" width="8.48502" height="8.48503" fill="black"/>
<rect x="144.81" y="33.9824" width="8.48503" height="8.48503" fill="black"/>
<rect x="153.293" y="33.9824" width="8.48503" height="8.48503" fill="black"/>
<rect x="161.777" y="33.9824" width="8.48503" height="8.48503" fill="black"/>
<rect x="170.262" y="33.9824" width="8.48502" height="8.48503" fill="black"/>
<rect x="178.746" y="42.4666" width="8.48503" height="8.48503" fill="black"/>
<rect x="187.229" y="42.4666" width="8.48503" height="8.48503" fill="black"/>
<rect x="195.723" y="50.9526" width="8.48503" height="8.48503" fill="black"/>
<rect x="204.206" y="59.4368" width="8.48503" height="8.48503" fill="black"/>
<rect x="212.69" y="67.9209" width="8.48502" height="8.48503" fill="black"/>
<rect x="221.175" y="76.4072" width="8.48503" height="8.48503" fill="black"/>
<rect x="221.175" y="84.8914" width="8.48503" height="8.48502" fill="black"/>
<rect x="229.659" y="93.3774" width="8.48503" height="8.48503" fill="black"/>
<rect x="229.659" y="101.862" width="8.48503" height="8.48502" fill="black"/>
<rect x="229.659" y="110.348" width="8.48503" height="8.48503" fill="black"/>
<rect x="229.659" y="118.832" width="8.48503" height="8.48502" fill="black"/>
<rect x="229.659" y="127.318" width="8.48503" height="8.48503" fill="black"/>
<rect x="229.659" y="135.802" width="8.48503" height="8.48502" fill="black"/>
<rect x="229.659" y="144.286" width="8.48503" height="8.48503" fill="black"/>
<rect x="229.659" y="152.773" width="8.48503" height="8.48503" fill="black"/>
<rect x="229.659" y="161.257" width="8.48503" height="8.48503" fill="black"/>
<rect x="229.659" y="169.743" width="8.48503" height="8.48502" fill="black"/>
<rect x="85.4121" y="42.4666" width="8.48502" height="8.48503" fill="black"/>
<rect x="34.499" y="169.743" width="8.48503" height="8.48502" fill="black"/>
<rect x="42.9912" y="186.713" width="8.48503" height="8.48503" fill="black"/>
<rect x="68.4434" y="212.168" width="8.48503" height="8.48502" fill="black"/>
<rect x="59.96" y="229.138" width="8.48503" height="8.48503" fill="black"/>
<rect x="51.4756" y="220.652" width="8.48503" height="8.48503" fill="black"/>
<rect x="17.5303" y="237.622" width="8.48503" height="8.48503" fill="black"/>
<rect x="42.9912" y="212.168" width="8.48503" height="8.48502" fill="black"/>
<rect x="34.499" y="229.138" width="8.48503" height="8.48503" fill="black"/>
<rect x="34.499" y="203.681" width="8.48503" height="8.48503" fill="black"/>
<rect x="26.0146" y="220.652" width="8.48503" height="8.48503" fill="black"/>
<rect x="26.0146" y="195.197" width="8.48503" height="8.48503" fill="black"/>
<rect x="26.0146" y="186.713" width="8.48503" height="8.48503" fill="black"/>
<rect x="17.5303" y="178.227" width="8.48503" height="8.48503" fill="black"/>
<rect x="17.5303" y="169.743" width="8.48503" height="8.48502" fill="black"/>
<rect x="17.5303" y="161.257" width="8.48503" height="8.48503" fill="black"/>
<rect x="17.5303" y="152.773" width="8.48503" height="8.48503" fill="black"/>
<rect x="17.5303" y="144.286" width="8.48503" height="8.48503" fill="black"/>
<rect x="17.5303" y="135.802" width="8.48503" height="8.48502" fill="black"/>
<rect x="17.5303" y="127.318" width="8.48503" height="8.48503" fill="black"/>
<rect x="17.5303" y="118.832" width="8.48503" height="8.48502" fill="black"/>
<rect x="17.5303" y="110.348" width="8.48503" height="8.48503" fill="black"/>
<rect x="17.5303" y="101.862" width="8.48503" height="8.48502" fill="black"/>
<rect x="17.5303" y="93.3774" width="8.48503" height="8.48503" fill="black"/>
<rect x="17.5303" y="84.8914" width="8.48503" height="8.48502" fill="black"/>
<rect x="26.0146" y="76.4072" width="8.48503" height="8.48503" fill="black"/>
<rect x="26.0146" y="67.9209" width="8.48503" height="8.48503" fill="black"/>
<rect x="34.499" y="59.4368" width="8.48503" height="8.48503" fill="black"/>
<rect x="17.5303" y="50.9526" width="8.48503" height="8.48503" fill="black"/>
<rect x="42.9912" y="50.9526" width="8.48503" height="8.48503" fill="black"/>
<rect x="26.0146" y="42.4666" width="8.48503" height="8.48503" fill="black"/>
<rect x="51.4756" y="42.4666" width="8.48503" height="8.48503" fill="black"/>
<rect x="34.499" y="33.9824" width="8.48503" height="8.48503" fill="black"/>
<rect x="17.5303" y="25.4961" width="8.48503" height="8.48503" fill="black"/>
<rect x="59.96" y="33.9824" width="8.48503" height="8.48503" fill="black"/>
<rect x="42.9912" y="25.4961" width="8.48503" height="8.48503" fill="black"/>
<rect x="68.4434" y="25.4961" width="8.48503" height="8.48503" fill="black"/>
<rect x="76.9277" y="25.4961" width="8.48503" height="8.48503" fill="black"/>
<rect x="85.4121" y="17.012" width="8.48502" height="8.48503" fill="black"/>
<rect x="93.8965" y="17.012" width="8.48503" height="8.48503" fill="black"/>
<rect x="102.38" y="17.012" width="8.48502" height="8.48503" fill="black"/>
<rect x="110.864" y="17.012" width="8.48503" height="8.48503" fill="black"/>
<rect x="119.357" y="17.012" width="8.48502" height="8.48503" fill="black"/>
<rect x="127.841" y="17.012" width="8.48503" height="8.48503" fill="black"/>
<rect x="136.325" y="17.012" width="8.48502" height="8.48503" fill="black"/>
<rect x="144.81" y="17.012" width="8.48503" height="8.48503" fill="black"/>
<rect x="153.293" y="17.012" width="8.48503" height="8.48503" fill="black"/>
<rect x="161.777" y="17.012" width="8.48503" height="8.48503" fill="black"/>
<rect x="170.262" y="17.012" width="8.48502" height="8.48503" fill="black"/>
<rect x="178.746" y="17.012" width="8.48503" height="8.48503" fill="black"/>
<rect x="187.229" y="25.4961" width="8.48503" height="8.48503" fill="black"/>
<rect x="195.723" y="25.4961" width="8.48503" height="8.48503" fill="black"/>
<rect x="204.206" y="33.9824" width="8.48503" height="8.48503" fill="black"/>
<rect x="212.69" y="17.012" width="8.48502" height="8.48503" fill="black"/>
<rect x="221.175" y="25.4961" width="8.48503" height="8.48503" fill="black"/>
<rect x="238.143" y="17.012" width="8.48503" height="8.48503" fill="black"/>
<rect x="229.659" y="33.9824" width="8.48503" height="8.48503" fill="black"/>
<rect x="246.627" y="25.4961" width="8.48502" height="8.48503" fill="black"/>
<rect x="238.143" y="42.4666" width="8.48503" height="8.48503" fill="black"/>
<rect x="246.627" y="50.9526" width="8.48502" height="8.48503" fill="black"/>
<rect x="212.69" y="42.4666" width="8.48502" height="8.48503" fill="black"/>
<rect x="221.175" y="50.9526" width="8.48503" height="8.48503" fill="black"/>
<rect x="229.659" y="59.4368" width="8.48503" height="8.48503" fill="black"/>
<rect x="238.143" y="67.9209" width="8.48503" height="8.48503" fill="black"/>
<rect x="238.143" y="76.4072" width="8.48503" height="8.48503" fill="black"/>
<rect x="246.627" y="84.8914" width="8.48502" height="8.48502" fill="black"/>
<rect x="246.627" y="93.3774" width="8.48502" height="8.48503" fill="black"/>
<rect x="246.627" y="101.862" width="8.48502" height="8.48502" fill="black"/>
<rect x="246.627" y="110.348" width="8.48502" height="8.48503" fill="black"/>
<rect x="246.627" y="118.832" width="8.48502" height="8.48502" fill="black"/>
<rect x="246.627" y="127.318" width="8.48502" height="8.48503" fill="black"/>
<rect x="246.627" y="135.802" width="8.48502" height="8.48502" fill="black"/>
<rect x="246.627" y="144.286" width="8.48502" height="8.48503" fill="black"/>
<rect x="246.627" y="152.773" width="8.48502" height="8.48503" fill="black"/>
<rect x="246.627" y="161.257" width="8.48502" height="8.48503" fill="black"/>
<rect x="246.627" y="169.743" width="8.48502" height="8.48502" fill="black"/>
<rect x="246.627" y="178.227" width="8.48502" height="8.48503" fill="black"/>
<rect x="238.143" y="186.713" width="8.48503" height="8.48503" fill="black"/>
<rect x="238.143" y="195.197" width="8.48503" height="8.48503" fill="black"/>
<rect x="229.659" y="203.681" width="8.48503" height="8.48503" fill="black"/>
<rect x="238.143" y="220.652" width="8.48503" height="8.48503" fill="black"/>
<rect x="246.627" y="237.622" width="8.48502" height="8.48503" fill="black"/>
<rect x="221.175" y="212.168" width="8.48503" height="8.48502" fill="black"/>
<rect x="229.659" y="229.138" width="8.48503" height="8.48503" fill="black"/>
<rect x="76.9277" y="220.652" width="8.48503" height="8.48503" fill="black"/>
<rect x="59.96" y="203.681" width="8.48503" height="8.48503" fill="black"/>
<rect x="51.4756" y="195.197" width="8.48503" height="8.48503" fill="black"/>
<rect x="204.206" y="203.681" width="8.48503" height="8.48503" fill="black"/>
<rect x="195.723" y="212.168" width="8.48503" height="8.48502" fill="black"/>
<rect x="212.69" y="220.652" width="8.48502" height="8.48503" fill="black"/>
<rect x="212.69" y="195.197" width="8.48502" height="8.48503" fill="black"/>
<rect x="221.175" y="178.227" width="8.48503" height="8.48503" fill="black"/>
<rect x="221.175" y="186.713" width="8.48503" height="8.48503" fill="black"/>
<rect width="8.48503" height="8.48503" transform="matrix(1 0 0 -1 42.9912 186.713)" fill="black"/>
<rect x="170.262" y="169.743" width="8.48502" height="8.48502" fill="black"/>
<rect x="119.357" y="169.743" width="8.48502" height="8.48502" fill="black"/>
<rect x="136.325" y="169.743" width="8.48502" height="8.48502" fill="black"/>
<rect x="127.841" y="169.743" width="8.48503" height="8.48502" fill="black"/>
<rect x="161.777" y="161.257" width="8.48503" height="8.48503" fill="black"/>
<rect x="161.777" y="178.227" width="8.48503" height="8.48503" fill="black"/>
<rect x="144.81" y="169.743" width="8.48503" height="8.48502" fill="black"/>
<rect x="127.841" y="161.257" width="8.48503" height="8.48503" fill="black"/>
<rect x="144.81" y="161.257" width="8.48503" height="8.48503" fill="black"/>
<rect x="144.81" y="178.227" width="8.48503" height="8.48503" fill="black"/>
<rect x="127.841" y="178.227" width="8.48503" height="8.48503" fill="black"/>
<rect x="161.777" y="169.743" width="8.48503" height="8.48502" fill="black"/>
<rect x="153.293" y="169.743" width="8.48503" height="8.48502" fill="black"/>
<rect x="119.357" y="127.318" width="8.48502" height="8.48503" fill="black"/>
<rect x="110.864" y="127.318" width="8.48503" height="8.48503" fill="black"/>
<rect x="110.864" y="118.832" width="8.48503" height="8.48502" fill="black"/>
<rect x="110.864" y="110.348" width="8.48503" height="8.48503" fill="black"/>
<rect x="110.864" y="110.348" width="8.48503" height="8.48503" fill="black"/>
<rect x="102.38" y="110.348" width="8.48502" height="8.48503" fill="black"/>
<rect x="102.38" y="127.318" width="8.48502" height="8.48503" fill="black"/>
<rect x="110.864" y="127.318" width="8.48503" height="8.48503" fill="black"/>
<rect x="119.357" y="110.348" width="8.48502" height="8.48503" fill="black"/>
<rect x="178.746" y="110.348" width="8.48503" height="8.48503" fill="black"/>
<rect x="178.746" y="110.348" width="8.48503" height="8.48503" fill="black"/>
<rect x="178.746" y="118.832" width="8.48503" height="8.48502" fill="black"/>
<rect x="136.325" y="110.348" width="8.48502" height="8.48503" fill="black"/>
<rect x="144.81" y="110.348" width="8.48503" height="8.48503" fill="black"/>
<rect x="144.81" y="118.832" width="8.48503" height="8.48502" fill="black"/>
<rect x="144.81" y="127.318" width="8.48503" height="8.48503" fill="black"/>
<rect x="136.325" y="127.318" width="8.48502" height="8.48503" fill="black"/>
<rect x="153.293" y="127.318" width="8.48503" height="8.48503" fill="black"/>
<rect x="153.293" y="110.348" width="8.48503" height="8.48503" fill="black"/>
<rect x="178.746" y="127.318" width="8.48503" height="8.48503" fill="black"/>
<rect x="170.262" y="110.348" width="8.48502" height="8.48503" fill="black"/>
<rect x="187.229" y="110.348" width="8.48503" height="8.48503" fill="black"/>
<rect x="187.229" y="127.318" width="8.48503" height="8.48503" fill="black"/>
<rect x="178.746" y="127.318" width="8.48503" height="8.48503" fill="black"/>
<rect x="170.262" y="127.318" width="8.48502" height="8.48503" fill="black"/>
</g>
<defs>
<clipPath id="clip0_534_30572">
<rect x="0.5625" y="0.041748" width="271.521" height="271.521" rx="104.671" fill="white"/>
</clipPath>
<clipPath id="clip1_534_30572">
<rect width="271.521" height="271.521" fill="white" transform="translate(0.5625 0.041748)"/>
</clipPath>
</defs>
</svg>
