<svg width="273" height="273" viewBox="0 0 273 273" fill="none" xmlns="http://www.w3.org/2000/svg">
<g clip-path="url(#clip0_534_30573)">
<rect x="0.5625" y="0.520996" width="271.521" height="271.521" rx="104.671" fill="white"/>
<rect width="271.521" height="271.521" transform="translate(0.5625 0.520996)" fill="#DED4C4"/>
<g clip-path="url(#clip1_534_30573)">
<rect x="51.4756" y="102.341" width="8.48503" height="8.48502" fill="black"/>
<rect x="59.96" y="93.8567" width="8.48503" height="8.48503" fill="black"/>
<rect x="59.96" y="85.3706" width="8.48503" height="8.48502" fill="black"/>
<rect x="68.4434" y="76.8865" width="8.48503" height="8.48503" fill="black"/>
<rect x="76.9277" y="68.4001" width="8.48503" height="8.48503" fill="black"/>
<rect x="85.4121" y="59.916" width="8.48502" height="8.48503" fill="black"/>
<rect x="93.8965" y="59.916" width="8.48503" height="8.48503" fill="black"/>
<rect x="102.38" y="51.4319" width="8.48502" height="8.48503" fill="black"/>
<rect x="93.8965" y="212.647" width="8.48503" height="8.48502" fill="black"/>
<rect x="110.864" y="51.4319" width="8.48503" height="8.48503" fill="black"/>
<rect x="119.357" y="51.4319" width="8.48502" height="8.48503" fill="black"/>
<rect x="127.841" y="51.4319" width="8.48503" height="8.48503" fill="black"/>
<rect x="136.325" y="51.4319" width="8.48502" height="8.48503" fill="black"/>
<rect x="136.325" y="212.647" width="8.48502" height="8.48502" fill="black"/>
<rect x="144.81" y="51.4319" width="8.48503" height="8.48503" fill="black"/>
<rect x="144.81" y="212.647" width="8.48503" height="8.48502" fill="black"/>
<rect x="153.293" y="51.4319" width="8.48503" height="8.48503" fill="black"/>
<rect x="153.293" y="212.647" width="8.48503" height="8.48502" fill="black"/>
<rect x="161.777" y="51.4319" width="8.48503" height="8.48503" fill="black"/>
<rect x="170.262" y="212.647" width="8.48502" height="8.48502" fill="black"/>
<rect x="170.262" y="59.916" width="8.48502" height="8.48503" fill="black"/>
<rect x="178.746" y="59.916" width="8.48503" height="8.48503" fill="black"/>
<rect x="51.4756" y="110.827" width="8.48503" height="8.48503" fill="black"/>
<rect x="51.4756" y="119.311" width="8.48503" height="8.48502" fill="black"/>
<rect x="51.4756" y="127.797" width="8.48503" height="8.48503" fill="black"/>
<rect x="51.4756" y="136.281" width="8.48503" height="8.48502" fill="black"/>
<rect x="51.4756" y="144.766" width="8.48503" height="8.48503" fill="black"/>
<rect x="51.4756" y="153.252" width="8.48503" height="8.48503" fill="black"/>
<rect x="51.4756" y="161.736" width="8.48503" height="8.48503" fill="black"/>
<rect x="59.96" y="170.222" width="8.48503" height="8.48502" fill="black"/>
<rect x="59.96" y="178.706" width="8.48503" height="8.48503" fill="black"/>
<rect x="68.4434" y="187.192" width="8.48503" height="8.48503" fill="black"/>
<rect x="76.9277" y="195.677" width="8.48503" height="8.48503" fill="black"/>
<rect x="85.4121" y="204.161" width="8.48502" height="8.48503" fill="black"/>
<rect x="178.746" y="204.161" width="8.48503" height="8.48503" fill="black"/>
<rect x="212.69" y="161.736" width="8.48502" height="8.48503" fill="black"/>
<rect x="204.206" y="178.706" width="8.48503" height="8.48503" fill="black"/>
<rect x="195.723" y="187.192" width="8.48503" height="8.48503" fill="black"/>
<rect x="187.229" y="195.677" width="8.48503" height="8.48503" fill="black"/>
<rect x="212.69" y="102.341" width="8.48502" height="8.48502" fill="black"/>
<rect x="212.69" y="110.827" width="8.48502" height="8.48503" fill="black"/>
<rect x="212.69" y="119.311" width="8.48502" height="8.48502" fill="black"/>
<rect x="212.69" y="127.797" width="8.48502" height="8.48503" fill="black"/>
<rect x="204.206" y="170.222" width="8.48503" height="8.48502" fill="black"/>
<rect x="212.69" y="127.797" width="8.48502" height="8.48503" fill="black"/>
<rect x="204.206" y="93.8567" width="8.48503" height="8.48503" fill="black"/>
<rect x="204.206" y="85.3706" width="8.48503" height="8.48502" fill="black"/>
<rect x="187.229" y="68.4001" width="8.48503" height="8.48503" fill="black"/>
<rect x="195.723" y="76.8865" width="8.48503" height="8.48503" fill="black"/>
<rect x="212.69" y="153.252" width="8.48502" height="8.48503" fill="black"/>
<rect x="212.69" y="144.766" width="8.48502" height="8.48503" fill="black"/>
<rect x="212.69" y="136.281" width="8.48502" height="8.48502" fill="black"/>
<rect x="85.4121" y="229.617" width="8.48502" height="8.48503" fill="black"/>
<rect x="93.8965" y="221.131" width="8.48503" height="8.48503" fill="black"/>
<rect x="178.746" y="221.131" width="8.48503" height="8.48503" fill="black"/>
<rect x="187.229" y="221.131" width="8.48503" height="8.48503" fill="black"/>
<rect x="195.723" y="229.617" width="8.48503" height="8.48503" fill="black"/>
<rect x="204.206" y="229.617" width="8.48503" height="8.48503" fill="black"/>
<rect x="221.175" y="246.588" width="8.48503" height="8.48502" fill="black"/>
<rect x="229.659" y="255.072" width="8.48503" height="8.48503" fill="black"/>
<rect x="238.143" y="263.558" width="8.48503" height="8.48503" fill="black"/>
<rect x="212.69" y="238.101" width="8.48502" height="8.48503" fill="black"/>
<rect x="76.9277" y="229.617" width="8.48503" height="8.48503" fill="black"/>
<rect x="68.4434" y="238.101" width="8.48503" height="8.48503" fill="black"/>
<rect x="51.4756" y="246.588" width="8.48503" height="8.48502" fill="black"/>
<rect x="42.9912" y="255.072" width="8.48503" height="8.48503" fill="black"/>
<rect x="51.4756" y="246.588" width="8.48503" height="8.48502" fill="black"/>
<rect x="59.96" y="238.101" width="8.48503" height="8.48503" fill="black"/>
<rect x="34.499" y="263.558" width="8.48503" height="8.48503" fill="black"/>
<rect x="26.0146" y="263.558" width="8.48503" height="8.48503" fill="black"/>
</g>
<rect x="170.262" y="170.222" width="8.48502" height="8.48502" fill="black"/>
<rect x="110.864" y="170.222" width="8.48503" height="8.48502" fill="black"/>
<rect x="119.357" y="170.222" width="8.48502" height="8.48502" fill="black"/>
<rect x="136.325" y="170.222" width="8.48502" height="8.48502" fill="black"/>
<rect x="127.841" y="170.222" width="8.48503" height="8.48502" fill="black"/>
<rect x="144.81" y="170.222" width="8.48503" height="8.48502" fill="black"/>
<rect x="153.293" y="178.706" width="8.48503" height="8.48503" fill="black"/>
<rect x="153.293" y="161.736" width="8.48503" height="8.48503" fill="black"/>
<rect x="136.325" y="178.706" width="8.48502" height="8.48503" fill="black"/>
<rect x="136.325" y="161.736" width="8.48502" height="8.48503" fill="black"/>
<rect x="119.357" y="178.706" width="8.48502" height="8.48503" fill="black"/>
<rect x="119.357" y="161.736" width="8.48502" height="8.48503" fill="black"/>
<rect x="170.262" y="178.706" width="8.48502" height="8.48503" fill="black"/>
<rect x="170.262" y="161.736" width="8.48502" height="8.48503" fill="black"/>
<rect x="153.293" y="170.222" width="8.48503" height="8.48502" fill="black"/>
<rect x="161.777" y="170.222" width="8.48503" height="8.48502" fill="black"/>
<rect x="178.746" y="170.222" width="8.48503" height="8.48502" fill="black"/>
<rect x="153.293" y="170.222" width="8.48503" height="8.48502" fill="black"/>
<rect x="119.357" y="119.311" width="8.48502" height="8.48502" fill="black"/>
<rect x="110.864" y="127.797" width="8.48503" height="8.48503" fill="black"/>
<rect x="161.777" y="127.797" width="8.48503" height="8.48503" fill="black"/>
<rect x="127.841" y="127.797" width="8.48503" height="8.48503" fill="black"/>
<rect x="127.841" y="110.827" width="8.48503" height="8.48503" fill="black"/>
<rect x="110.864" y="110.827" width="8.48503" height="8.48503" fill="black"/>
<rect x="161.777" y="110.827" width="8.48503" height="8.48503" fill="black"/>
<rect x="170.262" y="119.311" width="8.48502" height="8.48502" fill="black"/>
<rect x="178.746" y="127.797" width="8.48503" height="8.48503" fill="black"/>
<rect x="178.746" y="110.827" width="8.48503" height="8.48503" fill="black"/>
</g>
<defs>
<clipPath id="clip0_534_30573">
<rect x="0.5625" y="0.520996" width="271.521" height="271.521" rx="104.671" fill="white"/>
</clipPath>
<clipPath id="clip1_534_30573">
<rect width="271.521" height="271.521" fill="white" transform="translate(0.5625 0.520996)"/>
</clipPath>
</defs>
</svg>
