<svg width="272" height="273" viewBox="0 0 272 273" fill="none" xmlns="http://www.w3.org/2000/svg">
<g clip-path="url(#clip0_534_30574)">
<rect y="0.562744" width="271.521" height="271.521" rx="104.671" fill="white"/>
<rect width="271.521" height="271.521" transform="translate(0 0.562744)" fill="#EF7A61"/>
<g clip-path="url(#clip1_534_30574)">
<rect x="50.9131" y="102.383" width="8.48503" height="8.48502" fill="black"/>
<rect x="59.3975" y="93.8984" width="8.48503" height="8.48503" fill="black"/>
<rect x="59.3975" y="85.4122" width="8.48503" height="8.48502" fill="black"/>
<rect x="67.8809" y="76.9282" width="8.48503" height="8.48503" fill="black"/>
<rect x="76.3652" y="68.4419" width="8.48503" height="8.48503" fill="black"/>
<rect x="84.8496" y="59.9579" width="8.48502" height="8.48503" fill="black"/>
<rect x="93.334" y="59.9579" width="8.48503" height="8.48503" fill="black"/>
<rect x="101.817" y="51.4738" width="8.48502" height="8.48503" fill="black"/>
<rect x="93.334" y="212.689" width="8.48503" height="8.48502" fill="black"/>
<rect x="110.302" y="51.4738" width="8.48503" height="8.48503" fill="black"/>
<rect x="118.795" y="51.4738" width="8.48502" height="8.48503" fill="black"/>
<rect x="127.278" y="51.4738" width="8.48503" height="8.48503" fill="black"/>
<rect x="135.763" y="51.4738" width="8.48502" height="8.48503" fill="black"/>
<rect x="135.763" y="212.689" width="8.48502" height="8.48502" fill="black"/>
<rect x="144.247" y="51.4738" width="8.48503" height="8.48503" fill="black"/>
<rect x="144.247" y="212.689" width="8.48503" height="8.48502" fill="black"/>
<rect x="152.73" y="51.4738" width="8.48503" height="8.48503" fill="black"/>
<rect x="152.73" y="212.689" width="8.48503" height="8.48502" fill="black"/>
<rect x="161.215" y="51.4738" width="8.48503" height="8.48503" fill="black"/>
<rect x="169.699" y="212.689" width="8.48502" height="8.48502" fill="black"/>
<rect x="169.699" y="59.9579" width="8.48502" height="8.48503" fill="black"/>
<rect x="178.184" y="59.9579" width="8.48503" height="8.48503" fill="black"/>
<rect x="50.9131" y="110.869" width="8.48503" height="8.48503" fill="black"/>
<rect x="50.9131" y="119.353" width="8.48503" height="8.48502" fill="black"/>
<rect x="50.9131" y="127.839" width="8.48503" height="8.48503" fill="black"/>
<rect x="50.9131" y="136.323" width="8.48503" height="8.48502" fill="black"/>
<rect x="50.9131" y="144.807" width="8.48503" height="8.48503" fill="black"/>
<rect x="50.9131" y="153.294" width="8.48503" height="8.48503" fill="black"/>
<rect x="50.9131" y="161.778" width="8.48503" height="8.48503" fill="black"/>
<rect x="59.3975" y="170.264" width="8.48503" height="8.48502" fill="black"/>
<rect x="59.3975" y="178.748" width="8.48503" height="8.48503" fill="black"/>
<rect x="67.8809" y="187.234" width="8.48503" height="8.48503" fill="black"/>
<rect x="76.3652" y="195.718" width="8.48503" height="8.48503" fill="black"/>
<rect x="84.8496" y="204.202" width="8.48502" height="8.48503" fill="black"/>
<rect x="178.184" y="204.202" width="8.48503" height="8.48503" fill="black"/>
<rect x="212.128" y="161.778" width="8.48502" height="8.48503" fill="black"/>
<rect x="203.644" y="178.748" width="8.48503" height="8.48503" fill="black"/>
<rect x="195.16" y="187.234" width="8.48503" height="8.48503" fill="black"/>
<rect x="186.667" y="195.718" width="8.48503" height="8.48503" fill="black"/>
<rect x="212.128" y="102.383" width="8.48502" height="8.48502" fill="black"/>
<rect x="212.128" y="110.869" width="8.48502" height="8.48503" fill="black"/>
<rect x="212.128" y="119.353" width="8.48502" height="8.48502" fill="black"/>
<rect x="212.128" y="127.839" width="8.48502" height="8.48503" fill="black"/>
<rect x="203.644" y="170.264" width="8.48503" height="8.48502" fill="black"/>
<rect x="212.128" y="127.839" width="8.48502" height="8.48503" fill="black"/>
<rect x="203.644" y="93.8984" width="8.48503" height="8.48503" fill="black"/>
<rect x="203.644" y="85.4122" width="8.48503" height="8.48502" fill="black"/>
<rect x="186.667" y="68.4419" width="8.48503" height="8.48503" fill="black"/>
<rect x="195.16" y="76.9282" width="8.48503" height="8.48503" fill="black"/>
<rect x="212.128" y="153.294" width="8.48502" height="8.48503" fill="black"/>
<rect x="212.128" y="144.807" width="8.48502" height="8.48503" fill="black"/>
<rect x="212.128" y="136.323" width="8.48502" height="8.48502" fill="black"/>
<rect x="84.8496" y="229.659" width="8.48502" height="8.48503" fill="black"/>
<rect x="93.334" y="221.173" width="8.48503" height="8.48503" fill="black"/>
<rect x="178.184" y="221.173" width="8.48503" height="8.48503" fill="black"/>
<rect x="186.667" y="221.173" width="8.48503" height="8.48503" fill="black"/>
<rect x="195.16" y="229.659" width="8.48503" height="8.48503" fill="black"/>
<rect x="203.644" y="229.659" width="8.48503" height="8.48503" fill="black"/>
<rect x="220.612" y="246.629" width="8.48503" height="8.48502" fill="black"/>
<rect x="229.097" y="255.113" width="8.48503" height="8.48503" fill="black"/>
<rect x="237.58" y="263.6" width="8.48503" height="8.48503" fill="black"/>
<rect x="212.128" y="238.143" width="8.48502" height="8.48503" fill="black"/>
<rect x="76.3652" y="229.659" width="8.48503" height="8.48503" fill="black"/>
<rect x="67.8809" y="238.143" width="8.48503" height="8.48503" fill="black"/>
<rect x="50.9131" y="246.629" width="8.48503" height="8.48502" fill="black"/>
<rect x="42.4287" y="255.113" width="8.48503" height="8.48503" fill="black"/>
<rect x="50.9131" y="246.629" width="8.48503" height="8.48502" fill="black"/>
<rect x="59.3975" y="238.143" width="8.48503" height="8.48503" fill="black"/>
<rect x="33.9365" y="263.6" width="8.48503" height="8.48503" fill="black"/>
<rect x="25.4521" y="263.6" width="8.48503" height="8.48503" fill="black"/>
</g>
<rect x="144.247" y="170.264" width="8.48503" height="8.48502" fill="black"/>
<rect x="161.215" y="170.264" width="8.48503" height="8.48502" fill="black"/>
<rect x="127.278" y="170.264" width="8.48503" height="8.48502" fill="black"/>
<rect x="169.699" y="161.778" width="8.48502" height="8.48503" fill="black"/>
<rect x="118.795" y="161.778" width="8.48502" height="8.48503" fill="black"/>
<rect x="135.763" y="161.778" width="8.48502" height="8.48503" fill="black"/>
<rect x="152.73" y="161.778" width="8.48503" height="8.48503" fill="black"/>
<rect x="118.795" y="127.839" width="8.48502" height="8.48503" fill="black"/>
<rect x="118.795" y="110.869" width="8.48502" height="8.48503" fill="black"/>
<rect x="110.302" y="127.839" width="8.48503" height="8.48503" fill="black"/>
<rect x="110.302" y="110.869" width="8.48503" height="8.48503" fill="black"/>
<rect x="127.278" y="127.839" width="8.48503" height="8.48503" fill="black"/>
<rect x="127.278" y="110.869" width="8.48503" height="8.48503" fill="black"/>
<rect x="118.795" y="119.353" width="8.48502" height="8.48502" fill="black"/>
<rect x="161.215" y="127.839" width="8.48503" height="8.48503" fill="black"/>
<rect x="161.215" y="110.869" width="8.48503" height="8.48503" fill="black"/>
<rect x="169.699" y="127.839" width="8.48502" height="8.48503" fill="black"/>
<rect x="169.699" y="110.869" width="8.48502" height="8.48503" fill="black"/>
<rect x="169.699" y="119.353" width="8.48502" height="8.48502" fill="black"/>
<rect x="178.184" y="127.839" width="8.48503" height="8.48503" fill="black"/>
<rect x="178.184" y="110.869" width="8.48503" height="8.48503" fill="black"/>
</g>
<defs>
<clipPath id="clip0_534_30574">
<rect y="0.562744" width="271.521" height="271.521" rx="104.671" fill="white"/>
</clipPath>
<clipPath id="clip1_534_30574">
<rect width="271.521" height="271.521" fill="white" transform="translate(0 0.562744)"/>
</clipPath>
</defs>
</svg>
