<svg width="272" height="273" viewBox="0 0 272 273" fill="none" xmlns="http://www.w3.org/2000/svg">
<g clip-path="url(#clip0_534_30562)">
<rect y="0.520996" width="271.521" height="271.521" rx="104.671" fill="white"/>
<rect width="271.521" height="271.521" transform="translate(0 0.520996)" fill="#BBDF4A"/>
<g clip-path="url(#clip1_534_30562)">
<rect x="50.9131" y="102.341" width="8.48503" height="8.48502" fill="black"/>
<rect x="59.3975" y="93.8567" width="8.48503" height="8.48503" fill="black"/>
<rect x="59.3975" y="85.3706" width="8.48503" height="8.48502" fill="black"/>
<rect x="67.8809" y="76.8865" width="8.48503" height="8.48503" fill="black"/>
<rect x="76.3652" y="68.4001" width="8.48503" height="8.48503" fill="black"/>
<rect x="84.8496" y="59.916" width="8.48502" height="8.48503" fill="black"/>
<rect x="93.334" y="59.916" width="8.48503" height="8.48503" fill="black"/>
<rect x="101.817" y="51.4319" width="8.48502" height="8.48503" fill="black"/>
<rect x="93.334" y="212.647" width="8.48503" height="8.48502" fill="black"/>
<rect x="110.302" y="51.4319" width="8.48503" height="8.48503" fill="black"/>
<rect x="118.795" y="51.4319" width="8.48502" height="8.48503" fill="black"/>
<rect x="127.278" y="51.4319" width="8.48503" height="8.48503" fill="black"/>
<rect x="135.763" y="51.4319" width="8.48502" height="8.48503" fill="black"/>
<rect x="135.763" y="212.647" width="8.48502" height="8.48502" fill="black"/>
<rect x="144.247" y="51.4319" width="8.48503" height="8.48503" fill="black"/>
<rect x="144.247" y="212.647" width="8.48503" height="8.48502" fill="black"/>
<rect x="152.73" y="51.4319" width="8.48503" height="8.48503" fill="black"/>
<rect x="152.73" y="212.647" width="8.48503" height="8.48502" fill="black"/>
<rect x="161.215" y="51.4319" width="8.48503" height="8.48503" fill="black"/>
<rect x="169.699" y="212.647" width="8.48502" height="8.48502" fill="black"/>
<rect x="169.699" y="59.916" width="8.48502" height="8.48503" fill="black"/>
<rect x="178.184" y="59.916" width="8.48503" height="8.48503" fill="black"/>
<rect x="50.9131" y="110.827" width="8.48503" height="8.48503" fill="black"/>
<rect x="50.9131" y="119.311" width="8.48503" height="8.48502" fill="black"/>
<rect x="50.9131" y="127.797" width="8.48503" height="8.48503" fill="black"/>
<rect x="50.9131" y="136.281" width="8.48503" height="8.48502" fill="black"/>
<rect x="50.9131" y="144.766" width="8.48503" height="8.48503" fill="black"/>
<rect x="50.9131" y="153.252" width="8.48503" height="8.48503" fill="black"/>
<rect x="50.9131" y="161.736" width="8.48503" height="8.48503" fill="black"/>
<rect x="59.3975" y="170.222" width="8.48503" height="8.48502" fill="black"/>
<rect x="59.3975" y="178.706" width="8.48503" height="8.48503" fill="black"/>
<rect x="67.8809" y="187.192" width="8.48503" height="8.48503" fill="black"/>
<rect x="76.3652" y="195.677" width="8.48503" height="8.48503" fill="black"/>
<rect x="84.8496" y="204.161" width="8.48502" height="8.48503" fill="black"/>
<rect x="178.184" y="204.161" width="8.48503" height="8.48503" fill="black"/>
<rect x="212.128" y="161.736" width="8.48502" height="8.48503" fill="black"/>
<rect x="203.644" y="178.706" width="8.48503" height="8.48503" fill="black"/>
<rect x="195.16" y="187.192" width="8.48503" height="8.48503" fill="black"/>
<rect x="186.667" y="195.677" width="8.48503" height="8.48503" fill="black"/>
<rect x="212.128" y="102.341" width="8.48502" height="8.48502" fill="black"/>
<rect x="212.128" y="110.827" width="8.48502" height="8.48503" fill="black"/>
<rect x="212.128" y="119.311" width="8.48502" height="8.48502" fill="black"/>
<rect x="212.128" y="127.797" width="8.48502" height="8.48503" fill="black"/>
<rect x="203.644" y="170.222" width="8.48503" height="8.48502" fill="black"/>
<rect x="212.128" y="127.797" width="8.48502" height="8.48503" fill="black"/>
<rect x="203.644" y="93.8567" width="8.48503" height="8.48503" fill="black"/>
<rect x="203.644" y="85.3706" width="8.48503" height="8.48502" fill="black"/>
<rect x="186.667" y="68.4001" width="8.48503" height="8.48503" fill="black"/>
<rect x="195.16" y="76.8865" width="8.48503" height="8.48503" fill="black"/>
<rect x="212.128" y="153.252" width="8.48502" height="8.48503" fill="black"/>
<rect x="212.128" y="144.766" width="8.48502" height="8.48503" fill="black"/>
<rect x="212.128" y="136.281" width="8.48502" height="8.48502" fill="black"/>
<rect x="84.8496" y="229.617" width="8.48502" height="8.48503" fill="black"/>
<rect x="93.334" y="221.131" width="8.48503" height="8.48503" fill="black"/>
<rect x="178.184" y="221.131" width="8.48503" height="8.48503" fill="black"/>
<rect x="186.667" y="221.131" width="8.48503" height="8.48503" fill="black"/>
<rect x="195.16" y="229.617" width="8.48503" height="8.48503" fill="black"/>
<rect x="203.644" y="229.617" width="8.48503" height="8.48503" fill="black"/>
<rect x="220.612" y="246.588" width="8.48503" height="8.48502" fill="black"/>
<rect x="229.097" y="255.072" width="8.48503" height="8.48503" fill="black"/>
<rect x="237.58" y="263.558" width="8.48503" height="8.48503" fill="black"/>
<rect x="212.128" y="238.101" width="8.48502" height="8.48503" fill="black"/>
<rect x="76.3652" y="229.617" width="8.48503" height="8.48503" fill="black"/>
<rect x="67.8809" y="238.101" width="8.48503" height="8.48503" fill="black"/>
<rect x="50.9131" y="246.588" width="8.48503" height="8.48502" fill="black"/>
<rect x="42.4287" y="255.072" width="8.48503" height="8.48503" fill="black"/>
<rect x="50.9131" y="246.588" width="8.48503" height="8.48502" fill="black"/>
<rect x="59.3975" y="238.101" width="8.48503" height="8.48503" fill="black"/>
<rect x="33.9365" y="263.558" width="8.48503" height="8.48503" fill="black"/>
<rect x="25.4521" y="263.558" width="8.48503" height="8.48503" fill="black"/>
</g>
<g clip-path="url(#clip2_534_30562)">
<rect x="118.795" y="42.9458" width="8.48502" height="8.48503" fill="black"/>
<rect x="127.278" y="34.4617" width="8.48503" height="8.48503" fill="black"/>
<rect x="118.795" y="25.9753" width="8.48502" height="8.48503" fill="black"/>
<rect x="93.334" y="42.9458" width="8.48503" height="8.48503" fill="black"/>
<rect x="84.8496" y="42.9458" width="8.48502" height="8.48503" fill="black"/>
<rect x="76.3652" y="34.4617" width="8.48503" height="8.48503" fill="black"/>
<rect x="84.8496" y="25.9753" width="8.48502" height="8.48503" fill="black"/>
<rect x="67.8809" y="59.916" width="8.48503" height="8.48503" fill="black"/>
<rect x="50.9131" y="76.8865" width="8.48503" height="8.48503" fill="black"/>
<rect x="42.4287" y="110.827" width="8.48503" height="8.48503" fill="black"/>
<rect x="42.4287" y="136.281" width="8.48503" height="8.48502" fill="black"/>
<rect x="42.4287" y="170.222" width="8.48503" height="8.48502" fill="black"/>
<rect x="33.9365" y="102.341" width="8.48503" height="8.48502" fill="black"/>
<rect x="33.9365" y="127.797" width="8.48503" height="8.48503" fill="black"/>
<rect x="33.9365" y="170.222" width="8.48503" height="8.48502" fill="black"/>
<rect x="25.4521" y="102.341" width="8.48503" height="8.48502" fill="black"/>
<rect x="16.9678" y="110.827" width="8.48503" height="8.48503" fill="black"/>
<rect x="25.4521" y="136.281" width="8.48503" height="8.48502" fill="black"/>
<rect x="25.4521" y="178.706" width="8.48503" height="8.48503" fill="black"/>
<rect x="16.9678" y="144.766" width="8.48503" height="8.48503" fill="black"/>
<rect x="33.9365" y="187.192" width="8.48503" height="8.48503" fill="black"/>
<rect x="59.3975" y="195.677" width="8.48503" height="8.48503" fill="black"/>
<rect x="50.9131" y="204.161" width="8.48503" height="8.48503" fill="black"/>
<rect x="76.3652" y="212.647" width="8.48503" height="8.48502" fill="black"/>
<rect x="110.302" y="246.588" width="8.48503" height="8.48502" fill="black"/>
<rect x="101.817" y="255.072" width="8.48502" height="8.48503" fill="black"/>
<rect x="110.302" y="263.558" width="8.48503" height="8.48503" fill="black"/>
<rect x="67.8809" y="263.558" width="8.48503" height="8.48503" fill="black"/>
<rect x="76.3652" y="255.072" width="8.48503" height="8.48503" fill="black"/>
<rect x="178.184" y="246.588" width="8.48503" height="8.48502" fill="black"/>
<rect x="144.247" y="246.588" width="8.48503" height="8.48502" fill="black"/>
<rect x="186.667" y="246.588" width="8.48503" height="8.48502" fill="black"/>
<rect x="144.247" y="255.072" width="8.48503" height="8.48503" fill="black"/>
<rect x="195.16" y="255.072" width="8.48503" height="8.48503" fill="black"/>
<rect x="212.128" y="263.558" width="8.48502" height="8.48503" fill="black"/>
<rect x="135.763" y="263.558" width="8.48502" height="8.48503" fill="black"/>
<rect x="186.667" y="263.558" width="8.48503" height="8.48503" fill="black"/>
<rect x="42.4287" y="76.8865" width="8.48503" height="8.48503" fill="black"/>
<rect x="33.9365" y="68.4001" width="8.48503" height="8.48503" fill="black"/>
<rect x="59.3975" y="51.4319" width="8.48503" height="8.48503" fill="black"/>
<rect x="50.9131" y="51.4319" width="8.48503" height="8.48503" fill="black"/>
<rect x="152.73" y="42.9458" width="8.48503" height="8.48503" fill="black"/>
<rect x="152.73" y="34.4617" width="8.48503" height="8.48503" fill="black"/>
<rect x="161.215" y="25.9753" width="8.48503" height="8.48503" fill="black"/>
<rect x="186.667" y="51.4319" width="8.48503" height="8.48503" fill="black"/>
<rect x="203.644" y="68.4001" width="8.48503" height="8.48503" fill="black"/>
<rect x="212.128" y="59.916" width="8.48502" height="8.48503" fill="black"/>
<rect x="220.612" y="59.916" width="8.48503" height="8.48503" fill="black"/>
<rect x="220.612" y="93.8567" width="8.48503" height="8.48503" fill="black"/>
<rect x="220.612" y="119.311" width="8.48503" height="8.48502" fill="black"/>
<rect x="229.097" y="127.797" width="8.48503" height="8.48503" fill="black"/>
<rect x="237.58" y="119.311" width="8.48503" height="8.48502" fill="black"/>
<rect x="237.58" y="110.827" width="8.48503" height="8.48503" fill="black"/>
<rect x="220.612" y="144.766" width="8.48503" height="8.48503" fill="black"/>
<rect x="229.097" y="153.252" width="8.48503" height="8.48503" fill="black"/>
<rect x="212.128" y="187.192" width="8.48502" height="8.48503" fill="black"/>
<rect x="220.612" y="187.192" width="8.48503" height="8.48503" fill="black"/>
<rect x="229.097" y="178.706" width="8.48503" height="8.48503" fill="black"/>
<rect x="229.097" y="221.131" width="8.48503" height="8.48503" fill="black"/>
<rect x="33.9365" y="246.588" width="8.48503" height="8.48502" fill="black"/>
<rect x="16.9678" y="238.101" width="8.48503" height="8.48503" fill="black"/>
<rect x="25.4521" y="246.588" width="8.48503" height="8.48502" fill="black"/>
<rect x="50.9131" y="229.617" width="8.48503" height="8.48503" fill="black"/>
<rect x="220.612" y="229.617" width="8.48503" height="8.48503" fill="black"/>
<rect x="237.58" y="246.588" width="8.48503" height="8.48502" fill="black"/>
<rect x="195.16" y="204.161" width="8.48503" height="8.48503" fill="black"/>
<rect x="203.644" y="204.161" width="8.48503" height="8.48503" fill="black"/>
<rect x="237.58" y="153.252" width="8.48503" height="8.48503" fill="black"/>
<rect x="229.097" y="85.3706" width="8.48503" height="8.48502" fill="black"/>
<rect x="229.097" y="76.8865" width="8.48503" height="8.48503" fill="black"/>
<rect x="195.16" y="42.9458" width="8.48503" height="8.48503" fill="black"/>
<rect x="195.16" y="34.4617" width="8.48503" height="8.48503" fill="black"/>
</g>
<rect x="84.8496" y="144.766" width="8.48502" height="8.48503" fill="black"/>
<rect x="169.699" y="170.222" width="8.48502" height="8.48502" fill="black"/>
<rect x="118.795" y="170.222" width="8.48502" height="8.48502" fill="black"/>
<rect x="110.302" y="170.222" width="8.48503" height="8.48502" fill="black"/>
<rect x="110.302" y="178.706" width="8.48503" height="8.48503" fill="black"/>
<rect x="110.302" y="161.736" width="8.48503" height="8.48503" fill="black"/>
<rect x="135.763" y="170.222" width="8.48502" height="8.48502" fill="black"/>
<rect x="127.278" y="170.222" width="8.48503" height="8.48502" fill="black"/>
<rect x="127.278" y="178.706" width="8.48503" height="8.48503" fill="black"/>
<rect x="127.278" y="161.736" width="8.48503" height="8.48503" fill="black"/>
<rect x="144.247" y="170.222" width="8.48503" height="8.48502" fill="black"/>
<rect x="144.247" y="178.706" width="8.48503" height="8.48503" fill="black"/>
<rect x="144.247" y="161.736" width="8.48503" height="8.48503" fill="black"/>
<rect x="161.215" y="178.706" width="8.48503" height="8.48503" fill="black"/>
<rect x="161.215" y="161.736" width="8.48503" height="8.48503" fill="black"/>
<rect x="178.184" y="178.706" width="8.48503" height="8.48503" fill="black"/>
<rect x="178.184" y="161.736" width="8.48503" height="8.48503" fill="black"/>
<rect x="152.73" y="170.222" width="8.48503" height="8.48502" fill="black"/>
<rect x="161.215" y="170.222" width="8.48503" height="8.48502" fill="black"/>
<rect x="178.184" y="170.222" width="8.48503" height="8.48502" fill="black"/>
<rect x="127.278" y="119.311" width="8.48503" height="8.48502" fill="black"/>
<rect x="135.763" y="127.797" width="8.48502" height="8.48503" fill="black"/>
<rect x="144.247" y="127.797" width="8.48503" height="8.48503" fill="black"/>
<rect x="152.73" y="127.797" width="8.48503" height="8.48503" fill="black"/>
<rect x="135.763" y="110.827" width="8.48502" height="8.48503" fill="black"/>
<rect x="144.247" y="110.827" width="8.48503" height="8.48503" fill="black"/>
<rect x="144.247" y="119.311" width="8.48503" height="8.48502" fill="black"/>
<rect x="152.73" y="110.827" width="8.48503" height="8.48503" fill="black"/>
<rect x="118.795" y="127.797" width="8.48502" height="8.48503" fill="black"/>
<rect x="110.302" y="127.797" width="8.48503" height="8.48503" fill="black"/>
<rect x="110.302" y="119.311" width="8.48503" height="8.48502" fill="black"/>
<rect x="110.302" y="110.827" width="8.48503" height="8.48503" fill="black"/>
<rect x="161.215" y="119.311" width="8.48503" height="8.48502" fill="black"/>
<rect x="110.302" y="110.827" width="8.48503" height="8.48503" fill="black"/>
<rect x="101.817" y="110.827" width="8.48502" height="8.48503" fill="black"/>
<rect x="93.334" y="119.311" width="8.48503" height="8.48502" fill="black"/>
<rect x="101.817" y="127.797" width="8.48502" height="8.48503" fill="black"/>
<rect x="110.302" y="127.797" width="8.48503" height="8.48503" fill="black"/>
<rect x="118.795" y="110.827" width="8.48502" height="8.48503" fill="black"/>
<rect x="178.184" y="110.827" width="8.48503" height="8.48503" fill="black"/>
<rect x="178.184" y="110.827" width="8.48503" height="8.48503" fill="black"/>
<rect x="178.184" y="119.311" width="8.48503" height="8.48502" fill="black"/>
<rect x="178.184" y="127.797" width="8.48503" height="8.48503" fill="black"/>
<rect x="169.699" y="110.827" width="8.48502" height="8.48503" fill="black"/>
<rect x="186.667" y="110.827" width="8.48503" height="8.48503" fill="black"/>
<rect x="195.16" y="119.311" width="8.48503" height="8.48502" fill="black"/>
<rect x="186.667" y="127.797" width="8.48503" height="8.48503" fill="black"/>
<rect x="178.184" y="127.797" width="8.48503" height="8.48503" fill="black"/>
<rect x="169.699" y="127.797" width="8.48502" height="8.48503" fill="black"/>
</g>
<defs>
<clipPath id="clip0_534_30562">
<rect y="0.520996" width="271.521" height="271.521" rx="104.671" fill="white"/>
</clipPath>
<clipPath id="clip1_534_30562">
<rect width="271.521" height="271.521" fill="white" transform="translate(0 0.520996)"/>
</clipPath>
<clipPath id="clip2_534_30562">
<rect width="271.521" height="271.521" fill="white" transform="translate(0 0.520996)"/>
</clipPath>
</defs>
</svg>
