<svg width="273" height="272" viewBox="0 0 273 272" fill="none" xmlns="http://www.w3.org/2000/svg">
<g clip-path="url(#clip0_534_30561)">
<rect x="0.5625" width="271.521" height="271.521" rx="104.671" fill="white"/>
<rect width="271.521" height="271.521" transform="translate(0.5625)" fill="#E6BDAD"/>
<g clip-path="url(#clip1_534_30561)">
<rect x="51.4756" y="101.82" width="8.48503" height="8.48502" fill="black"/>
<rect x="59.96" y="93.3357" width="8.48503" height="8.48503" fill="black"/>
<rect x="59.96" y="84.8496" width="8.48503" height="8.48502" fill="black"/>
<rect x="68.4434" y="76.3655" width="8.48503" height="8.48503" fill="black"/>
<rect x="76.9277" y="67.8792" width="8.48503" height="8.48503" fill="black"/>
<rect x="85.4121" y="59.395" width="8.48502" height="8.48503" fill="black"/>
<rect x="93.8965" y="59.395" width="8.48503" height="8.48503" fill="black"/>
<rect x="102.38" y="50.9109" width="8.48502" height="8.48503" fill="black"/>
<rect x="93.8965" y="212.126" width="8.48503" height="8.48502" fill="black"/>
<rect x="110.864" y="50.9109" width="8.48503" height="8.48503" fill="black"/>
<rect x="119.357" y="50.9109" width="8.48502" height="8.48503" fill="black"/>
<rect x="127.841" y="50.9109" width="8.48503" height="8.48503" fill="black"/>
<rect x="136.325" y="50.9109" width="8.48502" height="8.48503" fill="black"/>
<rect x="136.325" y="212.126" width="8.48502" height="8.48502" fill="black"/>
<rect x="144.81" y="50.9109" width="8.48503" height="8.48503" fill="black"/>
<rect x="144.81" y="212.126" width="8.48503" height="8.48502" fill="black"/>
<rect x="153.293" y="50.9109" width="8.48503" height="8.48503" fill="black"/>
<rect x="153.293" y="212.126" width="8.48503" height="8.48502" fill="black"/>
<rect x="161.777" y="50.9109" width="8.48503" height="8.48503" fill="black"/>
<rect x="170.262" y="212.126" width="8.48502" height="8.48502" fill="black"/>
<rect x="170.262" y="59.395" width="8.48502" height="8.48503" fill="black"/>
<rect x="178.746" y="59.395" width="8.48503" height="8.48503" fill="black"/>
<rect x="51.4756" y="110.306" width="8.48503" height="8.48503" fill="black"/>
<rect x="51.4756" y="118.79" width="8.48503" height="8.48502" fill="black"/>
<rect x="51.4756" y="127.276" width="8.48503" height="8.48503" fill="black"/>
<rect x="51.4756" y="135.76" width="8.48503" height="8.48502" fill="black"/>
<rect x="51.4756" y="144.245" width="8.48503" height="8.48503" fill="black"/>
<rect x="51.4756" y="152.731" width="8.48503" height="8.48503" fill="black"/>
<rect x="51.4756" y="161.215" width="8.48503" height="8.48503" fill="black"/>
<rect x="59.96" y="169.701" width="8.48503" height="8.48502" fill="black"/>
<rect x="59.96" y="178.185" width="8.48503" height="8.48503" fill="black"/>
<rect x="68.4434" y="186.671" width="8.48503" height="8.48503" fill="black"/>
<rect x="76.9277" y="195.156" width="8.48503" height="8.48503" fill="black"/>
<rect x="85.4121" y="203.64" width="8.48502" height="8.48503" fill="black"/>
<rect x="178.746" y="203.64" width="8.48503" height="8.48503" fill="black"/>
<rect x="212.69" y="161.215" width="8.48502" height="8.48503" fill="black"/>
<rect x="204.206" y="178.185" width="8.48503" height="8.48503" fill="black"/>
<rect x="195.723" y="186.671" width="8.48503" height="8.48503" fill="black"/>
<rect x="187.229" y="195.156" width="8.48503" height="8.48503" fill="black"/>
<rect x="212.69" y="101.82" width="8.48502" height="8.48502" fill="black"/>
<rect x="212.69" y="110.306" width="8.48502" height="8.48503" fill="black"/>
<rect x="212.69" y="118.79" width="8.48502" height="8.48502" fill="black"/>
<rect x="212.69" y="127.276" width="8.48502" height="8.48503" fill="black"/>
<rect x="204.206" y="169.701" width="8.48503" height="8.48502" fill="black"/>
<rect x="212.69" y="127.276" width="8.48502" height="8.48503" fill="black"/>
<rect x="204.206" y="93.3357" width="8.48503" height="8.48503" fill="black"/>
<rect x="204.206" y="84.8496" width="8.48503" height="8.48502" fill="black"/>
<rect x="187.229" y="67.8792" width="8.48503" height="8.48503" fill="black"/>
<rect x="195.723" y="76.3655" width="8.48503" height="8.48503" fill="black"/>
<rect x="212.69" y="152.731" width="8.48502" height="8.48503" fill="black"/>
<rect x="212.69" y="144.245" width="8.48502" height="8.48503" fill="black"/>
<rect x="212.69" y="135.76" width="8.48502" height="8.48502" fill="black"/>
<rect x="85.4121" y="229.096" width="8.48502" height="8.48503" fill="black"/>
<rect x="93.8965" y="220.61" width="8.48503" height="8.48503" fill="black"/>
<rect x="178.746" y="220.61" width="8.48503" height="8.48503" fill="black"/>
<rect x="187.229" y="220.61" width="8.48503" height="8.48503" fill="black"/>
<rect x="195.723" y="229.096" width="8.48503" height="8.48503" fill="black"/>
<rect x="204.206" y="229.096" width="8.48503" height="8.48503" fill="black"/>
<rect x="221.175" y="246.067" width="8.48503" height="8.48502" fill="black"/>
<rect x="229.659" y="254.551" width="8.48503" height="8.48503" fill="black"/>
<rect x="238.143" y="263.037" width="8.48503" height="8.48503" fill="black"/>
<rect x="212.69" y="237.58" width="8.48502" height="8.48503" fill="black"/>
<rect x="76.9277" y="229.096" width="8.48503" height="8.48503" fill="black"/>
<rect x="68.4434" y="237.58" width="8.48503" height="8.48503" fill="black"/>
<rect x="51.4756" y="246.067" width="8.48503" height="8.48502" fill="black"/>
<rect x="42.9912" y="254.551" width="8.48503" height="8.48503" fill="black"/>
<rect x="51.4756" y="246.067" width="8.48503" height="8.48502" fill="black"/>
<rect x="59.96" y="237.58" width="8.48503" height="8.48503" fill="black"/>
<rect x="34.499" y="263.037" width="8.48503" height="8.48503" fill="black"/>
<rect x="26.0146" y="263.037" width="8.48503" height="8.48503" fill="black"/>
</g>
<rect x="144.81" y="169.701" width="8.48503" height="8.48502" fill="black"/>
<rect x="161.777" y="169.701" width="8.48503" height="8.48502" fill="black"/>
<rect x="127.841" y="169.701" width="8.48503" height="8.48502" fill="black"/>
<rect x="170.262" y="161.215" width="8.48502" height="8.48503" fill="black"/>
<rect x="119.357" y="161.215" width="8.48502" height="8.48503" fill="black"/>
<rect x="136.325" y="161.215" width="8.48502" height="8.48503" fill="black"/>
<rect x="153.293" y="161.215" width="8.48503" height="8.48503" fill="black"/>
<rect x="127.841" y="118.79" width="8.48503" height="8.48502" fill="black"/>
<rect x="119.357" y="135.76" width="8.48502" height="8.48502" fill="black"/>
<rect x="127.841" y="127.276" width="8.48503" height="8.48503" fill="black"/>
<rect x="110.864" y="118.79" width="8.48503" height="8.48502" fill="black"/>
<rect x="110.864" y="110.306" width="8.48503" height="8.48503" fill="black"/>
<rect x="110.864" y="127.276" width="8.48503" height="8.48503" fill="black"/>
<rect x="161.777" y="118.79" width="8.48503" height="8.48502" fill="black"/>
<rect x="127.841" y="110.306" width="8.48503" height="8.48503" fill="black"/>
<rect x="110.864" y="101.82" width="8.48503" height="8.48502" fill="black"/>
<rect x="102.38" y="101.82" width="8.48502" height="8.48502" fill="black"/>
<rect x="93.8965" y="110.306" width="8.48503" height="8.48503" fill="black"/>
<rect x="93.8965" y="118.79" width="8.48503" height="8.48502" fill="black"/>
<rect x="93.8965" y="127.276" width="8.48503" height="8.48503" fill="black"/>
<rect x="102.38" y="135.76" width="8.48502" height="8.48502" fill="black"/>
<rect x="110.864" y="135.76" width="8.48503" height="8.48502" fill="black"/>
<rect x="119.357" y="101.82" width="8.48502" height="8.48502" fill="black"/>
<rect x="161.777" y="110.306" width="8.48503" height="8.48503" fill="black"/>
<rect x="178.746" y="101.82" width="8.48503" height="8.48502" fill="black"/>
<rect x="178.746" y="118.79" width="8.48503" height="8.48502" fill="black"/>
<rect x="178.746" y="110.306" width="8.48503" height="8.48503" fill="black"/>
<rect x="178.746" y="127.276" width="8.48503" height="8.48503" fill="black"/>
<rect x="170.262" y="101.82" width="8.48502" height="8.48502" fill="black"/>
<rect x="187.229" y="101.82" width="8.48503" height="8.48502" fill="black"/>
<rect x="195.723" y="110.306" width="8.48503" height="8.48503" fill="black"/>
<rect x="195.723" y="118.79" width="8.48503" height="8.48502" fill="black"/>
<rect x="195.723" y="127.276" width="8.48503" height="8.48503" fill="black"/>
<rect x="187.229" y="135.76" width="8.48503" height="8.48502" fill="black"/>
<rect x="178.746" y="135.76" width="8.48503" height="8.48502" fill="black"/>
<rect x="170.262" y="135.76" width="8.48502" height="8.48502" fill="black"/>
<rect x="161.777" y="127.276" width="8.48503" height="8.48503" fill="black"/>
</g>
<defs>
<clipPath id="clip0_534_30561">
<rect x="0.5625" width="271.521" height="271.521" rx="104.671" fill="white"/>
</clipPath>
<clipPath id="clip1_534_30561">
<rect width="271.521" height="271.521" fill="white" transform="translate(0.5625)"/>
</clipPath>
</defs>
</svg>
