<svg width="273" height="273" viewBox="0 0 273 273" fill="none" xmlns="http://www.w3.org/2000/svg">
<g clip-path="url(#clip0_534_30559)">
<rect x="0.520508" y="0.520996" width="271.521" height="271.521" rx="104.671" fill="white"/>
<rect width="271.521" height="271.521" transform="translate(0.520508 0.520996)" fill="#8DED95"/>
<g clip-path="url(#clip1_534_30559)">
<rect x="51.4336" y="102.341" width="8.48503" height="8.48502" fill="black"/>
<rect x="59.918" y="93.8567" width="8.48503" height="8.48503" fill="black"/>
<rect x="59.918" y="85.3706" width="8.48503" height="8.48502" fill="black"/>
<rect x="68.4014" y="76.8865" width="8.48503" height="8.48503" fill="black"/>
<rect x="76.8857" y="68.4001" width="8.48503" height="8.48503" fill="black"/>
<rect x="85.3701" y="59.916" width="8.48502" height="8.48503" fill="black"/>
<rect x="93.8545" y="59.916" width="8.48503" height="8.48503" fill="black"/>
<rect x="102.338" y="51.4319" width="8.48502" height="8.48503" fill="black"/>
<rect x="93.8545" y="212.647" width="8.48503" height="8.48502" fill="black"/>
<rect x="110.822" y="51.4319" width="8.48503" height="8.48503" fill="black"/>
<rect x="119.315" y="51.4319" width="8.48502" height="8.48503" fill="black"/>
<rect x="127.799" y="51.4319" width="8.48503" height="8.48503" fill="black"/>
<rect x="136.283" y="51.4319" width="8.48502" height="8.48503" fill="black"/>
<rect x="136.283" y="212.647" width="8.48502" height="8.48502" fill="black"/>
<rect x="144.768" y="51.4319" width="8.48503" height="8.48503" fill="black"/>
<rect x="144.768" y="212.647" width="8.48503" height="8.48502" fill="black"/>
<rect x="153.251" y="51.4319" width="8.48503" height="8.48503" fill="black"/>
<rect x="153.251" y="212.647" width="8.48503" height="8.48502" fill="black"/>
<rect x="161.735" y="51.4319" width="8.48503" height="8.48503" fill="black"/>
<rect x="170.22" y="212.647" width="8.48502" height="8.48502" fill="black"/>
<rect x="170.22" y="59.916" width="8.48502" height="8.48503" fill="black"/>
<rect x="178.704" y="59.916" width="8.48503" height="8.48503" fill="black"/>
<rect x="51.4336" y="110.827" width="8.48503" height="8.48503" fill="black"/>
<rect x="51.4336" y="119.311" width="8.48503" height="8.48502" fill="black"/>
<rect x="51.4336" y="127.797" width="8.48503" height="8.48503" fill="black"/>
<rect x="51.4336" y="136.281" width="8.48503" height="8.48502" fill="black"/>
<rect x="51.4336" y="144.766" width="8.48503" height="8.48503" fill="black"/>
<rect x="51.4336" y="153.252" width="8.48503" height="8.48503" fill="black"/>
<rect x="51.4336" y="161.736" width="8.48503" height="8.48503" fill="black"/>
<rect x="59.918" y="170.222" width="8.48503" height="8.48502" fill="black"/>
<rect x="59.918" y="178.706" width="8.48503" height="8.48503" fill="black"/>
<rect x="68.4014" y="187.192" width="8.48503" height="8.48503" fill="black"/>
<rect x="76.8857" y="195.677" width="8.48503" height="8.48503" fill="black"/>
<rect x="85.3701" y="204.161" width="8.48502" height="8.48503" fill="black"/>
<rect x="178.704" y="204.161" width="8.48503" height="8.48503" fill="black"/>
<rect x="212.648" y="161.736" width="8.48502" height="8.48503" fill="black"/>
<rect x="204.164" y="178.706" width="8.48503" height="8.48503" fill="black"/>
<rect x="195.681" y="187.192" width="8.48503" height="8.48503" fill="black"/>
<rect x="187.188" y="195.677" width="8.48503" height="8.48503" fill="black"/>
<rect x="212.648" y="102.341" width="8.48502" height="8.48502" fill="black"/>
<rect x="212.648" y="110.827" width="8.48502" height="8.48503" fill="black"/>
<rect x="212.648" y="119.311" width="8.48502" height="8.48502" fill="black"/>
<rect x="212.648" y="127.797" width="8.48502" height="8.48503" fill="black"/>
<rect x="204.164" y="170.222" width="8.48503" height="8.48502" fill="black"/>
<rect x="212.648" y="127.797" width="8.48502" height="8.48503" fill="black"/>
<rect x="204.164" y="93.8567" width="8.48503" height="8.48503" fill="black"/>
<rect x="204.164" y="85.3706" width="8.48503" height="8.48502" fill="black"/>
<rect x="187.188" y="68.4001" width="8.48503" height="8.48503" fill="black"/>
<rect x="195.681" y="76.8865" width="8.48503" height="8.48503" fill="black"/>
<rect x="212.648" y="153.252" width="8.48502" height="8.48503" fill="black"/>
<rect x="212.648" y="144.766" width="8.48502" height="8.48503" fill="black"/>
<rect x="212.648" y="136.281" width="8.48502" height="8.48502" fill="black"/>
<rect x="85.3701" y="229.617" width="8.48502" height="8.48503" fill="black"/>
<rect x="93.8545" y="221.131" width="8.48503" height="8.48503" fill="black"/>
<rect x="178.704" y="221.131" width="8.48503" height="8.48503" fill="black"/>
<rect x="187.188" y="221.131" width="8.48503" height="8.48503" fill="black"/>
<rect x="195.681" y="229.617" width="8.48503" height="8.48503" fill="black"/>
<rect x="204.164" y="229.617" width="8.48503" height="8.48503" fill="black"/>
<rect x="221.133" y="246.588" width="8.48503" height="8.48502" fill="black"/>
<rect x="229.617" y="255.072" width="8.48503" height="8.48503" fill="black"/>
<rect x="238.101" y="263.558" width="8.48503" height="8.48503" fill="black"/>
<rect x="212.648" y="238.101" width="8.48502" height="8.48503" fill="black"/>
<rect x="76.8857" y="229.617" width="8.48503" height="8.48503" fill="black"/>
<rect x="68.4014" y="238.101" width="8.48503" height="8.48503" fill="black"/>
<rect x="51.4336" y="246.588" width="8.48503" height="8.48502" fill="black"/>
<rect x="42.9492" y="255.072" width="8.48503" height="8.48503" fill="black"/>
<rect x="51.4336" y="246.588" width="8.48503" height="8.48502" fill="black"/>
<rect x="59.918" y="238.101" width="8.48503" height="8.48503" fill="black"/>
<rect x="34.457" y="263.558" width="8.48503" height="8.48503" fill="black"/>
<rect x="25.9727" y="263.558" width="8.48503" height="8.48503" fill="black"/>
</g>
<rect x="144.768" y="161.736" width="8.48503" height="8.48503" fill="black"/>
<rect x="161.735" y="170.222" width="8.48503" height="8.48502" fill="black"/>
<rect x="127.799" y="170.222" width="8.48503" height="8.48502" fill="black"/>
<rect x="170.22" y="161.736" width="8.48502" height="8.48503" fill="black"/>
<rect x="136.283" y="161.736" width="8.48502" height="8.48503" fill="black"/>
<rect x="153.251" y="161.736" width="8.48503" height="8.48503" fill="black"/>
<rect x="119.315" y="161.736" width="8.48502" height="8.48503" fill="black"/>
<rect x="127.799" y="119.311" width="8.48503" height="8.48502" fill="black"/>
<rect x="136.283" y="127.797" width="8.48502" height="8.48503" fill="black"/>
<rect x="144.768" y="127.797" width="8.48503" height="8.48503" fill="black"/>
<rect x="153.251" y="127.797" width="8.48503" height="8.48503" fill="black"/>
<rect x="136.283" y="110.827" width="8.48502" height="8.48503" fill="black"/>
<rect x="144.768" y="110.827" width="8.48503" height="8.48503" fill="black"/>
<rect x="144.768" y="119.311" width="8.48503" height="8.48502" fill="black"/>
<rect x="153.251" y="110.827" width="8.48503" height="8.48503" fill="black"/>
<rect x="119.315" y="127.797" width="8.48502" height="8.48503" fill="black"/>
<rect x="110.822" y="127.797" width="8.48503" height="8.48503" fill="black"/>
<rect x="110.822" y="119.311" width="8.48503" height="8.48502" fill="black"/>
<rect x="110.822" y="110.827" width="8.48503" height="8.48503" fill="black"/>
<rect x="161.735" y="119.311" width="8.48503" height="8.48502" fill="black"/>
<rect x="110.822" y="110.827" width="8.48503" height="8.48503" fill="black"/>
<rect x="102.338" y="110.827" width="8.48502" height="8.48503" fill="black"/>
<rect x="93.8545" y="119.311" width="8.48503" height="8.48502" fill="black"/>
<rect x="102.338" y="127.797" width="8.48502" height="8.48503" fill="black"/>
<rect x="110.822" y="127.797" width="8.48503" height="8.48503" fill="black"/>
<rect x="119.315" y="110.827" width="8.48502" height="8.48503" fill="black"/>
<rect x="178.704" y="110.827" width="8.48503" height="8.48503" fill="black"/>
<rect x="178.704" y="110.827" width="8.48503" height="8.48503" fill="black"/>
<rect x="178.704" y="119.311" width="8.48503" height="8.48502" fill="black"/>
<rect x="178.704" y="127.797" width="8.48503" height="8.48503" fill="black"/>
<rect x="170.22" y="110.827" width="8.48502" height="8.48503" fill="black"/>
<rect x="187.188" y="110.827" width="8.48503" height="8.48503" fill="black"/>
<rect x="195.681" y="119.311" width="8.48503" height="8.48502" fill="black"/>
<rect x="187.188" y="127.797" width="8.48503" height="8.48503" fill="black"/>
<rect x="178.704" y="127.797" width="8.48503" height="8.48503" fill="black"/>
<rect x="170.22" y="127.797" width="8.48502" height="8.48503" fill="black"/>
</g>
<defs>
<clipPath id="clip0_534_30559">
<rect x="0.520508" y="0.520996" width="271.521" height="271.521" rx="104.671" fill="white"/>
</clipPath>
<clipPath id="clip1_534_30559">
<rect width="271.521" height="271.521" fill="white" transform="translate(0.520508 0.520996)"/>
</clipPath>
</defs>
</svg>
