<svg width="272" height="272" viewBox="0 0 272 272" fill="none" xmlns="http://www.w3.org/2000/svg">
<g clip-path="url(#clip0_534_30563)">
<rect x="0.0419922" y="0.041748" width="271.521" height="271.521" rx="104.671" fill="white"/>
<rect width="271.521" height="271.521" transform="translate(0.0419922 0.041748)" fill="#DEDF4A"/>
<g clip-path="url(#clip1_534_30563)">
<rect x="50.9551" y="101.862" width="8.48503" height="8.48502" fill="black"/>
<rect x="59.4395" y="93.3774" width="8.48503" height="8.48503" fill="black"/>
<rect x="59.4395" y="84.8914" width="8.48503" height="8.48502" fill="black"/>
<rect x="67.9229" y="76.4072" width="8.48503" height="8.48503" fill="black"/>
<rect x="76.4072" y="67.9209" width="8.48503" height="8.48503" fill="black"/>
<rect x="84.8916" y="59.4368" width="8.48502" height="8.48503" fill="black"/>
<rect x="93.376" y="59.4368" width="8.48503" height="8.48503" fill="black"/>
<rect x="101.859" y="50.9526" width="8.48502" height="8.48503" fill="black"/>
<rect x="93.376" y="212.168" width="8.48503" height="8.48502" fill="black"/>
<rect x="110.344" y="50.9526" width="8.48503" height="8.48503" fill="black"/>
<rect x="118.837" y="50.9526" width="8.48502" height="8.48503" fill="black"/>
<rect x="127.32" y="50.9526" width="8.48503" height="8.48503" fill="black"/>
<rect x="135.805" y="50.9526" width="8.48502" height="8.48503" fill="black"/>
<rect x="135.805" y="212.168" width="8.48502" height="8.48502" fill="black"/>
<rect x="144.289" y="50.9526" width="8.48503" height="8.48503" fill="black"/>
<rect x="144.289" y="212.168" width="8.48503" height="8.48502" fill="black"/>
<rect x="152.772" y="50.9526" width="8.48503" height="8.48503" fill="black"/>
<rect x="152.772" y="212.168" width="8.48503" height="8.48502" fill="black"/>
<rect x="161.257" y="50.9526" width="8.48503" height="8.48503" fill="black"/>
<rect x="169.741" y="212.168" width="8.48502" height="8.48502" fill="black"/>
<rect x="169.741" y="59.4368" width="8.48502" height="8.48503" fill="black"/>
<rect x="178.226" y="59.4368" width="8.48503" height="8.48503" fill="black"/>
<rect x="50.9551" y="110.348" width="8.48503" height="8.48503" fill="black"/>
<rect x="50.9551" y="118.832" width="8.48503" height="8.48502" fill="black"/>
<rect x="50.9551" y="127.318" width="8.48503" height="8.48503" fill="black"/>
<rect x="50.9551" y="135.802" width="8.48503" height="8.48502" fill="black"/>
<rect x="50.9551" y="144.286" width="8.48503" height="8.48503" fill="black"/>
<rect x="50.9551" y="152.773" width="8.48503" height="8.48503" fill="black"/>
<rect x="50.9551" y="161.257" width="8.48503" height="8.48503" fill="black"/>
<rect x="59.4395" y="169.743" width="8.48503" height="8.48502" fill="black"/>
<rect x="59.4395" y="178.227" width="8.48503" height="8.48503" fill="black"/>
<rect x="67.9229" y="186.713" width="8.48503" height="8.48503" fill="black"/>
<rect x="76.4072" y="195.197" width="8.48503" height="8.48503" fill="black"/>
<rect x="84.8916" y="203.681" width="8.48502" height="8.48503" fill="black"/>
<rect x="178.226" y="203.681" width="8.48503" height="8.48503" fill="black"/>
<rect x="212.17" y="161.257" width="8.48502" height="8.48503" fill="black"/>
<rect x="203.686" y="178.227" width="8.48503" height="8.48503" fill="black"/>
<rect x="195.202" y="186.713" width="8.48503" height="8.48503" fill="black"/>
<rect x="186.709" y="195.197" width="8.48503" height="8.48503" fill="black"/>
<rect x="212.17" y="101.862" width="8.48502" height="8.48502" fill="black"/>
<rect x="212.17" y="110.348" width="8.48502" height="8.48503" fill="black"/>
<rect x="212.17" y="118.832" width="8.48502" height="8.48502" fill="black"/>
<rect x="212.17" y="127.318" width="8.48502" height="8.48503" fill="black"/>
<rect x="203.686" y="169.743" width="8.48503" height="8.48502" fill="black"/>
<rect x="212.17" y="127.318" width="8.48502" height="8.48503" fill="black"/>
<rect x="203.686" y="93.3774" width="8.48503" height="8.48503" fill="black"/>
<rect x="203.686" y="84.8914" width="8.48503" height="8.48502" fill="black"/>
<rect x="186.709" y="67.9209" width="8.48503" height="8.48503" fill="black"/>
<rect x="195.202" y="76.4072" width="8.48503" height="8.48503" fill="black"/>
<rect x="212.17" y="152.773" width="8.48502" height="8.48503" fill="black"/>
<rect x="212.17" y="144.286" width="8.48502" height="8.48503" fill="black"/>
<rect x="212.17" y="135.802" width="8.48502" height="8.48502" fill="black"/>
<rect x="84.8916" y="229.138" width="8.48502" height="8.48503" fill="black"/>
<rect x="93.376" y="220.652" width="8.48503" height="8.48503" fill="black"/>
<rect x="178.226" y="220.652" width="8.48503" height="8.48503" fill="black"/>
<rect x="186.709" y="220.652" width="8.48503" height="8.48503" fill="black"/>
<rect x="195.202" y="229.138" width="8.48503" height="8.48503" fill="black"/>
<rect x="203.686" y="229.138" width="8.48503" height="8.48503" fill="black"/>
<rect x="220.654" y="246.108" width="8.48503" height="8.48502" fill="black"/>
<rect x="229.139" y="254.593" width="8.48503" height="8.48503" fill="black"/>
<rect x="237.622" y="263.079" width="8.48503" height="8.48503" fill="black"/>
<rect x="212.17" y="237.622" width="8.48502" height="8.48503" fill="black"/>
<rect x="76.4072" y="229.138" width="8.48503" height="8.48503" fill="black"/>
<rect x="67.9229" y="237.622" width="8.48503" height="8.48503" fill="black"/>
<rect x="50.9551" y="246.108" width="8.48503" height="8.48502" fill="black"/>
<rect x="42.4707" y="254.593" width="8.48503" height="8.48503" fill="black"/>
<rect x="50.9551" y="246.108" width="8.48503" height="8.48502" fill="black"/>
<rect x="59.4395" y="237.622" width="8.48503" height="8.48503" fill="black"/>
<rect x="33.9785" y="263.079" width="8.48503" height="8.48503" fill="black"/>
<rect x="25.4941" y="263.079" width="8.48503" height="8.48503" fill="black"/>
</g>
<rect x="161.257" y="161.257" width="8.48503" height="8.48503" fill="black"/>
<rect x="127.32" y="161.257" width="8.48503" height="8.48503" fill="black"/>
<rect x="135.805" y="169.743" width="8.48502" height="8.48502" fill="black"/>
<rect x="144.289" y="169.743" width="8.48503" height="8.48502" fill="black"/>
<rect x="152.772" y="169.743" width="8.48503" height="8.48502" fill="black"/>
<rect x="127.32" y="118.832" width="8.48503" height="8.48502" fill="black"/>
<rect x="135.805" y="118.832" width="8.48502" height="8.48502" fill="black"/>
<rect x="144.289" y="118.832" width="8.48503" height="8.48502" fill="black"/>
<rect x="144.289" y="127.318" width="8.48503" height="8.48503" fill="black"/>
<rect x="144.289" y="135.802" width="8.48503" height="8.48502" fill="black"/>
<rect x="161.257" y="118.832" width="8.48503" height="8.48502" fill="black"/>
<rect x="144.289" y="110.348" width="8.48503" height="8.48503" fill="black"/>
<rect x="144.289" y="101.862" width="8.48503" height="8.48502" fill="black"/>
<rect x="152.772" y="118.832" width="8.48503" height="8.48502" fill="black"/>
</g>
<defs>
<clipPath id="clip0_534_30563">
<rect x="0.0419922" y="0.041748" width="271.521" height="271.521" rx="104.671" fill="white"/>
</clipPath>
<clipPath id="clip1_534_30563">
<rect width="271.521" height="271.521" fill="white" transform="translate(0.0419922 0.041748)"/>
</clipPath>
</defs>
</svg>
