<svg width="273" height="272" viewBox="0 0 273 272" fill="none" xmlns="http://www.w3.org/2000/svg">
<g clip-path="url(#clip0_534_30564)">
<rect x="0.520508" y="0.041748" width="271.521" height="271.521" rx="104.671" fill="white"/>
<rect width="271.521" height="271.521" transform="translate(0.520508 0.041748)" fill="#95C6EB"/>
<g clip-path="url(#clip1_534_30564)">
<rect x="51.4336" y="101.862" width="8.48503" height="8.48502" fill="black"/>
<rect x="59.918" y="93.3774" width="8.48503" height="8.48503" fill="black"/>
<rect x="59.918" y="84.8914" width="8.48503" height="8.48502" fill="black"/>
<rect x="68.4014" y="76.4072" width="8.48503" height="8.48503" fill="black"/>
<rect x="76.8857" y="67.9209" width="8.48503" height="8.48503" fill="black"/>
<rect x="85.3701" y="59.4368" width="8.48502" height="8.48503" fill="black"/>
<rect x="93.8545" y="59.4368" width="8.48503" height="8.48503" fill="black"/>
<rect x="102.338" y="50.9526" width="8.48502" height="8.48503" fill="black"/>
<rect x="93.8545" y="212.168" width="8.48503" height="8.48502" fill="black"/>
<rect x="110.822" y="50.9526" width="8.48503" height="8.48503" fill="black"/>
<rect x="119.315" y="50.9526" width="8.48502" height="8.48503" fill="black"/>
<rect x="127.799" y="50.9526" width="8.48503" height="8.48503" fill="black"/>
<rect x="136.283" y="50.9526" width="8.48502" height="8.48503" fill="black"/>
<rect x="136.283" y="212.168" width="8.48502" height="8.48502" fill="black"/>
<rect x="144.768" y="50.9526" width="8.48503" height="8.48503" fill="black"/>
<rect x="144.768" y="212.168" width="8.48503" height="8.48502" fill="black"/>
<rect x="153.251" y="50.9526" width="8.48503" height="8.48503" fill="black"/>
<rect x="153.251" y="212.168" width="8.48503" height="8.48502" fill="black"/>
<rect x="161.735" y="50.9526" width="8.48503" height="8.48503" fill="black"/>
<rect x="170.22" y="212.168" width="8.48502" height="8.48502" fill="black"/>
<rect x="170.22" y="59.4368" width="8.48502" height="8.48503" fill="black"/>
<rect x="178.704" y="59.4368" width="8.48503" height="8.48503" fill="black"/>
<rect x="51.4336" y="110.348" width="8.48503" height="8.48503" fill="black"/>
<rect x="51.4336" y="118.832" width="8.48503" height="8.48502" fill="black"/>
<rect x="51.4336" y="127.318" width="8.48503" height="8.48503" fill="black"/>
<rect x="51.4336" y="135.802" width="8.48503" height="8.48502" fill="black"/>
<rect x="51.4336" y="144.286" width="8.48503" height="8.48503" fill="black"/>
<rect x="51.4336" y="152.773" width="8.48503" height="8.48503" fill="black"/>
<rect x="51.4336" y="161.257" width="8.48503" height="8.48503" fill="black"/>
<rect x="59.918" y="169.743" width="8.48503" height="8.48502" fill="black"/>
<rect x="59.918" y="178.227" width="8.48503" height="8.48503" fill="black"/>
<rect x="68.4014" y="186.713" width="8.48503" height="8.48503" fill="black"/>
<rect x="76.8857" y="195.197" width="8.48503" height="8.48503" fill="black"/>
<rect x="85.3701" y="203.681" width="8.48502" height="8.48503" fill="black"/>
<rect x="178.704" y="203.681" width="8.48503" height="8.48503" fill="black"/>
<rect x="212.648" y="161.257" width="8.48502" height="8.48503" fill="black"/>
<rect x="204.164" y="178.227" width="8.48503" height="8.48503" fill="black"/>
<rect x="195.681" y="186.713" width="8.48503" height="8.48503" fill="black"/>
<rect x="187.188" y="195.197" width="8.48503" height="8.48503" fill="black"/>
<rect x="212.648" y="101.862" width="8.48502" height="8.48502" fill="black"/>
<rect x="212.648" y="110.348" width="8.48502" height="8.48503" fill="black"/>
<rect x="212.648" y="118.832" width="8.48502" height="8.48502" fill="black"/>
<rect x="212.648" y="127.318" width="8.48502" height="8.48503" fill="black"/>
<rect x="204.164" y="169.743" width="8.48503" height="8.48502" fill="black"/>
<rect x="212.648" y="127.318" width="8.48502" height="8.48503" fill="black"/>
<rect x="204.164" y="93.3774" width="8.48503" height="8.48503" fill="black"/>
<rect x="204.164" y="84.8914" width="8.48503" height="8.48502" fill="black"/>
<rect x="187.188" y="67.9209" width="8.48503" height="8.48503" fill="black"/>
<rect x="195.681" y="76.4072" width="8.48503" height="8.48503" fill="black"/>
<rect x="212.648" y="152.773" width="8.48502" height="8.48503" fill="black"/>
<rect x="212.648" y="144.286" width="8.48502" height="8.48503" fill="black"/>
<rect x="212.648" y="135.802" width="8.48502" height="8.48502" fill="black"/>
<rect x="85.3701" y="229.138" width="8.48502" height="8.48503" fill="black"/>
<rect x="93.8545" y="220.652" width="8.48503" height="8.48503" fill="black"/>
<rect x="178.704" y="220.652" width="8.48503" height="8.48503" fill="black"/>
<rect x="187.188" y="220.652" width="8.48503" height="8.48503" fill="black"/>
<rect x="195.681" y="229.138" width="8.48503" height="8.48503" fill="black"/>
<rect x="204.164" y="229.138" width="8.48503" height="8.48503" fill="black"/>
<rect x="221.133" y="246.108" width="8.48503" height="8.48502" fill="black"/>
<rect x="229.617" y="254.593" width="8.48503" height="8.48503" fill="black"/>
<rect x="238.101" y="263.079" width="8.48503" height="8.48503" fill="black"/>
<rect x="212.648" y="237.622" width="8.48502" height="8.48503" fill="black"/>
<rect x="76.8857" y="229.138" width="8.48503" height="8.48503" fill="black"/>
<rect x="68.4014" y="237.622" width="8.48503" height="8.48503" fill="black"/>
<rect x="51.4336" y="246.108" width="8.48503" height="8.48502" fill="black"/>
<rect x="42.9492" y="254.593" width="8.48503" height="8.48503" fill="black"/>
<rect x="51.4336" y="246.108" width="8.48503" height="8.48502" fill="black"/>
<rect x="59.918" y="237.622" width="8.48503" height="8.48503" fill="black"/>
<rect x="34.457" y="263.079" width="8.48503" height="8.48503" fill="black"/>
<rect x="25.9727" y="263.079" width="8.48503" height="8.48503" fill="black"/>
</g>
<rect x="153.251" y="59.4368" width="8.48503" height="8.48503" fill="black"/>
<rect x="136.283" y="59.4368" width="8.48502" height="8.48503" fill="black"/>
<rect x="119.315" y="59.4368" width="8.48502" height="8.48503" fill="black"/>
<rect x="119.315" y="42.4666" width="8.48502" height="8.48503" fill="black"/>
<rect x="119.315" y="50.9526" width="8.48502" height="8.48503" fill="black"/>
<rect x="136.283" y="42.4666" width="8.48502" height="8.48503" fill="black"/>
<rect x="136.283" y="50.9526" width="8.48502" height="8.48503" fill="black"/>
<rect x="153.251" y="42.4666" width="8.48503" height="8.48503" fill="black"/>
<rect x="153.251" y="50.9526" width="8.48503" height="8.48503" fill="black"/>
<rect x="144.768" y="161.257" width="8.48503" height="8.48503" fill="black"/>
<rect x="161.735" y="169.743" width="8.48503" height="8.48502" fill="black"/>
<rect x="127.799" y="169.743" width="8.48503" height="8.48502" fill="black"/>
<rect x="170.22" y="161.257" width="8.48502" height="8.48503" fill="black"/>
<rect x="136.283" y="161.257" width="8.48502" height="8.48503" fill="black"/>
<rect x="153.251" y="161.257" width="8.48503" height="8.48503" fill="black"/>
<rect x="119.315" y="161.257" width="8.48502" height="8.48503" fill="black"/>
<rect x="127.799" y="118.832" width="8.48503" height="8.48502" fill="black"/>
<rect x="119.315" y="135.802" width="8.48502" height="8.48502" fill="black"/>
<rect x="127.799" y="127.318" width="8.48503" height="8.48503" fill="black"/>
<rect x="136.283" y="135.802" width="8.48502" height="8.48502" fill="black"/>
<rect x="144.768" y="135.802" width="8.48503" height="8.48502" fill="black"/>
<rect x="153.251" y="135.802" width="8.48503" height="8.48502" fill="black"/>
<rect x="110.822" y="127.318" width="8.48503" height="8.48503" fill="black"/>
<rect x="110.822" y="118.832" width="8.48503" height="8.48502" fill="black"/>
<rect x="110.822" y="110.348" width="8.48503" height="8.48503" fill="black"/>
<rect x="161.735" y="118.832" width="8.48503" height="8.48502" fill="black"/>
<rect x="127.799" y="110.348" width="8.48503" height="8.48503" fill="black"/>
<rect x="136.283" y="101.862" width="8.48502" height="8.48502" fill="black"/>
<rect x="144.768" y="101.862" width="8.48503" height="8.48502" fill="black"/>
<rect x="144.768" y="110.348" width="8.48503" height="8.48503" fill="black"/>
<rect x="144.768" y="118.832" width="8.48503" height="8.48502" fill="black"/>
<rect x="144.768" y="127.318" width="8.48503" height="8.48503" fill="black"/>
<rect x="153.251" y="101.862" width="8.48503" height="8.48502" fill="black"/>
<rect x="110.822" y="101.862" width="8.48503" height="8.48502" fill="black"/>
<rect x="102.338" y="101.862" width="8.48502" height="8.48502" fill="black"/>
<rect x="93.8545" y="110.348" width="8.48503" height="8.48503" fill="black"/>
<rect x="93.8545" y="118.832" width="8.48503" height="8.48502" fill="black"/>
<rect x="93.8545" y="127.318" width="8.48503" height="8.48503" fill="black"/>
<rect x="102.338" y="135.802" width="8.48502" height="8.48502" fill="black"/>
<rect x="110.822" y="135.802" width="8.48503" height="8.48502" fill="black"/>
<rect x="119.315" y="101.862" width="8.48502" height="8.48502" fill="black"/>
<rect x="161.735" y="110.348" width="8.48503" height="8.48503" fill="black"/>
<rect x="178.704" y="101.862" width="8.48503" height="8.48502" fill="black"/>
<rect x="178.704" y="110.348" width="8.48503" height="8.48503" fill="black"/>
<rect x="178.704" y="118.832" width="8.48503" height="8.48502" fill="black"/>
<rect x="178.704" y="127.318" width="8.48503" height="8.48503" fill="black"/>
<rect x="170.22" y="101.862" width="8.48502" height="8.48502" fill="black"/>
<rect x="187.188" y="101.862" width="8.48503" height="8.48502" fill="black"/>
<rect x="195.681" y="110.348" width="8.48503" height="8.48503" fill="black"/>
<rect x="195.681" y="118.832" width="8.48503" height="8.48502" fill="black"/>
<rect x="195.681" y="127.318" width="8.48503" height="8.48503" fill="black"/>
<rect x="187.188" y="135.802" width="8.48503" height="8.48502" fill="black"/>
<rect x="178.704" y="135.802" width="8.48503" height="8.48502" fill="black"/>
<rect x="170.22" y="135.802" width="8.48502" height="8.48502" fill="black"/>
<rect x="161.735" y="127.318" width="8.48503" height="8.48503" fill="black"/>
</g>
<defs>
<clipPath id="clip0_534_30564">
<rect x="0.520508" y="0.041748" width="271.521" height="271.521" rx="104.671" fill="white"/>
</clipPath>
<clipPath id="clip1_534_30564">
<rect width="271.521" height="271.521" fill="white" transform="translate(0.520508 0.041748)"/>
</clipPath>
</defs>
</svg>
