<svg width="272" height="272" viewBox="0 0 272 272" fill="none" xmlns="http://www.w3.org/2000/svg">
<g clip-path="url(#clip0_534_30566)">
<rect y="0.041748" width="271.521" height="271.521" rx="104.671" fill="white"/>
<rect width="271.521" height="271.521" transform="translate(0 0.041748)" fill="#CBDED5"/>
<g clip-path="url(#clip1_534_30566)">
<rect x="50.9131" y="101.862" width="8.48503" height="8.48502" fill="black"/>
<rect x="59.3975" y="93.3774" width="8.48503" height="8.48503" fill="black"/>
<rect x="59.3975" y="84.8914" width="8.48503" height="8.48502" fill="black"/>
<rect x="67.8809" y="76.4072" width="8.48503" height="8.48503" fill="black"/>
<rect x="76.3652" y="67.9209" width="8.48503" height="8.48503" fill="black"/>
<rect x="84.8496" y="59.4368" width="8.48502" height="8.48503" fill="black"/>
<rect x="93.334" y="59.4368" width="8.48503" height="8.48503" fill="black"/>
<rect x="101.817" y="50.9526" width="8.48502" height="8.48503" fill="black"/>
<rect x="93.334" y="212.168" width="8.48503" height="8.48502" fill="black"/>
<rect x="110.302" y="50.9526" width="8.48503" height="8.48503" fill="black"/>
<rect x="118.795" y="50.9526" width="8.48502" height="8.48503" fill="black"/>
<rect x="127.278" y="50.9526" width="8.48503" height="8.48503" fill="black"/>
<rect x="135.763" y="50.9526" width="8.48502" height="8.48503" fill="black"/>
<rect x="135.763" y="212.168" width="8.48502" height="8.48502" fill="black"/>
<rect x="144.247" y="50.9526" width="8.48503" height="8.48503" fill="black"/>
<rect x="144.247" y="212.168" width="8.48503" height="8.48502" fill="black"/>
<rect x="152.73" y="50.9526" width="8.48503" height="8.48503" fill="black"/>
<rect x="152.73" y="212.168" width="8.48503" height="8.48502" fill="black"/>
<rect x="161.215" y="50.9526" width="8.48503" height="8.48503" fill="black"/>
<rect x="169.699" y="212.168" width="8.48502" height="8.48502" fill="black"/>
<rect x="169.699" y="59.4368" width="8.48502" height="8.48503" fill="black"/>
<rect x="178.184" y="59.4368" width="8.48503" height="8.48503" fill="black"/>
<rect x="50.9131" y="110.348" width="8.48503" height="8.48503" fill="black"/>
<rect x="50.9131" y="118.832" width="8.48503" height="8.48502" fill="black"/>
<rect x="50.9131" y="127.318" width="8.48503" height="8.48503" fill="black"/>
<rect x="50.9131" y="135.802" width="8.48503" height="8.48502" fill="black"/>
<rect x="50.9131" y="144.286" width="8.48503" height="8.48503" fill="black"/>
<rect x="50.9131" y="152.773" width="8.48503" height="8.48503" fill="black"/>
<rect x="50.9131" y="161.257" width="8.48503" height="8.48503" fill="black"/>
<rect x="59.3975" y="169.743" width="8.48503" height="8.48502" fill="black"/>
<rect x="59.3975" y="178.227" width="8.48503" height="8.48503" fill="black"/>
<rect x="67.8809" y="186.713" width="8.48503" height="8.48503" fill="black"/>
<rect x="76.3652" y="195.197" width="8.48503" height="8.48503" fill="black"/>
<rect x="84.8496" y="203.681" width="8.48502" height="8.48503" fill="black"/>
<rect x="178.184" y="203.681" width="8.48503" height="8.48503" fill="black"/>
<rect x="212.128" y="161.257" width="8.48502" height="8.48503" fill="black"/>
<rect x="203.644" y="178.227" width="8.48503" height="8.48503" fill="black"/>
<rect x="195.16" y="186.713" width="8.48503" height="8.48503" fill="black"/>
<rect x="186.667" y="195.197" width="8.48503" height="8.48503" fill="black"/>
<rect x="212.128" y="101.862" width="8.48502" height="8.48502" fill="black"/>
<rect x="212.128" y="110.348" width="8.48502" height="8.48503" fill="black"/>
<rect x="212.128" y="118.832" width="8.48502" height="8.48502" fill="black"/>
<rect x="212.128" y="127.318" width="8.48502" height="8.48503" fill="black"/>
<rect x="203.644" y="169.743" width="8.48503" height="8.48502" fill="black"/>
<rect x="212.128" y="127.318" width="8.48502" height="8.48503" fill="black"/>
<rect x="203.644" y="93.3774" width="8.48503" height="8.48503" fill="black"/>
<rect x="203.644" y="84.8914" width="8.48503" height="8.48502" fill="black"/>
<rect x="186.667" y="67.9209" width="8.48503" height="8.48503" fill="black"/>
<rect x="195.16" y="76.4072" width="8.48503" height="8.48503" fill="black"/>
<rect x="212.128" y="152.773" width="8.48502" height="8.48503" fill="black"/>
<rect x="212.128" y="144.286" width="8.48502" height="8.48503" fill="black"/>
<rect x="212.128" y="135.802" width="8.48502" height="8.48502" fill="black"/>
<rect x="84.8496" y="229.138" width="8.48502" height="8.48503" fill="black"/>
<rect x="93.334" y="220.652" width="8.48503" height="8.48503" fill="black"/>
<rect x="178.184" y="220.652" width="8.48503" height="8.48503" fill="black"/>
<rect x="186.667" y="220.652" width="8.48503" height="8.48503" fill="black"/>
<rect x="195.16" y="229.138" width="8.48503" height="8.48503" fill="black"/>
<rect x="203.644" y="229.138" width="8.48503" height="8.48503" fill="black"/>
<rect x="220.612" y="246.108" width="8.48503" height="8.48502" fill="black"/>
<rect x="229.097" y="254.593" width="8.48503" height="8.48503" fill="black"/>
<rect x="237.58" y="263.079" width="8.48503" height="8.48503" fill="black"/>
<rect x="212.128" y="237.622" width="8.48502" height="8.48503" fill="black"/>
<rect x="76.3652" y="229.138" width="8.48503" height="8.48503" fill="black"/>
<rect x="67.8809" y="237.622" width="8.48503" height="8.48503" fill="black"/>
<rect x="50.9131" y="246.108" width="8.48503" height="8.48502" fill="black"/>
<rect x="42.4287" y="254.593" width="8.48503" height="8.48503" fill="black"/>
<rect x="50.9131" y="246.108" width="8.48503" height="8.48502" fill="black"/>
<rect x="59.3975" y="237.622" width="8.48503" height="8.48503" fill="black"/>
<rect x="33.9365" y="263.079" width="8.48503" height="8.48503" fill="black"/>
<rect x="25.4521" y="263.079" width="8.48503" height="8.48503" fill="black"/>
</g>
<rect x="25.4521" y="212.168" width="8.48503" height="8.48502" fill="black"/>
<rect x="33.9365" y="203.681" width="8.48503" height="8.48503" fill="black"/>
<rect x="42.4287" y="212.168" width="8.48503" height="8.48502" fill="black"/>
<rect x="59.3975" y="42.4666" width="8.48503" height="8.48503" fill="black"/>
<rect x="50.9131" y="42.4666" width="8.48503" height="8.48503" fill="black"/>
<rect x="42.4287" y="33.9824" width="8.48503" height="8.48503" fill="black"/>
<rect x="42.4287" y="25.4961" width="8.48503" height="8.48503" fill="black"/>
<rect x="42.4287" y="50.9526" width="8.48503" height="8.48503" fill="black"/>
<rect x="42.4287" y="59.4368" width="8.48503" height="8.48503" fill="black"/>
<rect x="33.9365" y="42.4666" width="8.48503" height="8.48503" fill="black"/>
<rect x="25.4521" y="42.4666" width="8.48503" height="8.48503" fill="black"/>
<rect x="246.064" y="17.012" width="8.48502" height="8.48503" fill="black"/>
<rect x="229.097" y="212.168" width="8.48503" height="8.48502" fill="black"/>
<rect x="33.9365" y="220.652" width="8.48503" height="8.48503" fill="black"/>
<rect x="220.612" y="33.9824" width="8.48503" height="8.48503" fill="black"/>
<rect x="220.612" y="50.9526" width="8.48503" height="8.48503" fill="black"/>
<rect x="229.096" y="42.4666" width="8.48503" height="8.48503" fill="black"/>
<rect x="212.128" y="42.4666" width="8.48502" height="8.48503" fill="black"/>
<rect x="93.334" y="254.593" width="8.48503" height="8.48503" fill="black"/>
<rect x="178.184" y="33.9824" width="8.48503" height="8.48503" fill="black"/>
<rect width="8.48502" height="8.48503" transform="matrix(1 0 0 -1 101.817 25.4961)" fill="black"/>
<rect x="237.58" y="76.4072" width="8.48503" height="8.48503" fill="black"/>
<rect x="254.549" y="237.622" width="8.48503" height="8.48503" fill="black"/>
<rect x="16.9678" y="93.3774" width="8.48503" height="8.48503" fill="black"/>
<rect x="144.247" y="237.622" width="8.48503" height="8.48503" fill="black"/>
<rect x="152.73" y="246.108" width="8.48503" height="8.48502" fill="black"/>
<rect x="135.763" y="246.108" width="8.48502" height="8.48502" fill="black"/>
<rect x="144.247" y="254.593" width="8.48503" height="8.48503" fill="black"/>
<rect x="161.215" y="161.257" width="8.48503" height="8.48503" fill="black"/>
<rect x="127.278" y="161.257" width="8.48503" height="8.48503" fill="black"/>
<rect x="135.763" y="169.743" width="8.48502" height="8.48502" fill="black"/>
<rect x="144.247" y="169.743" width="8.48503" height="8.48502" fill="black"/>
<rect x="152.73" y="169.743" width="8.48503" height="8.48502" fill="black"/>
<rect x="118.795" y="110.348" width="8.48502" height="8.48503" fill="black"/>
<rect x="118.795" y="118.832" width="8.48502" height="8.48502" fill="black"/>
<rect x="118.795" y="127.318" width="8.48502" height="8.48503" fill="black"/>
<rect x="169.699" y="110.348" width="8.48502" height="8.48503" fill="black"/>
<rect x="169.699" y="118.832" width="8.48502" height="8.48502" fill="black"/>
<rect x="169.699" y="127.318" width="8.48502" height="8.48503" fill="black"/>
</g>
<defs>
<clipPath id="clip0_534_30566">
<rect y="0.041748" width="271.521" height="271.521" rx="104.671" fill="white"/>
</clipPath>
<clipPath id="clip1_534_30566">
<rect width="271.521" height="271.521" fill="white" transform="translate(0 0.041748)"/>
</clipPath>
</defs>
</svg>
