<svg width="272" height="272" viewBox="0 0 272 272" fill="none" xmlns="http://www.w3.org/2000/svg">
<g clip-path="url(#clip0_534_30567)">
<rect x="0.0419922" width="271.521" height="271.521" rx="104.671" fill="white"/>
<rect width="271.521" height="271.521" transform="translate(0.0419922)" fill="#FBE259"/>
<g clip-path="url(#clip1_534_30567)">
<rect x="50.9551" y="101.82" width="8.48503" height="8.48502" fill="black"/>
<rect x="59.4395" y="93.3357" width="8.48503" height="8.48503" fill="black"/>
<rect x="59.4395" y="84.8496" width="8.48503" height="8.48502" fill="black"/>
<rect x="67.9229" y="76.3655" width="8.48503" height="8.48503" fill="black"/>
<rect x="76.4072" y="67.8792" width="8.48503" height="8.48503" fill="black"/>
<rect x="84.8916" y="59.395" width="8.48502" height="8.48503" fill="black"/>
<rect x="93.376" y="59.395" width="8.48503" height="8.48503" fill="black"/>
<rect x="101.859" y="50.9109" width="8.48502" height="8.48503" fill="black"/>
<rect x="93.376" y="212.126" width="8.48503" height="8.48502" fill="black"/>
<rect x="110.344" y="50.9109" width="8.48503" height="8.48503" fill="black"/>
<rect x="118.837" y="50.9109" width="8.48502" height="8.48503" fill="black"/>
<rect x="127.32" y="50.9109" width="8.48503" height="8.48503" fill="black"/>
<rect x="135.805" y="50.9109" width="8.48502" height="8.48503" fill="black"/>
<rect x="135.805" y="212.126" width="8.48502" height="8.48502" fill="black"/>
<rect x="144.289" y="50.9109" width="8.48503" height="8.48503" fill="black"/>
<rect x="144.289" y="212.126" width="8.48503" height="8.48502" fill="black"/>
<rect x="152.772" y="50.9109" width="8.48503" height="8.48503" fill="black"/>
<rect x="152.772" y="212.126" width="8.48503" height="8.48502" fill="black"/>
<rect x="161.257" y="50.9109" width="8.48503" height="8.48503" fill="black"/>
<rect x="169.741" y="212.126" width="8.48502" height="8.48502" fill="black"/>
<rect x="169.741" y="59.395" width="8.48502" height="8.48503" fill="black"/>
<rect x="178.226" y="59.395" width="8.48503" height="8.48503" fill="black"/>
<rect x="50.9551" y="110.306" width="8.48503" height="8.48503" fill="black"/>
<rect x="50.9551" y="118.79" width="8.48503" height="8.48502" fill="black"/>
<rect x="50.9551" y="127.276" width="8.48503" height="8.48503" fill="black"/>
<rect x="50.9551" y="135.76" width="8.48503" height="8.48502" fill="black"/>
<rect x="50.9551" y="144.245" width="8.48503" height="8.48503" fill="black"/>
<rect x="50.9551" y="152.731" width="8.48503" height="8.48503" fill="black"/>
<rect x="50.9551" y="161.215" width="8.48503" height="8.48503" fill="black"/>
<rect x="59.4395" y="169.701" width="8.48503" height="8.48502" fill="black"/>
<rect x="59.4395" y="178.185" width="8.48503" height="8.48503" fill="black"/>
<rect x="67.9229" y="186.671" width="8.48503" height="8.48503" fill="black"/>
<rect x="76.4072" y="195.156" width="8.48503" height="8.48503" fill="black"/>
<rect x="84.8916" y="203.64" width="8.48502" height="8.48503" fill="black"/>
<rect x="178.226" y="203.64" width="8.48503" height="8.48503" fill="black"/>
<rect x="212.17" y="161.215" width="8.48502" height="8.48503" fill="black"/>
<rect x="203.686" y="178.185" width="8.48503" height="8.48503" fill="black"/>
<rect x="195.202" y="186.671" width="8.48503" height="8.48503" fill="black"/>
<rect x="186.709" y="195.156" width="8.48503" height="8.48503" fill="black"/>
<rect x="212.17" y="101.82" width="8.48502" height="8.48502" fill="black"/>
<rect x="212.17" y="110.306" width="8.48502" height="8.48503" fill="black"/>
<rect x="212.17" y="118.79" width="8.48502" height="8.48502" fill="black"/>
<rect x="212.17" y="127.276" width="8.48502" height="8.48503" fill="black"/>
<rect x="203.686" y="169.701" width="8.48503" height="8.48502" fill="black"/>
<rect x="212.17" y="127.276" width="8.48502" height="8.48503" fill="black"/>
<rect x="203.686" y="93.3357" width="8.48503" height="8.48503" fill="black"/>
<rect x="203.686" y="84.8496" width="8.48503" height="8.48502" fill="black"/>
<rect x="186.709" y="67.8792" width="8.48503" height="8.48503" fill="black"/>
<rect x="195.202" y="76.3655" width="8.48503" height="8.48503" fill="black"/>
<rect x="212.17" y="152.731" width="8.48502" height="8.48503" fill="black"/>
<rect x="212.17" y="144.245" width="8.48502" height="8.48503" fill="black"/>
<rect x="212.17" y="135.76" width="8.48502" height="8.48502" fill="black"/>
<rect x="84.8916" y="229.096" width="8.48502" height="8.48503" fill="black"/>
<rect x="93.376" y="220.61" width="8.48503" height="8.48503" fill="black"/>
<rect x="178.226" y="220.61" width="8.48503" height="8.48503" fill="black"/>
<rect x="186.709" y="220.61" width="8.48503" height="8.48503" fill="black"/>
<rect x="195.202" y="229.096" width="8.48503" height="8.48503" fill="black"/>
<rect x="203.686" y="229.096" width="8.48503" height="8.48503" fill="black"/>
<rect x="220.654" y="246.067" width="8.48503" height="8.48502" fill="black"/>
<rect x="229.139" y="254.551" width="8.48503" height="8.48503" fill="black"/>
<rect x="237.622" y="263.037" width="8.48503" height="8.48503" fill="black"/>
<rect x="212.17" y="237.58" width="8.48502" height="8.48503" fill="black"/>
<rect x="76.4072" y="229.096" width="8.48503" height="8.48503" fill="black"/>
<rect x="67.9229" y="237.58" width="8.48503" height="8.48503" fill="black"/>
<rect x="50.9551" y="246.067" width="8.48503" height="8.48502" fill="black"/>
<rect x="42.4707" y="254.551" width="8.48503" height="8.48503" fill="black"/>
<rect x="50.9551" y="246.067" width="8.48503" height="8.48502" fill="black"/>
<rect x="59.4395" y="237.58" width="8.48503" height="8.48503" fill="black"/>
<rect x="33.9785" y="263.037" width="8.48503" height="8.48503" fill="black"/>
<rect x="25.4941" y="263.037" width="8.48503" height="8.48503" fill="black"/>
</g>
<rect x="33.9785" y="161.215" width="8.48503" height="8.48503" fill="black"/>
<rect x="33.9785" y="152.731" width="8.48503" height="8.48503" fill="black"/>
<rect x="33.9785" y="144.245" width="8.48503" height="8.48503" fill="black"/>
<rect x="33.9785" y="135.76" width="8.48503" height="8.48502" fill="black"/>
<rect x="33.9785" y="127.276" width="8.48503" height="8.48503" fill="black"/>
<rect x="33.9785" y="118.79" width="8.48503" height="8.48502" fill="black"/>
<rect x="33.9785" y="110.306" width="8.48503" height="8.48503" fill="black"/>
<rect x="33.9785" y="101.82" width="8.48503" height="8.48502" fill="black"/>
<rect x="33.9785" y="93.3357" width="8.48503" height="8.48503" fill="black"/>
<rect x="42.4707" y="84.8496" width="8.48503" height="8.48502" fill="black"/>
<rect x="42.4707" y="76.3655" width="8.48503" height="8.48503" fill="black"/>
<rect x="50.9551" y="67.8792" width="8.48503" height="8.48503" fill="black"/>
<rect x="59.4395" y="59.395" width="8.48503" height="8.48503" fill="black"/>
<rect x="67.9229" y="50.9109" width="8.48503" height="8.48503" fill="black"/>
<rect x="76.4072" y="42.4248" width="8.48503" height="8.48503" fill="black"/>
<rect x="93.376" y="33.9407" width="8.48503" height="8.48503" fill="black"/>
<rect x="101.859" y="33.9407" width="8.48502" height="8.48503" fill="black"/>
<rect x="110.344" y="33.9407" width="8.48503" height="8.48503" fill="black"/>
<rect x="118.837" y="33.9407" width="8.48502" height="8.48503" fill="black"/>
<rect x="127.32" y="33.9407" width="8.48503" height="8.48503" fill="black"/>
<rect x="135.805" y="33.9407" width="8.48502" height="8.48503" fill="black"/>
<rect x="144.289" y="33.9407" width="8.48503" height="8.48503" fill="black"/>
<rect x="152.772" y="33.9407" width="8.48503" height="8.48503" fill="black"/>
<rect x="161.257" y="33.9407" width="8.48503" height="8.48503" fill="black"/>
<rect x="169.741" y="33.9407" width="8.48502" height="8.48503" fill="black"/>
<rect x="178.226" y="42.4248" width="8.48503" height="8.48503" fill="black"/>
<rect x="186.709" y="42.4248" width="8.48503" height="8.48503" fill="black"/>
<rect x="195.202" y="50.9109" width="8.48503" height="8.48503" fill="black"/>
<rect x="203.686" y="59.395" width="8.48503" height="8.48503" fill="black"/>
<rect x="212.17" y="67.8792" width="8.48502" height="8.48503" fill="black"/>
<rect x="220.654" y="76.3655" width="8.48503" height="8.48503" fill="black"/>
<rect x="220.654" y="84.8496" width="8.48503" height="8.48502" fill="black"/>
<rect x="229.139" y="93.3357" width="8.48503" height="8.48503" fill="black"/>
<rect x="229.139" y="101.82" width="8.48503" height="8.48502" fill="black"/>
<rect x="229.139" y="110.306" width="8.48503" height="8.48503" fill="black"/>
<rect x="229.139" y="118.79" width="8.48503" height="8.48502" fill="black"/>
<rect x="229.139" y="127.276" width="8.48503" height="8.48503" fill="black"/>
<rect x="229.139" y="135.76" width="8.48503" height="8.48502" fill="black"/>
<rect x="229.139" y="144.245" width="8.48503" height="8.48503" fill="black"/>
<rect x="229.139" y="152.731" width="8.48503" height="8.48503" fill="black"/>
<rect x="229.139" y="161.215" width="8.48503" height="8.48503" fill="black"/>
<rect x="229.139" y="169.701" width="8.48503" height="8.48502" fill="black"/>
<rect x="84.8916" y="42.4248" width="8.48502" height="8.48503" fill="black"/>
<rect x="33.9785" y="169.701" width="8.48503" height="8.48502" fill="black"/>
<rect x="42.4707" y="186.671" width="8.48503" height="8.48503" fill="black"/>
<rect x="67.9229" y="212.126" width="8.48503" height="8.48502" fill="black"/>
<rect x="59.4395" y="229.096" width="8.48503" height="8.48503" fill="black"/>
<rect x="50.9551" y="220.61" width="8.48503" height="8.48503" fill="black"/>
<rect x="17.0098" y="237.58" width="8.48503" height="8.48503" fill="black"/>
<rect x="42.4707" y="212.126" width="8.48503" height="8.48502" fill="black"/>
<rect x="33.9785" y="229.096" width="8.48503" height="8.48503" fill="black"/>
<rect x="33.9785" y="203.64" width="8.48503" height="8.48503" fill="black"/>
<rect x="25.4941" y="220.61" width="8.48503" height="8.48503" fill="black"/>
<rect x="25.4941" y="195.156" width="8.48503" height="8.48503" fill="black"/>
<rect x="25.4941" y="186.671" width="8.48503" height="8.48503" fill="black"/>
<rect x="17.0098" y="178.185" width="8.48503" height="8.48503" fill="black"/>
<rect x="17.0098" y="169.701" width="8.48503" height="8.48502" fill="black"/>
<rect x="17.0098" y="161.215" width="8.48503" height="8.48503" fill="black"/>
<rect x="17.0098" y="152.731" width="8.48503" height="8.48503" fill="black"/>
<rect x="17.0098" y="144.245" width="8.48503" height="8.48503" fill="black"/>
<rect x="17.0098" y="135.76" width="8.48503" height="8.48502" fill="black"/>
<rect x="17.0098" y="127.276" width="8.48503" height="8.48503" fill="black"/>
<rect x="17.0098" y="118.79" width="8.48503" height="8.48502" fill="black"/>
<rect x="17.0098" y="110.306" width="8.48503" height="8.48503" fill="black"/>
<rect x="17.0098" y="101.82" width="8.48503" height="8.48502" fill="black"/>
<rect x="17.0098" y="93.3357" width="8.48503" height="8.48503" fill="black"/>
<rect x="17.0098" y="84.8496" width="8.48503" height="8.48502" fill="black"/>
<rect x="25.4941" y="76.3655" width="8.48503" height="8.48503" fill="black"/>
<rect x="25.4941" y="67.8792" width="8.48503" height="8.48503" fill="black"/>
<rect x="33.9785" y="59.395" width="8.48503" height="8.48503" fill="black"/>
<rect x="17.0098" y="50.9109" width="8.48503" height="8.48503" fill="black"/>
<rect x="42.4707" y="50.9109" width="8.48503" height="8.48503" fill="black"/>
<rect x="25.4941" y="42.4248" width="8.48503" height="8.48503" fill="black"/>
<rect x="50.9551" y="42.4248" width="8.48503" height="8.48503" fill="black"/>
<rect x="33.9785" y="33.9407" width="8.48503" height="8.48503" fill="black"/>
<rect x="17.0098" y="25.4543" width="8.48503" height="8.48503" fill="black"/>
<rect x="59.4395" y="33.9407" width="8.48503" height="8.48503" fill="black"/>
<rect x="42.4707" y="25.4543" width="8.48503" height="8.48503" fill="black"/>
<rect x="67.9229" y="25.4543" width="8.48503" height="8.48503" fill="black"/>
<rect x="76.4072" y="25.4543" width="8.48503" height="8.48503" fill="black"/>
<rect x="84.8916" y="16.9702" width="8.48502" height="8.48503" fill="black"/>
<rect x="93.376" y="16.9702" width="8.48503" height="8.48503" fill="black"/>
<rect x="101.859" y="16.9702" width="8.48502" height="8.48503" fill="black"/>
<rect x="110.344" y="16.9702" width="8.48503" height="8.48503" fill="black"/>
<rect x="118.837" y="16.9702" width="8.48502" height="8.48503" fill="black"/>
<rect x="127.32" y="16.9702" width="8.48503" height="8.48503" fill="black"/>
<rect x="135.805" y="16.9702" width="8.48502" height="8.48503" fill="black"/>
<rect x="144.289" y="16.9702" width="8.48503" height="8.48503" fill="black"/>
<rect x="152.772" y="16.9702" width="8.48503" height="8.48503" fill="black"/>
<rect x="161.257" y="16.9702" width="8.48503" height="8.48503" fill="black"/>
<rect x="169.741" y="16.9702" width="8.48502" height="8.48503" fill="black"/>
<rect x="178.226" y="16.9702" width="8.48503" height="8.48503" fill="black"/>
<rect x="186.709" y="25.4543" width="8.48503" height="8.48503" fill="black"/>
<rect x="195.202" y="25.4543" width="8.48503" height="8.48503" fill="black"/>
<rect x="203.686" y="33.9407" width="8.48503" height="8.48503" fill="black"/>
<rect x="212.17" y="16.9702" width="8.48502" height="8.48503" fill="black"/>
<rect x="220.654" y="25.4543" width="8.48503" height="8.48503" fill="black"/>
<rect x="237.622" y="16.9702" width="8.48503" height="8.48503" fill="black"/>
<rect x="229.139" y="33.9407" width="8.48503" height="8.48503" fill="black"/>
<rect x="246.106" y="25.4543" width="8.48502" height="8.48503" fill="black"/>
<rect x="237.622" y="42.4248" width="8.48503" height="8.48503" fill="black"/>
<rect x="246.106" y="50.9109" width="8.48502" height="8.48503" fill="black"/>
<rect x="212.17" y="42.4248" width="8.48502" height="8.48503" fill="black"/>
<rect x="220.654" y="50.9109" width="8.48503" height="8.48503" fill="black"/>
<rect x="229.139" y="59.395" width="8.48503" height="8.48503" fill="black"/>
<rect x="237.622" y="67.8792" width="8.48503" height="8.48503" fill="black"/>
<rect x="237.622" y="76.3655" width="8.48503" height="8.48503" fill="black"/>
<rect x="246.106" y="84.8496" width="8.48502" height="8.48502" fill="black"/>
<rect x="246.106" y="93.3357" width="8.48502" height="8.48503" fill="black"/>
<rect x="246.106" y="101.82" width="8.48502" height="8.48502" fill="black"/>
<rect x="246.106" y="110.306" width="8.48502" height="8.48503" fill="black"/>
<rect x="246.106" y="118.79" width="8.48502" height="8.48502" fill="black"/>
<rect x="246.106" y="127.276" width="8.48502" height="8.48503" fill="black"/>
<rect x="246.106" y="135.76" width="8.48502" height="8.48502" fill="black"/>
<rect x="246.106" y="144.245" width="8.48502" height="8.48503" fill="black"/>
<rect x="246.106" y="152.731" width="8.48502" height="8.48503" fill="black"/>
<rect x="246.106" y="161.215" width="8.48502" height="8.48503" fill="black"/>
<rect x="246.106" y="169.701" width="8.48502" height="8.48502" fill="black"/>
<rect x="246.106" y="178.185" width="8.48502" height="8.48503" fill="black"/>
<rect x="237.622" y="186.671" width="8.48503" height="8.48503" fill="black"/>
<rect x="237.622" y="195.156" width="8.48503" height="8.48503" fill="black"/>
<rect x="229.139" y="203.64" width="8.48503" height="8.48503" fill="black"/>
<rect x="237.622" y="220.61" width="8.48503" height="8.48503" fill="black"/>
<rect x="246.106" y="237.58" width="8.48502" height="8.48503" fill="black"/>
<rect x="220.654" y="212.126" width="8.48503" height="8.48502" fill="black"/>
<rect x="229.139" y="229.096" width="8.48503" height="8.48503" fill="black"/>
<rect x="76.4072" y="220.61" width="8.48503" height="8.48503" fill="black"/>
<rect x="59.4395" y="203.64" width="8.48503" height="8.48503" fill="black"/>
<rect x="50.9551" y="195.156" width="8.48503" height="8.48503" fill="black"/>
<rect x="203.686" y="203.64" width="8.48503" height="8.48503" fill="black"/>
<rect x="195.202" y="212.126" width="8.48503" height="8.48502" fill="black"/>
<rect x="212.17" y="220.61" width="8.48502" height="8.48503" fill="black"/>
<rect x="212.17" y="195.156" width="8.48502" height="8.48503" fill="black"/>
<rect x="220.654" y="178.185" width="8.48503" height="8.48503" fill="black"/>
<rect x="220.654" y="186.671" width="8.48503" height="8.48503" fill="black"/>
<rect width="8.48503" height="8.48503" transform="matrix(1 0 0 -1 42.4707 186.671)" fill="black"/>
<rect x="84.8916" y="161.215" width="8.48502" height="8.48503" fill="black"/>
<rect x="76.4072" y="152.731" width="8.48503" height="8.48503" fill="black"/>
<rect x="144.289" y="161.215" width="8.48503" height="8.48503" fill="black"/>
<rect x="161.257" y="169.701" width="8.48503" height="8.48502" fill="black"/>
<rect x="127.32" y="169.701" width="8.48503" height="8.48502" fill="black"/>
<rect x="169.741" y="161.215" width="8.48502" height="8.48503" fill="black"/>
<rect x="135.805" y="161.215" width="8.48502" height="8.48503" fill="black"/>
<rect x="152.772" y="161.215" width="8.48503" height="8.48503" fill="black"/>
<rect x="118.837" y="161.215" width="8.48502" height="8.48503" fill="black"/>
<rect x="127.32" y="118.79" width="8.48503" height="8.48502" fill="black"/>
<rect x="135.805" y="135.76" width="8.48502" height="8.48502" fill="black"/>
<rect x="127.32" y="127.276" width="8.48503" height="8.48503" fill="black"/>
<rect x="144.289" y="118.79" width="8.48503" height="8.48502" fill="black"/>
<rect x="144.289" y="118.79" width="8.48503" height="8.48502" fill="black"/>
<rect x="144.289" y="135.76" width="8.48503" height="8.48502" fill="black"/>
<rect x="152.772" y="135.76" width="8.48503" height="8.48502" fill="black"/>
<rect x="161.257" y="118.79" width="8.48503" height="8.48502" fill="black"/>
<rect x="127.32" y="110.306" width="8.48503" height="8.48503" fill="black"/>
<rect x="118.837" y="101.82" width="8.48502" height="8.48502" fill="black"/>
<rect x="110.344" y="101.82" width="8.48503" height="8.48502" fill="black"/>
<rect x="101.859" y="101.82" width="8.48502" height="8.48502" fill="black"/>
<rect x="93.376" y="110.306" width="8.48503" height="8.48503" fill="black"/>
<rect x="93.376" y="118.79" width="8.48503" height="8.48502" fill="black"/>
<rect x="93.376" y="127.276" width="8.48503" height="8.48503" fill="black"/>
<rect x="101.859" y="135.76" width="8.48502" height="8.48502" fill="black"/>
<rect x="110.344" y="135.76" width="8.48503" height="8.48502" fill="black"/>
<rect x="110.344" y="118.79" width="8.48503" height="8.48502" fill="black"/>
<rect x="118.837" y="135.76" width="8.48502" height="8.48502" fill="black"/>
<rect x="135.805" y="101.82" width="8.48502" height="8.48502" fill="black"/>
<rect x="144.289" y="101.82" width="8.48503" height="8.48502" fill="black"/>
<rect x="152.772" y="101.82" width="8.48503" height="8.48502" fill="black"/>
<rect x="161.257" y="110.306" width="8.48503" height="8.48503" fill="black"/>
<rect x="169.741" y="101.82" width="8.48502" height="8.48502" fill="black"/>
<rect x="178.226" y="101.82" width="8.48503" height="8.48502" fill="black"/>
<rect x="186.709" y="101.82" width="8.48503" height="8.48502" fill="black"/>
<rect x="195.202" y="110.306" width="8.48503" height="8.48503" fill="black"/>
<rect x="195.202" y="118.79" width="8.48503" height="8.48502" fill="black"/>
<rect x="195.202" y="127.276" width="8.48503" height="8.48503" fill="black"/>
<rect x="186.709" y="135.76" width="8.48503" height="8.48502" fill="black"/>
<rect x="178.226" y="135.76" width="8.48503" height="8.48502" fill="black"/>
<rect x="169.741" y="135.76" width="8.48502" height="8.48502" fill="black"/>
<rect x="178.226" y="118.79" width="8.48503" height="8.48502" fill="black"/>
<rect x="161.257" y="127.276" width="8.48503" height="8.48503" fill="black"/>
</g>
<defs>
<clipPath id="clip0_534_30567">
<rect x="0.0419922" width="271.521" height="271.521" rx="104.671" fill="white"/>
</clipPath>
<clipPath id="clip1_534_30567">
<rect width="271.521" height="271.521" fill="white" transform="translate(0.0419922)"/>
</clipPath>
</defs>
</svg>
