<svg width="273" height="273" viewBox="0 0 273 273" fill="none" xmlns="http://www.w3.org/2000/svg">
<g clip-path="url(#clip0_534_30568)">
<rect x="0.520508" y="0.562744" width="271.521" height="271.521" rx="104.671" fill="white"/>
<rect width="271.521" height="271.521" transform="translate(0.520508 0.562744)" fill="#E9C262"/>
<g clip-path="url(#clip1_534_30568)">
<rect x="51.4336" y="102.383" width="8.48503" height="8.48502" fill="black"/>
<rect x="59.918" y="93.8984" width="8.48503" height="8.48503" fill="black"/>
<rect x="59.918" y="85.4122" width="8.48503" height="8.48502" fill="black"/>
<rect x="68.4014" y="76.9282" width="8.48503" height="8.48503" fill="black"/>
<rect x="76.8857" y="68.4419" width="8.48503" height="8.48503" fill="black"/>
<rect x="85.3701" y="59.9579" width="8.48502" height="8.48503" fill="black"/>
<rect x="93.8545" y="59.9579" width="8.48503" height="8.48503" fill="black"/>
<rect x="102.338" y="51.4738" width="8.48502" height="8.48503" fill="black"/>
<rect x="93.8545" y="212.689" width="8.48503" height="8.48502" fill="black"/>
<rect x="110.822" y="51.4738" width="8.48503" height="8.48503" fill="black"/>
<rect x="119.315" y="51.4738" width="8.48502" height="8.48503" fill="black"/>
<rect x="127.799" y="51.4738" width="8.48503" height="8.48503" fill="black"/>
<rect x="136.283" y="51.4738" width="8.48502" height="8.48503" fill="black"/>
<rect x="136.283" y="212.689" width="8.48502" height="8.48502" fill="black"/>
<rect x="144.768" y="51.4738" width="8.48503" height="8.48503" fill="black"/>
<rect x="144.768" y="212.689" width="8.48503" height="8.48502" fill="black"/>
<rect x="153.251" y="51.4738" width="8.48503" height="8.48503" fill="black"/>
<rect x="153.251" y="212.689" width="8.48503" height="8.48502" fill="black"/>
<rect x="161.735" y="51.4738" width="8.48503" height="8.48503" fill="black"/>
<rect x="170.22" y="212.689" width="8.48502" height="8.48502" fill="black"/>
<rect x="170.22" y="59.9579" width="8.48502" height="8.48503" fill="black"/>
<rect x="178.704" y="59.9579" width="8.48503" height="8.48503" fill="black"/>
<rect x="51.4336" y="110.869" width="8.48503" height="8.48503" fill="black"/>
<rect x="51.4336" y="119.353" width="8.48503" height="8.48502" fill="black"/>
<rect x="51.4336" y="127.839" width="8.48503" height="8.48503" fill="black"/>
<rect x="51.4336" y="136.323" width="8.48503" height="8.48502" fill="black"/>
<rect x="51.4336" y="144.807" width="8.48503" height="8.48503" fill="black"/>
<rect x="51.4336" y="153.294" width="8.48503" height="8.48503" fill="black"/>
<rect x="51.4336" y="161.778" width="8.48503" height="8.48503" fill="black"/>
<rect x="59.918" y="170.264" width="8.48503" height="8.48502" fill="black"/>
<rect x="59.918" y="178.748" width="8.48503" height="8.48503" fill="black"/>
<rect x="68.4014" y="187.234" width="8.48503" height="8.48503" fill="black"/>
<rect x="76.8857" y="195.718" width="8.48503" height="8.48503" fill="black"/>
<rect x="85.3701" y="204.202" width="8.48502" height="8.48503" fill="black"/>
<rect x="178.704" y="204.202" width="8.48503" height="8.48503" fill="black"/>
<rect x="212.648" y="161.778" width="8.48502" height="8.48503" fill="black"/>
<rect x="204.164" y="178.748" width="8.48503" height="8.48503" fill="black"/>
<rect x="195.681" y="187.234" width="8.48503" height="8.48503" fill="black"/>
<rect x="187.188" y="195.718" width="8.48503" height="8.48503" fill="black"/>
<rect x="212.648" y="102.383" width="8.48502" height="8.48502" fill="black"/>
<rect x="212.648" y="110.869" width="8.48502" height="8.48503" fill="black"/>
<rect x="212.648" y="119.353" width="8.48502" height="8.48502" fill="black"/>
<rect x="212.648" y="127.839" width="8.48502" height="8.48503" fill="black"/>
<rect x="204.164" y="170.264" width="8.48503" height="8.48502" fill="black"/>
<rect x="212.648" y="127.839" width="8.48502" height="8.48503" fill="black"/>
<rect x="204.164" y="93.8984" width="8.48503" height="8.48503" fill="black"/>
<rect x="204.164" y="85.4122" width="8.48503" height="8.48502" fill="black"/>
<rect x="187.188" y="68.4419" width="8.48503" height="8.48503" fill="black"/>
<rect x="195.681" y="76.9282" width="8.48503" height="8.48503" fill="black"/>
<rect x="212.648" y="153.294" width="8.48502" height="8.48503" fill="black"/>
<rect x="212.648" y="144.807" width="8.48502" height="8.48503" fill="black"/>
<rect x="212.648" y="136.323" width="8.48502" height="8.48502" fill="black"/>
<rect x="85.3701" y="229.659" width="8.48502" height="8.48503" fill="black"/>
<rect x="93.8545" y="221.173" width="8.48503" height="8.48503" fill="black"/>
<rect x="178.704" y="221.173" width="8.48503" height="8.48503" fill="black"/>
<rect x="187.188" y="221.173" width="8.48503" height="8.48503" fill="black"/>
<rect x="195.681" y="229.659" width="8.48503" height="8.48503" fill="black"/>
<rect x="204.164" y="229.659" width="8.48503" height="8.48503" fill="black"/>
<rect x="221.133" y="246.629" width="8.48503" height="8.48502" fill="black"/>
<rect x="229.617" y="255.113" width="8.48503" height="8.48503" fill="black"/>
<rect x="238.101" y="263.6" width="8.48503" height="8.48503" fill="black"/>
<rect x="212.648" y="238.143" width="8.48502" height="8.48503" fill="black"/>
<rect x="76.8857" y="229.659" width="8.48503" height="8.48503" fill="black"/>
<rect x="68.4014" y="238.143" width="8.48503" height="8.48503" fill="black"/>
<rect x="51.4336" y="246.629" width="8.48503" height="8.48502" fill="black"/>
<rect x="42.9492" y="255.113" width="8.48503" height="8.48503" fill="black"/>
<rect x="51.4336" y="246.629" width="8.48503" height="8.48502" fill="black"/>
<rect x="59.918" y="238.143" width="8.48503" height="8.48503" fill="black"/>
<rect x="34.457" y="263.6" width="8.48503" height="8.48503" fill="black"/>
<rect x="25.9727" y="263.6" width="8.48503" height="8.48503" fill="black"/>
</g>
<rect x="110.822" y="85.4122" width="8.48503" height="8.48502" fill="black"/>
<rect x="93.8545" y="85.4122" width="8.48503" height="8.48502" fill="black"/>
<rect x="161.735" y="170.264" width="8.48503" height="8.48502" fill="black"/>
<rect x="127.799" y="170.264" width="8.48503" height="8.48502" fill="black"/>
<rect x="144.768" y="170.264" width="8.48503" height="8.48502" fill="black"/>
<rect x="144.768" y="119.353" width="8.48503" height="8.48502" fill="black"/>
<rect x="136.283" y="119.353" width="8.48502" height="8.48502" fill="black"/>
<rect x="127.799" y="119.353" width="8.48503" height="8.48502" fill="black"/>
<rect x="161.735" y="119.353" width="8.48503" height="8.48502" fill="black"/>
<rect x="153.251" y="119.353" width="8.48503" height="8.48502" fill="black"/>
</g>
<defs>
<clipPath id="clip0_534_30568">
<rect x="0.520508" y="0.562744" width="271.521" height="271.521" rx="104.671" fill="white"/>
</clipPath>
<clipPath id="clip1_534_30568">
<rect width="271.521" height="271.521" fill="white" transform="translate(0.520508 0.562744)"/>
</clipPath>
</defs>
</svg>
