<svg width="272" height="273" viewBox="0 0 272 273" fill="none" xmlns="http://www.w3.org/2000/svg">
<g clip-path="url(#clip0_534_30569)">
<rect x="0.0419922" y="0.520996" width="271.521" height="271.521" rx="104.671" fill="white"/>
<rect width="271.521" height="271.521" transform="translate(0.0419922 0.520996)" fill="#F08CAE"/>
<g clip-path="url(#clip1_534_30569)">
<rect x="50.9551" y="102.341" width="8.48503" height="8.48502" fill="black"/>
<rect x="59.4395" y="93.8567" width="8.48503" height="8.48503" fill="black"/>
<rect x="59.4395" y="85.3706" width="8.48503" height="8.48502" fill="black"/>
<rect x="67.9229" y="76.8865" width="8.48503" height="8.48503" fill="black"/>
<rect x="76.4072" y="68.4001" width="8.48503" height="8.48503" fill="black"/>
<rect x="84.8916" y="59.916" width="8.48502" height="8.48503" fill="black"/>
<rect x="93.376" y="59.916" width="8.48503" height="8.48503" fill="black"/>
<rect x="101.859" y="51.4319" width="8.48502" height="8.48503" fill="black"/>
<rect x="93.376" y="212.647" width="8.48503" height="8.48502" fill="black"/>
<rect x="110.344" y="51.4319" width="8.48503" height="8.48503" fill="black"/>
<rect x="118.837" y="51.4319" width="8.48502" height="8.48503" fill="black"/>
<rect x="127.32" y="51.4319" width="8.48503" height="8.48503" fill="black"/>
<rect x="135.805" y="51.4319" width="8.48502" height="8.48503" fill="black"/>
<rect x="135.805" y="212.647" width="8.48502" height="8.48502" fill="black"/>
<rect x="144.289" y="51.4319" width="8.48503" height="8.48503" fill="black"/>
<rect x="144.289" y="212.647" width="8.48503" height="8.48502" fill="black"/>
<rect x="152.772" y="51.4319" width="8.48503" height="8.48503" fill="black"/>
<rect x="152.772" y="212.647" width="8.48503" height="8.48502" fill="black"/>
<rect x="161.257" y="51.4319" width="8.48503" height="8.48503" fill="black"/>
<rect x="169.741" y="212.647" width="8.48502" height="8.48502" fill="black"/>
<rect x="169.741" y="59.916" width="8.48502" height="8.48503" fill="black"/>
<rect x="178.226" y="59.916" width="8.48503" height="8.48503" fill="black"/>
<rect x="50.9551" y="110.827" width="8.48503" height="8.48503" fill="black"/>
<rect x="50.9551" y="119.311" width="8.48503" height="8.48502" fill="black"/>
<rect x="50.9551" y="127.797" width="8.48503" height="8.48503" fill="black"/>
<rect x="50.9551" y="136.281" width="8.48503" height="8.48502" fill="black"/>
<rect x="50.9551" y="144.766" width="8.48503" height="8.48503" fill="black"/>
<rect x="50.9551" y="153.252" width="8.48503" height="8.48503" fill="black"/>
<rect x="50.9551" y="161.736" width="8.48503" height="8.48503" fill="black"/>
<rect x="59.4395" y="170.222" width="8.48503" height="8.48502" fill="black"/>
<rect x="59.4395" y="178.706" width="8.48503" height="8.48503" fill="black"/>
<rect x="67.9229" y="187.192" width="8.48503" height="8.48503" fill="black"/>
<rect x="76.4072" y="195.677" width="8.48503" height="8.48503" fill="black"/>
<rect x="84.8916" y="204.161" width="8.48502" height="8.48503" fill="black"/>
<rect x="178.226" y="204.161" width="8.48503" height="8.48503" fill="black"/>
<rect x="212.17" y="161.736" width="8.48502" height="8.48503" fill="black"/>
<rect x="203.686" y="178.706" width="8.48503" height="8.48503" fill="black"/>
<rect x="195.202" y="187.192" width="8.48503" height="8.48503" fill="black"/>
<rect x="186.709" y="195.677" width="8.48503" height="8.48503" fill="black"/>
<rect x="212.17" y="102.341" width="8.48502" height="8.48502" fill="black"/>
<rect x="212.17" y="110.827" width="8.48502" height="8.48503" fill="black"/>
<rect x="212.17" y="119.311" width="8.48502" height="8.48502" fill="black"/>
<rect x="212.17" y="127.797" width="8.48502" height="8.48503" fill="black"/>
<rect x="203.686" y="170.222" width="8.48503" height="8.48502" fill="black"/>
<rect x="212.17" y="127.797" width="8.48502" height="8.48503" fill="black"/>
<rect x="203.686" y="93.8567" width="8.48503" height="8.48503" fill="black"/>
<rect x="203.686" y="85.3706" width="8.48503" height="8.48502" fill="black"/>
<rect x="186.709" y="68.4001" width="8.48503" height="8.48503" fill="black"/>
<rect x="195.202" y="76.8865" width="8.48503" height="8.48503" fill="black"/>
<rect x="212.17" y="153.252" width="8.48502" height="8.48503" fill="black"/>
<rect x="212.17" y="144.766" width="8.48502" height="8.48503" fill="black"/>
<rect x="212.17" y="136.281" width="8.48502" height="8.48502" fill="black"/>
<rect x="84.8916" y="229.617" width="8.48502" height="8.48503" fill="black"/>
<rect x="93.376" y="221.131" width="8.48503" height="8.48503" fill="black"/>
<rect x="178.226" y="221.131" width="8.48503" height="8.48503" fill="black"/>
<rect x="186.709" y="221.131" width="8.48503" height="8.48503" fill="black"/>
<rect x="195.202" y="229.617" width="8.48503" height="8.48503" fill="black"/>
<rect x="203.686" y="229.617" width="8.48503" height="8.48503" fill="black"/>
<rect x="220.654" y="246.588" width="8.48503" height="8.48502" fill="black"/>
<rect x="229.139" y="255.072" width="8.48503" height="8.48503" fill="black"/>
<rect x="237.622" y="263.558" width="8.48503" height="8.48503" fill="black"/>
<rect x="212.17" y="238.101" width="8.48502" height="8.48503" fill="black"/>
<rect x="76.4072" y="229.617" width="8.48503" height="8.48503" fill="black"/>
<rect x="67.9229" y="238.101" width="8.48503" height="8.48503" fill="black"/>
<rect x="50.9551" y="246.588" width="8.48503" height="8.48502" fill="black"/>
<rect x="42.4707" y="255.072" width="8.48503" height="8.48503" fill="black"/>
<rect x="50.9551" y="246.588" width="8.48503" height="8.48502" fill="black"/>
<rect x="59.4395" y="238.101" width="8.48503" height="8.48503" fill="black"/>
<rect x="33.9785" y="263.558" width="8.48503" height="8.48503" fill="black"/>
<rect x="25.4941" y="263.558" width="8.48503" height="8.48503" fill="black"/>
</g>
<rect x="127.32" y="17.4912" width="8.48503" height="8.48503" fill="black"/>
<rect x="152.772" y="17.4912" width="8.48503" height="8.48503" fill="black"/>
<rect x="161.257" y="17.4912" width="8.48503" height="8.48503" fill="black"/>
<rect x="161.257" y="25.9753" width="8.48503" height="8.48503" fill="black"/>
<rect x="152.772" y="34.4617" width="8.48503" height="8.48503" fill="black"/>
<rect x="135.805" y="17.4912" width="8.48502" height="8.48503" fill="black"/>
<rect x="135.805" y="25.9753" width="8.48502" height="8.48503" fill="black"/>
<rect x="127.32" y="34.4617" width="8.48503" height="8.48503" fill="black"/>
<rect x="101.859" y="17.4912" width="8.48502" height="8.48503" fill="black"/>
<rect x="110.344" y="17.4912" width="8.48503" height="8.48503" fill="black"/>
<rect x="110.344" y="25.9753" width="8.48503" height="8.48503" fill="black"/>
<rect x="101.859" y="34.4617" width="8.48502" height="8.48503" fill="black"/>
<rect x="161.257" y="170.222" width="8.48503" height="8.48502" fill="black"/>
<rect x="127.32" y="170.222" width="8.48503" height="8.48502" fill="black"/>
<rect x="144.289" y="170.222" width="8.48503" height="8.48502" fill="black"/>
<rect x="110.344" y="119.311" width="8.48503" height="8.48502" fill="black"/>
<rect x="127.32" y="119.311" width="8.48503" height="8.48502" fill="black"/>
<rect x="118.837" y="119.311" width="8.48502" height="8.48502" fill="black"/>
<rect x="118.837" y="127.797" width="8.48502" height="8.48503" fill="black"/>
<rect x="161.257" y="119.311" width="8.48503" height="8.48502" fill="black"/>
<rect x="169.741" y="119.311" width="8.48502" height="8.48502" fill="black"/>
<rect x="169.741" y="127.797" width="8.48502" height="8.48503" fill="black"/>
<rect x="178.226" y="119.311" width="8.48503" height="8.48502" fill="black"/>
</g>
<defs>
<clipPath id="clip0_534_30569">
<rect x="0.0419922" y="0.520996" width="271.521" height="271.521" rx="104.671" fill="white"/>
</clipPath>
<clipPath id="clip1_534_30569">
<rect width="271.521" height="271.521" fill="white" transform="translate(0.0419922 0.520996)"/>
</clipPath>
</defs>
</svg>
